<svg xmlns="http://www.w3.org/2000/svg" preserveAspectRatio="xMidYMid" width="17" height="27" viewBox="0 0 17 27"><defs><style>.cls-1 { fill: #919191; fill-opacity: 0; } .cls-2 { fill: #fff; } .cls-2, .cls-3, .cls-4 { fill-rule: evenodd; } .cls-3 { fill: #9e9ea1; } .cls-4 { fill: #acabb0; }</style></defs><path class="cls-1" d="M-3-1h114v150h-114z"/><path d="M0 13c0-.514.52-1 1-1h1v-1c0-.834.22-1 1-1h1.767c.779 0 1.233.166 1.233 1v1h1c.48 0 1 .486 1 1h-8zm5-2c0-.193-.82 0-1 0h-1v1h2v-1zm2 3v5s-.081 1-1 1c-1.985 0-2.005.065-4 0-.967-.031-1-1-1-1v-5h6z" class="cls-2"/><path d="M4 10l-4-4.999h8.001l-4.001 4.999zM12 5l4 4.999h-8.001l4.001-4.999z" class="cls-3"/><path d="M7.714 20l-4.5 4.667-1.928-1.75-1.286 1.166 1.929 1.75 1.285 1.167 5.786-5.833-1.286-1.167z" class="cls-2"/><path d="M2.5 5c-1.381 0-2.5-1.119-2.5-2.5s1.119-2.5 2.5-2.5 2.5 1.119 2.5 2.5-1.119 2.5-2.5 2.5zm0-4c-.828 0-1.5.672-1.5 1.5s.672 1.5 1.5 1.5 1.5-.672 1.5-1.5-.672-1.5-1.5-1.5zM8.5 5c-1.381 0-2.5-1.119-2.5-2.5s1.119-2.5 2.5-2.5 2.5 1.119 2.5 2.5-1.119 2.5-2.5 2.5zm0-4c-.828 0-1.5.672-1.5 1.5s.672 1.5 1.5 1.5 1.5-.672 1.5-1.5-.672-1.5-1.5-1.5zM14.5 5c-1.381 0-2.5-1.119-2.5-2.5s1.119-2.5 2.5-2.5 2.5 1.119 2.5 2.5-1.119 2.5-2.5 2.5zm0-4c-.828 0-1.5.672-1.5 1.5s.672 1.5 1.5 1.5 1.5-.672 1.5-1.5-.672-1.5-1.5-1.5z" class="cls-4"/></svg>