<svg xmlns="http://www.w3.org/2000/svg" preserveAspectRatio="xMidYMid" width="59" height="1595" viewBox="0 0 59 1595"><defs><style>.cls-1, .cls-2, .cls-4, .cls-6, .cls-8 { fill: #2b2b2b; } .cls-1 { fill-opacity: 0; } .cls-2, .cls-3 { opacity: 0.3; } .cls-2, .cls-3, .cls-4, .cls-5, .cls-8, .cls-9 { fill-rule: evenodd; } .cls-3, .cls-5, .cls-7, .cls-9 { fill: #fff; } .cls-8, .cls-9 { opacity: 0.4; }</style></defs><path class="cls-1" d="M0 0h59v1595h-59z"/><path d="M23 1582v2h-2v-2h-1v2h-2v-2h-1v2h-2v-2h-1v2h-10c-1.105 0-2-.895-2-2v-14h19c1.105 0 2 .895 2 2v5h-2v1h2v2h-2v1h2v2h-2v1h2zm-2-11c0-.552-.448-1-1-1h-9v-2h-1v2h-2v-2h-1v2h-2v-2h-1v2h1c-.552 0-1 .448-1 1v-1h-2v1h2v2h-2v1h2v2h-2v1h2v4c0 .552.448 1 1 1h15c.552 0 1-.448 1-1v-10z" class="cls-2"/><path d="M57 1582v2h-2v-2h-1v2h-2v-2h-1v2h-2v-2h-1v2h-10c-1.105 0-2-.895-2-2v-5h2v4c0 .552.448 1 1 1h15c.552 0 1-.448 1-1v1h2zm0-3v2h-2v-2h2zm-2-3h2v2h-2v-2zm0-5c0-.552-.448-1-1-1h-9v-2h-1v2h-2v-2h-1v2h-2v-2h-1v2h1c-.552 0-1 .448-1 1v-1h-2v-2h19c1.105 0 2 .895 2 2v5h-2v-4zm-19 2v-2h2v2h-2zm2 3h-2v-2h2v2z" class="cls-3"/><path d="M19 1578v1h-3v-6h3v1h-2v1h2v1h-2v2h2zm-4.187.094l.68.884h-1.345l-.814-1.018c-.288-.466-.486-.57-.593-.691-.106-.121-.219-.204-.338-.249-.119-.045.073-.067-.186-.067h-.228l.011 2.047h-1v-6h2c1.095 0 .88.042 1.15.149.27.108.486.299.648.574.162.275.202.923.202 1.277 0 .45-.082.963-.328 1.256-.245.293-.613.477-1.102.554.243.152.444.32.603.502.158.183.371.317.64.782zm-1.045-2.424c.076-.12.232-.49.232-.67 0-.202-.168-.62-.268-.744-.101-.123-.242-.202-.424-.234-.091-.014.148-.022-.308-.022l-1.011.001v1.995h.452c.54 0 .877-.024 1.011-.073.135-.049.24-.134.316-.253zm-4.42.932c-.18.143-.364.238-.55.284-.254.057-.317.114-.798.114h-1v2h-1v-6h1c.646 0 1.713.018 1.909.078.301.089.554.285.757.586.203.301.305.69.305 1.167 0 .367-.059.93-.176 1.181-.117.25-.266.447-.447.59zm-.481-2.294c-.113-.142-.255-.231-.427-.266-.127-.027-.057-.042-.44-.042h-1v2h1c.419 0 .442-.014.583-.076.141-.063.252-.161.332-.294.08-.134.12-.606.12-.783 0-.218-.056-.398-.168-.539z" class="cls-4"/><path d="M53 1578v1h-3v-6h3v1h-2v1h2v1h-2v2h2zm-4.187.094l.68.884h-1.345l-.814-1.018c-.288-.466-.486-.57-.593-.691-.106-.121-.219-.204-.338-.249-.119-.045.073-.067-.186-.067h-.228l.011 2.047h-1v-6h2c1.095 0 .88.042 1.15.149.27.108.486.299.648.574.162.275.202.923.202 1.277 0 .45-.082.963-.328 1.256-.245.293-.613.477-1.102.554.243.152.444.32.603.502.158.183.371.317.64.782zm-1.045-2.424c.076-.12.232-.49.232-.67 0-.202-.168-.62-.268-.744-.101-.123-.242-.202-.424-.234-.091-.014.148-.022-.308-.022l-1.011.001v1.995h.452c.54 0 .877-.024 1.011-.073.135-.049.24-.134.316-.253zm-4.42.932c-.18.143-.364.238-.55.284-.254.057-.317.114-.798.114h-1v2h-1v-6h1c.646 0 1.713.018 1.909.078.301.089.554.285.757.586.203.301.305.69.305 1.167 0 .367-.059.93-.176 1.181-.117.25-.266.447-.447.59zm-.481-2.294c-.113-.142-.255-.231-.427-.266-.127-.027-.057-.042-.44-.042h-1v2h1c.419 0 .442-.014.583-.076.141-.063.252-.161.332-.294.08-.134.12-.606.12-.783 0-.218-.056-.398-.168-.539z" class="cls-5"/><path d="M23 1555v2h-2v-2h-1v2h-2v-2h-1v2h-2v-2h-1v2h-10c-1.105 0-2-.895-2-2v-14h19c1.105 0 2 .895 2 2v5h-2v1h2v2h-2v1h2v2h-2v1h2zm-2-11c0-.552-.448-1-1-1h-9v-2h-1v2h-2v-2h-1v2h-2v-2h-1v2h-2v1h2v2h-2v1h2v2h-2v1h2v4c0 .552.448 1 1 1h15c.552 0 1-.448 1-1v-10zm-17 0v-1h1c-.552 0-1 .448-1 1z" class="cls-2"/><path d="M57 1555v2h-2v-2h-1v2h-2v-2h-1v2h-2v-2h-1v2h-10c-1.105 0-2-.895-2-2v-5h2v4c0 .552.448 1 1 1h15c.552 0 1-.448 1-1v-2h2v2h-2v1h2zm-2-6h2v2h-2v-2zm0-5c0-.552-.448-1-1-1h-9v-2h-1v2h-2v-2h-1v2h-2v-2h-1v2h-2v-2h19c1.105 0 2 .895 2 2v5h-2v-4zm-17 0v-1h1c-.552 0-1 .448-1 1zm-2 2v-2h2v2h-2zm2 3h-2v-2h2v2z" class="cls-3"/><path d="M12 1549l-1.534-.012c.014-.584.148-1.052.403-1.404.255-.352.675-.626 1.262-.824l-.576-1.224c-.628.225-1.145.535-1.55.929s-.683.839-.833 1.335c-.15.497-.172.341-.172 1.2v3h3v-3zm4 0l-1.453-.012c.013-.584.148-1.052.403-1.404.254-.352.675-.626 1.262-.824l-.576-1.224c-.622.225-1.137.535-1.545.929-.408.394-.688.837-.838 1.33-.15.493-.253 1.339-.253 2.205v2h3v-3z" class="cls-4"/><path d="M46 1549l-1.534-.012c.014-.584.148-1.052.403-1.404.255-.352.675-.626 1.262-.824l-.576-1.224c-.628.225-1.145.535-1.55.929s-.683.839-.833 1.335c-.15.497-.172.341-.172 1.2v3h3v-3zm4 0l-1.453-.012c.013-.584.148-1.052.403-1.404.254-.352.675-.626 1.262-.824l-.576-1.224c-.622.225-1.137.535-1.545.929-.408.394-.688.837-.838 1.33-.15.493-.253 1.339-.253 2.205v2h3v-3z" class="cls-5"/><path d="M23 1528v2h-2v-2h-1v2h-2v-2h-1v2h-2v-2h-1v2h-10c-1.105 0-2-.895-2-2v-14h19c1.105 0 2 .895 2 2v5h-2v1h2v2h-2v1h2v2h-2v1h2zm-2-11c0-.552-.448-1-1-1h-9v-2h-1v2h-2v-2h-1v2h-2v-2h-1v2h1c-.552 0-1 .448-1 1v-1h-2v1h2v2h-2v1h2v2h-2v1h2v4c0 .552.448 1 1 1h15c.552 0 1-.448 1-1v-10z" class="cls-2"/><path d="M57 1528v2h-2v-2h-1v2h-2v-2h-1v2h-2v-2h-1v2h-10c-1.105 0-2-.895-2-2v-5h2v4c0 .552.448 1 1 1h15c.552 0 1-.448 1-1v1h2zm0-3v2h-2v-2h2zm-2-3h2v2h-2v-2zm0-5c0-.552-.448-1-1-1h-9v-2h-1v2h-2v-2h-1v2h-2v-2h-1v2h1c-.552 0-1 .448-1 1v-1h-2v-2h19c1.105 0 2 .895 2 2v5h-2v-4zm-19 2v-2h2v2h-2zm2 3h-2v-2h2v2z" class="cls-3"/><path d="M9.992 1526.018h2.01v-3.064h1.078c.997 0 1.739-.134 2.225-.589.486-.455.729-1.087.729-1.895 0-.786-.223-1.393-.669-1.819-.446-.426-1.117-.639-2.012-.639h-3.361v8.006zm2.002-6.566h1.187c.463 0 .501.088.668.262.168.175.252.544.252.796 0 .258-.097.626-.29.792-.193.166-.251.249-.728.249h-1.089v-2.099z" class="cls-4"/><path d="M43.992 1526.018h2.01v-3.064h1.078c.997 0 1.739-.134 2.225-.589.486-.455.729-1.087.729-1.895 0-.786-.223-1.393-.669-1.819-.446-.426-1.117-.639-2.012-.639h-3.361v8.006zm2.002-6.566h1.187c.463 0 .501.088.668.262.168.175.252.544.252.796 0 .258-.097.626-.29.792-.193.166-.251.249-.728.249h-1.089v-2.099z" class="cls-5"/><path d="M23 1501v2h-2v-2h-1v2h-2v-2h-1v2h-2v-2h-1v2h-10c-1.105 0-2-.895-2-2v-14h19c1.105 0 2 .895 2 2v5h-2v1h2v2h-2v1h2v2h-2v1h2zm-2-11c0-.552-.448-1-1-1h-9v-2h-1v2h-2v-2h-1v2h-2v-2h-1v2h-2v1h2v2h-2v1h2v2h-2v1h2v4c0 .552.448 1 1 1h15c.552 0 1-.448 1-1v-10zm-17 0v-1h1c-.552 0-1 .448-1 1z" class="cls-2"/><path d="M57 1501v2h-2v-2h-1v2h-2v-2h-1v2h-2v-2h-1v2h-10c-1.105 0-2-.895-2-2v-5h2v4c0 .552.448 1 1 1h15c.552 0 1-.448 1-1v-2h2v2h-2v1h2zm-2-6h2v2h-2v-2zm0-5c0-.552-.448-1-1-1h-9v-2h-1v2h-2v-2h-1v2h-2v-2h-1v2h-2v-2h19c1.105 0 2 .895 2 2v5h-2v-4zm-17 0v-1h1c-.552 0-1 .448-1 1zm-2 2v-2h2v2h-2zm2 3h-2v-2h2v2z" class="cls-3"/><path d="M17 1498h-1l-2-6h1l1.485 4.419 1.515-4.419h1l-2 6zm-5-6h1v6h-1v-6zm-1.857 5.359c-.21.205-.432.365-.79.48-.268.085-.626.127-1.075.127h-2.284v-6.012h2.219c.5 0 .882.038 1.144.115.353.104.592.288.844.554.251.265.443.59.574.974.131.384.197.857.197 1.421 0 .495-.062.921-.185 1.279-.15.438-.365.792-.644 1.062zm-.268-3.465c-.082-.249-.197-.443-.344-.582-.148-.14-.335-.234-.562-.283-.17-.039-.474-.029-.969-.029h-1v4h1c.339 0 .85.038 1 0 .197-.049.427-.237.557-.354.13-.118.236-.311.318-.581.082-.269.123-.636.123-1.101 0-.464-.041-.821-.123-1.07z" class="cls-4"/><path d="M51 1498h-1l-2-6h1l1.485 4.419 1.515-4.419h1l-2 6zm-5-6h1v6h-1v-6zm-1.857 5.359c-.21.205-.432.365-.79.48-.268.085-.626.127-1.075.127h-2.284v-6.012h2.219c.5 0 .881.038 1.144.115.353.104.592.288.844.554.251.265.443.59.574.974.131.384.197.857.197 1.421 0 .495-.062.921-.185 1.279-.15.438-.365.792-.644 1.062zm-.268-3.465c-.082-.249-.197-.443-.344-.582-.148-.14-.335-.234-.562-.283-.17-.039-.474-.029-.969-.029h-1v4h1c.339 0 .85.038 1 0 .197-.049.427-.237.557-.354.13-.118.236-.311.318-.581.082-.269.123-.636.123-1.101 0-.464-.041-.821-.123-1.07z" class="cls-5"/><path d="M20 1474c-.155-.006-.652-.009-.921-.064-.269-.056-.456-.112-.561-.167-.211-.112-.351-.242-.422-.39-.072-.148-.107-.05-.107-.266v-9.016c0-.204.035-.392.107-.565.071-.174.211-.297.422-.372.123-.043.311-.089.561-.139.251-.049.748-.015.921-.021v-1h-6v1c.173.013.629-.013.867.049s.441.133.608.214c.198.092.337.221.417.385.081.163.121.344.121.542l-.013 3.81h-7v-4c0-.204.036-.295.107-.468.071-.174.212-.297.422-.372.124-.043.311-.089.562-.139.25-.049.736-.015.909-.021v-1h-6v1c.173.013.609-.013.848.049.238.062.44.133.607.214.198.092.337.221.418.385.08.163.12.344.12.542l.007 8.81c0 .241-.05.371-.137.523-.086.151-.222.264-.408.338-.105.05-.298.087-.58.112-.281.025-.727.015-.875.027v1h6v-1c-.155-.006-.64-.009-.909-.064-.269-.056-.456-.112-.562-.167-.21-.112-.351-.242-.422-.39-.071-.148-.107-.162-.107-.379v-4h7l.013 4.215c0 .241-.043.156-.13.308-.087.151-.223.264-.408.338-.105.05-.299.087-.58.112-.282.025-.747.015-.895.027v1h6v-1z" class="cls-4"/><path d="M54 1474c-.155-.006-.652-.009-.921-.064-.269-.056-.456-.112-.561-.167-.211-.112-.351-.242-.422-.39-.072-.148-.107-.05-.107-.266v-9.016c0-.204.035-.392.107-.565.071-.174.211-.297.422-.372.123-.043.311-.089.561-.139.251-.049.748-.015.921-.021v-1h-6v1c.173.013.629-.013.867.049s.441.133.608.214c.198.092.337.221.417.385.081.163.121.344.121.542l-.013 3.81h-7v-4c0-.204.036-.295.107-.468.071-.174.212-.297.422-.372.124-.043.311-.089.562-.139.25-.049.736-.015.909-.021v-1h-6v1c.173.013.609-.013.848.049.238.062.44.133.607.214.198.092.337.221.418.385.08.163.12.344.12.542l.007 8.81c0 .241-.05.371-.137.523-.086.151-.222.264-.408.338-.105.05-.298.087-.58.112-.281.025-.727.015-.875.027v1h6v-1c-.155-.006-.64-.009-.909-.064-.269-.056-.456-.112-.562-.167-.21-.112-.351-.242-.422-.39-.071-.148-.107-.162-.107-.379v-4h7l.013 4.215c0 .241-.043.156-.13.308-.087.151-.223.264-.408.338-.105.05-.299.087-.58.112-.282.025-.747.015-.895.027v1h6v-1z" class="cls-5"/><path d="M22 1446v2h-2v-2h-1v2h-2v-2h-1v2h-2v-2h-1v2h-8c-1.105 0-2-.895-2-2v-12h17c1.105 0 2 .895 2 2v3h-2v1h2v2h-2v1h2v2h-2v1h2zm-2-9c0-.552-.448-1-1-1h-7v-2h-1v2h-2v-2h-1v2h-2v-2h-1v2h-2v1h2v2h-2v1h2v2h-2v1h2v2c0 .552.448 1 1 1h13c.552 0 1-.448 1-1v-8zm-15 0v-1h1c-.552 0-1 .448-1 1z" class="cls-4"/><path d="M56 1446v2h-2v-2h-1v2h-2v-2h-1v2h-2v-2h-1v2h-8c-1.105 0-2-.895-2-2v-3h2v2c0 .552.448 1 1 1h13c.552 0 1-.448 1-1v1h2zm0-3v2h-2v-2h2zm-2-3h2v2h-2v-2zm0-3c0-.552-.448-1-1-1h-7v-2h-1v2h-2v-2h-1v2h-2v-2h-1v2h-2v-2h17c1.105 0 2 .895 2 2v3h-2v-2zm-15 0v-1h1c-.552 0-1 .448-1 1zm-2 2v-2h2v2h-2zm2 3h-2v-2h2v2z" class="cls-5"/><path d="M15 1421v-6h-1v-5h4l2 6v5h-5zm-1-14h3v2h-3v-2zm-2 3h1v5h-1v-5zm-2.002 6.012l.002 4.988h-5v-5l2-6h4v5h-1l-.002 1.012zm-1.998-9.012h3v2h-3v-2z" class="cls-4"/><path d="M49 1421v-6h-1v-5h4l2 6v5h-5zm-1-14h3v2h-3v-2zm-2 3h1v5h-1v-5zm-2.002 6.012l.002 4.988h-5v-5l2-6h4v5h-1l-.002 1.012zm-1.998-9.012h3v2h-3v-2z" class="cls-5"/><path d="M11.045 1380.973l-.127.902c.124.011.317.046.579.105.262.06.063.123.215.191.152.067.252.143.3.228.048.084.072.183.072.296l-.008.152-.026.152-1.934 8.087c-.04.198-.116.365-.229.503-.112.138-.279.247-.498.326-.124.045-.333.079-.626.101l-.676.051-.127.902h4.973l.126-.902c-.141-.011-.355-.044-.642-.097-.288-.054-.036-.1-.121-.14-.146-.067-.248-.146-.304-.237-.056-.09-.085-.2-.085-.329l.009-.135.025-.134 1.941-8.077c.045-.183.119-.35.22-.502.102-.152.271-.265.507-.338.136-.04.344-.082.626-.127.282-.045.51-.071.685-.076l.126-.902h-5.001z" class="cls-4"/><path d="M45.045 1380.973l-.127.902c.124.011.317.046.579.105.262.06.063.123.215.191.152.067.252.143.3.228.048.084.072.183.072.296l-.008.152-.026.152-1.934 8.087c-.04.198-.116.365-.229.503-.112.138-.279.247-.498.326-.124.045-.333.079-.626.101l-.676.051-.127.902h4.973l.126-.902c-.141-.011-.355-.044-.642-.097-.288-.054-.036-.1-.121-.14-.146-.067-.248-.146-.304-.237-.056-.09-.085-.2-.085-.329l.009-.135.025-.134 1.941-8.077c.045-.183.119-.35.22-.502.102-.152.271-.265.507-.338.136-.04.344-.082.626-.127.282-.045.51-.071.685-.076l.126-.902h-5.001z" class="cls-5"/><path d="M15.479 1359.445c1.043.756 1.771 2.337 1.771 3.555 0 1.657-1.343 3-3 3l-.25-.025v.025h-6v-12h6v.025c1.538.129 2.75 1.404 2.75 2.975 0 1.011-.504 1.901-1.271 2.445zm-1.479-3.257v-.188h-4v3h4v-.188c.477-.251.812-.736.812-1.312 0-.576-.335-1.061-.812-1.312zm0 4.913v-.101h-4v3h4v-.101c.58-.207 1-.748 1-1.399s-.42-1.192-1-1.399z" class="cls-4"/><path d="M49.479 1359.445c1.043.756 1.771 2.337 1.771 3.555 0 1.657-1.343 3-3 3l-.25-.025v.025h-6v-12h6v.025c1.538.129 2.75 1.404 2.75 2.975 0 1.011-.504 1.901-1.271 2.445zm-1.479-3.257v-.188h-4v3h4v-.188c.477-.251.812-.736.812-1.312 0-.576-.335-1.061-.812-1.312zm0 4.913v-.101h-4v3h4v-.101c.58-.207 1-.748 1-1.399s-.42-1.192-1-1.399z" class="cls-5"/><path d="M20.289 1335.791l-.614-2.292-3.536-1.094-.761 1.867-1.711-.53 3.633-9.101 1.665.515 3.035 11.165-1.711-.53zm-2.228-8.194l-1.269 3.131 2.333.722-1.064-3.853zm-2.824 11.87c.507-.186 1.013-.43 1.52-.731.371-.215.761-.502 1.104-.774.172-.129.326-.258.489-.416.055-.043.344-.373.489-.373.163 0 .262.648.262.863 0 .129-.009.244-.117.359-.616.645-1.267 1.133-1.892 1.506-.344.215-.697.415-1.059.573-.208.1-.443.024-.661.096-.28.1-.579.363-.859.435-.317.071-.652.129-.969.172h-1.194c-.263 0-1.204-.23-1.295-.258l-.516-.172c-.452-.173-.959-.431-1.421-.703-.353-.215-.724-.473-1.086-.774l-.318-.277-1.385 1.584-.62-4.295 4.179.224-1.481 1.695c.121.149.241.32.349.397l.399.095.425.258c.208.115.425.23.615.316.199.1.408.172.607.244.271.1.552.172.805.229.317.072.616.1.933.143h.814c.163 0 .969-.157.996-.157.298-.072.606-.158.887-.259zm-4.23-6.509c-.231-.101-1.296-.707-1.566-.898-.27-.19-1.304-.962-1.431-1.017l-.001-.221c-.657 1.017-1.308 2.202-2.25 3.331-.317.381-1.302 1.632-1.893 2.004-.095.06-.792.105-.866.085.291-.236 1-1.28 1.347-1.687.457-.537 2.56-3.582 2.929-4.274.37-.692 1.517-3.012 1.579-3.22-.194-.026-1.443.609-1.816.726-.373.115-1.36.394-1.435.46-.074.067-.007.288-.051.36-.043.071-.368.233-.555.277-.187.044-.775.071-1.024.004-.248-.067-.285-.481-.344-.578-.06-.096-.09-.596-.09-.596.226-.07.578-.079.982-.19.403-.111 1.384-.417 1.902-.592.518-.176 1.531-.567 1.848-.635.316-.068 1.133-.655 1.563-.803.43-.149.746-.29.765-.193.019.094.172.712.152.82-.02.106-.883 1.785-1.01 2.055-.068.148-.76.983-1.575 2.266.29.121.905.386 1.156.51.306.15 2.469 1.064 2.573 1.103.105.04.303 1.006.265 1.148-.037.141-.924-.143-1.154-.245zm-3.513-7.441c-.27.115-.902.224-1.27.209-.167-.007-.479-.06-.88-.472-.225-.233-.387-1.058-.317-.987.083.081.605.158.842.105.237-.052.959-.221 1.223-.303.265-.083.811-.232.991-.244.181-.014.329.069.377.307.063.309-.038.61-.074.685-.174.348-.631.586-.892.7z" class="cls-4"/><path d="M54.289 1335.791l-.614-2.292-3.536-1.094-.761 1.867-1.711-.53 3.633-9.101 1.665.515 3.035 11.165-1.711-.53zm-2.228-8.194l-1.269 3.131 2.333.722-1.064-3.853zm-2.824 11.87c.507-.186 1.013-.43 1.52-.731.371-.215.761-.502 1.104-.774.172-.129.326-.258.489-.416.055-.043.344-.373.489-.373.163 0 .262.648.262.863 0 .129-.009.244-.117.359-.616.645-1.267 1.133-1.892 1.506-.344.215-.697.415-1.059.573-.208.1-.443.024-.661.096-.28.1-.579.363-.859.435-.317.071-.652.129-.969.172h-1.194c-.263 0-1.204-.23-1.295-.258l-.516-.172c-.452-.173-.959-.431-1.421-.703-.353-.215-.724-.473-1.086-.774l-.318-.277-1.385 1.584-.62-4.295 4.179.224-1.481 1.695c.121.149.241.32.349.397l.399.095.425.258c.208.115.425.23.615.316.199.1.408.172.607.244.271.1.552.172.805.229.317.072.616.1.933.143h.814c.163 0 .969-.157.996-.157.298-.072.606-.158.887-.259zm-4.23-6.509c-.231-.101-1.296-.707-1.566-.898-.27-.19-1.304-.962-1.432-1.017v-.221c-.657 1.017-1.308 2.202-2.25 3.331-.317.381-1.302 1.632-1.893 2.004-.095.06-.792.105-.866.085.291-.236 1-1.28 1.347-1.687.457-.537 2.56-3.582 2.929-4.274.37-.692 1.517-3.012 1.579-3.22-.194-.026-1.443.609-1.816.726-.373.115-1.36.394-1.435.46-.074.067-.007.288-.051.36-.043.071-.368.233-.555.277-.187.044-.775.071-1.024.004-.248-.067-.285-.481-.344-.578-.06-.096-.09-.596-.09-.596.226-.07.578-.079.982-.19.403-.111 1.384-.417 1.902-.592.518-.176 1.531-.567 1.848-.635.316-.068 1.133-.655 1.563-.803.43-.149.746-.29.765-.193.019.094.172.712.152.82-.02.106-.883 1.785-1.01 2.055-.068.148-.76.983-1.575 2.266.29.121.905.386 1.156.51.306.15 2.469 1.064 2.573 1.103.105.04.303 1.006.265 1.148-.037.141-.924-.143-1.154-.245zm-3.513-7.441c-.27.115-.902.224-1.27.209-.167-.007-.479-.06-.88-.472-.225-.233-.387-1.058-.317-.987.083.081.605.158.842.105.237-.052.959-.221 1.223-.303.265-.083.811-.232.991-.244.181-.014.329.069.377.307.063.309-.038.61-.074.685-.174.348-.631.586-.892.7z" class="cls-5"/><path d="M9.186 1299.898c-.764.679-1.186 1.458-1.186 2.571 0 1.078.385 2.059 1.076 2.706.692.648 1.664.725 2.924.825v8h1v-14h2v14h1v-15h-4c-1.26 0-2.049.218-2.814.898z" class="cls-4"/><path d="M43.186 1299.898c-.764.679-1.186 1.458-1.186 2.571 0 1.078.385 2.059 1.076 2.706.692.648 1.664.725 2.924.825v8h1v-14h2v14h1v-15h-4c-1.26 0-2.049.218-2.814.898z" class="cls-5"/><path d="M15.651 1285.807h1.874c-.226-.405-.377-.829-.453-1.271-.077-.442-.115-1.497-.115-3.165v-2.392c0-.798-.03-1.349-.09-1.655-.106-.492-.292-.899-.558-1.221-.266-.323-.681-.59-1.246-.803-.565-.212-1.299-.319-2.203-.319-.911 0-1.712.125-2.403.374-.691.249-1.219.605-1.585 1.067-.365.462-.628 1.068-.787 1.819l1.754.239c.193-.751.49-1.274.893-1.57.402-.295 1.025-.444 1.869-.444.903 0 1.585.203 2.043.609.339.299.509.814.509 1.545l-.01.468c-.685.24-1.752.446-3.2.618-.712.087-1.243.177-1.595.27-.479.133-.909.328-1.291.588-.383.259-.692.603-.927 1.032-.236.428-.354.902-.354 1.42 0 .884.312 1.61.937 2.178.624.568 1.518.853 2.681.853.705 0 1.364-.117 1.979-.349.615-.233 1.255-.632 1.919-1.197.053.499.173.934.359 1.306zm-.508-4.655c0 .791-.097 1.389-.289 1.794-.253.525-.648.939-1.187 1.241-.538.303-1.153.454-1.844.454-.698 0-1.228-.16-1.59-.479-.362-.319-.543-.717-.543-1.196 0-.312.083-.596.249-.852.166-.256.402-.45.708-.583.305-.133.827-.253 1.565-.359 1.302-.186 2.279-.412 2.931-.678v.658zm-1.904-7.185l2.342-2.98h-2.512l-1.416 2.98h1.586z" class="cls-4"/><path d="M49.651 1285.807h1.874c-.226-.405-.377-.829-.453-1.271-.077-.442-.115-1.497-.115-3.165v-2.392c0-.798-.03-1.349-.09-1.655-.106-.492-.292-.899-.558-1.221-.266-.323-.681-.59-1.246-.803-.565-.212-1.299-.319-2.203-.319-.911 0-1.712.125-2.403.374-.691.249-1.219.605-1.585 1.067-.365.462-.628 1.068-.787 1.819l1.754.239c.193-.751.49-1.274.892-1.57.403-.295 1.026-.444 1.87-.444.903 0 1.585.203 2.043.609.339.299.509.814.509 1.545l-.01.468c-.685.24-1.752.446-3.2.618-.712.087-1.243.177-1.595.27-.479.133-.909.328-1.291.588-.383.259-.692.603-.927 1.032-.236.428-.354.902-.354 1.42 0 .884.312 1.61.937 2.178.624.568 1.518.853 2.681.853.705 0 1.364-.117 1.979-.349.615-.233 1.255-.632 1.919-1.197.053.499.173.934.359 1.306zm-.508-4.655c0 .791-.097 1.389-.289 1.794-.253.525-.648.939-1.187 1.241-.538.303-1.153.454-1.844.454-.698 0-1.228-.16-1.59-.479-.362-.319-.543-.717-.543-1.196 0-.312.083-.596.249-.852.166-.256.402-.45.708-.583.305-.133.827-.253 1.565-.359 1.302-.186 2.279-.412 2.931-.678v.658zm-1.904-7.185l2.342-2.98h-2.512l-1.416 2.98h1.586z" class="cls-5"/><path class="cls-6" d="M4 1251h17v2h-17z"/><path d="M6 1259v-1h13v1h-13zm0-3h13v1h-13v-1zm0-2h13v1h-13v-1zm0-5h13v1h-13v-1zm0-2h13v1h-13v-1zm0-2h13v1h-13v-1z" class="cls-2"/><path class="cls-7" d="M38 1251h17v2h-17z"/><path d="M40 1259v-1h13v1h-13zm0-3h13v1h-13v-1zm0-2h13v1h-13v-1zm0-5h13v1h-13v-1zm0-2h13v1h-13v-1zm0-2h13v1h-13v-1z" class="cls-3"/><path d="M18.952 1226c-.248 3.181-2.768 5.703-5.952 5.95v2.05h-1v-2.05c-3.184-.247-5.704-2.769-5.952-5.95h-2.048v-1h2.048c.248-3.181 2.768-5.703 5.952-5.95v-2.05h1v2.05c3.184.247 5.704 2.769 5.952 5.95h2.048v1h-2.048zm-5.952-5.774v2.774h-1v-2.774c-2.536.239-4.537 2.241-4.777 4.774h2.777v1h-2.777c.24 2.533 2.241 4.535 4.777 4.774v-2.774h1v2.774c2.536-.239 4.537-2.241 4.777-4.774h-2.777v-1h2.777c-.24-2.533-2.241-4.535-4.777-4.774z" class="cls-4"/><path d="M52.952 1226c-.248 3.181-2.768 5.703-5.952 5.95v2.05h-1v-2.05c-3.184-.247-5.704-2.769-5.952-5.95h-2.048v-1h2.048c.248-3.181 2.768-5.703 5.952-5.95v-2.05h1v2.05c3.184.247 5.704 2.769 5.952 5.95h2.048v1h-2.048zm-5.952-5.774v2.774h-1v-2.774c-2.536.239-4.537 2.241-4.777 4.774h2.777v1h-2.777c.24 2.533 2.241 4.535 4.777 4.774v-2.774h1v2.774c2.536-.239 4.537-2.241 4.777-4.774h-2.777v-1h2.777c-.24-2.533-2.241-4.535-4.777-4.774z" class="cls-5"/><path d="M19.891 1196.354c.055.365.112.73.112 1.111 0 .39-.057.765-.114 1.138l-1.993.17c-.138.571-.365 1.104-.664 1.591l1.291 1.532c-.449.607-.984 1.142-1.593 1.59l-1.532-1.291c-.486.298-1.018.524-1.588.662l-.169 1.983c-.37.056-.741.114-1.126.114-.386 0-.756-.058-1.127-.114l-.168-1.974c-.574-.136-1.11-.364-1.6-.662l-1.521 1.282c-.609-.448-1.144-.983-1.593-1.59l1.275-1.513c-.306-.492-.536-1.033-.676-1.612l-1.964-.168c-.058-.373-.115-.748-.115-1.138 0-.381.057-.746.112-1.111l1.956-.167c.137-.585.37-1.13.675-1.627l-1.274-1.512c.447-.608.981-1.142 1.587-1.591l1.513 1.275c.498-.306 1.043-.539 1.628-.677l.168-1.966c.369-.056.739-.113 1.124-.113.385 0 .754.057 1.123.113l.169 1.975c.58.14 1.123.371 1.617.677l1.523-1.284c.606.449 1.141.983 1.587 1.591l-1.291 1.532c.3.491.528 1.028.664 1.605l1.984.169zm-7.378-2.455c-1.975 0-3.576 1.601-3.576 3.576 0 1.976 1.601 3.577 3.576 3.577 1.976 0 3.577-1.601 3.577-3.577 0-1.975-1.601-3.576-3.577-3.576z" class="cls-4"/><path d="M53.891 1196.354c.055.365.112.73.112 1.111 0 .39-.057.765-.114 1.138l-1.993.17c-.138.571-.365 1.104-.664 1.591l1.291 1.532c-.449.607-.984 1.142-1.593 1.59l-1.532-1.291c-.486.298-1.018.524-1.588.662l-.169 1.983c-.37.056-.741.114-1.126.114-.386 0-.756-.058-1.127-.114l-.168-1.974c-.574-.136-1.11-.364-1.6-.662l-1.521 1.282c-.609-.448-1.144-.983-1.593-1.59l1.275-1.513c-.306-.492-.536-1.033-.676-1.612l-1.964-.168c-.058-.373-.115-.748-.115-1.138 0-.381.057-.746.112-1.111l1.956-.167c.137-.585.37-1.13.675-1.627l-1.274-1.512c.447-.608.981-1.142 1.587-1.591l1.513 1.275c.497-.306 1.043-.539 1.628-.677l.168-1.966c.369-.056.739-.113 1.124-.113.385 0 .754.057 1.123.113l.169 1.975c.58.14 1.123.371 1.617.677l1.523-1.284c.606.449 1.141.983 1.587 1.591l-1.291 1.532c.3.491.528 1.028.664 1.605l1.984.169zm-7.378-2.455c-1.975 0-3.576 1.601-3.576 3.576 0 1.976 1.601 3.577 3.576 3.577 1.976 0 3.577-1.601 3.577-3.577 0-1.975-1.601-3.576-3.577-3.576zM50 1171h-2l1.64-1.64c-.627-1.389-2.017-2.36-3.64-2.36-2.209 0-4 1.791-4 4s1.791 4 4 4c.347 0 .679-.058 1-.141v2.04c-.327.055-.657.101-1 .101-3.314 0-6-2.686-6-6s2.686-6 6-6c2.171 0 4.055 1.164 5.109 2.891l1.891-1.891v5h-3z" class="cls-5"/><path d="M16 1171h-2l1.64-1.64c-.627-1.389-2.017-2.36-3.64-2.36-2.209 0-4 1.791-4 4s1.791 4 4 4c.347 0 .679-.058 1-.141v2.04c-.327.055-.657.101-1 .101-3.314 0-6-2.686-6-6s2.686-6 6-6c2.171 0 4.055 1.164 5.109 2.891l1.891-1.891v5h-3z" class="cls-4"/><path d="M47 1150c-.343 0-.673-.046-1-.101v-2.04c.321.083.653.141 1 .141 2.209 0 4-1.791 4-4s-1.791-4-4-4c-1.623 0-3.013.971-3.64 2.36l1.64 1.64h-5v-5l1.891 1.891c1.054-1.727 2.938-2.891 5.109-2.891 3.314 0 6 2.686 6 6s-2.686 6-6 6z" class="cls-5"/><path d="M13 1150c-.343 0-.673-.046-1-.101v-2.04c.321.083.653.141 1 .141 2.209 0 4-1.791 4-4s-1.791-4-4-4c-1.623 0-3.013.971-3.64 2.36l1.64 1.64h-5v-5l1.891 1.891c1.054-1.727 2.938-2.891 5.109-2.891 3.314 0 6 2.686 6 6s-2.686 6-6 6zM21.596 1109.682l-4.478 3.644c-.126.102-.269.154-.415.183.38.503.55 1.048.297 1.491-.586 1.024-2.631.081-2 10-5.319-.994-10.418-2.749-10-10 4.39-.303 6.8-3.019 9-3 .46-.04 1.047.178 1.589.519.014-.271.127-.535.351-.717l4.478-3.644c.412-.335 1.01-.266 1.335.155.325.42.255 1.033-.157 1.369zm-8.9 4.747l-5.696 1.571c-.48.901-.491 1.812-.18 2.67l3.359-1.659-2.185 3.444c.482.49 1.087.918 1.738 1.299l2.229-3.393-.767 4.102c.586.227 1.188.421 1.806.537.585-3.132-.363-4.74 1.478-7.22-.942-.968-1.359-1.196-1.782-1.351z" class="cls-4"/><path d="M55.596 1109.682l-4.478 3.644c-.126.102-.269.154-.415.183.38.503.55 1.048.297 1.491-.586 1.024-2.631.081-2 10-5.319-.994-10.418-2.749-10-10 4.39-.303 6.8-3.019 9-3 .46-.04 1.047.178 1.589.519.014-.271.127-.535.351-.717l4.478-3.644c.412-.335 1.01-.266 1.335.155.325.42.255 1.033-.157 1.369zm-8.9 4.747l-5.696 1.571c-.48.901-.491 1.812-.18 2.67l3.359-1.659-2.185 3.444c.482.49 1.087.918 1.738 1.299l2.229-3.393-.767 4.102c.586.227 1.188.421 1.806.537.585-3.132-.363-4.74 1.478-7.22-.942-.968-1.359-1.196-1.782-1.351z" class="cls-5"/><path d="M11.976 1088.296c.991.24 1.73.494 2.233.704h5.791v1h-4.303c.139.146.291.285.394.449.326.52.489 1.118.489 1.795 0 .671-.179 1.303-.537 1.897-.358.594-.872 1.055-1.542 1.385-.671.33-1.426.495-2.264.495-1.063 0-1.954-.166-2.673-.499-.718-.333-1.282-.833-1.69-1.502-.409-.668-.624-1.424-.645-2.267l1.466-.138c.069.631.231 1.149.485 1.554.253.404.647.731 1.182.981.534.249 1.135.374 1.803.374.593 0 1.116-.095 1.57-.284.454-.189.792-.449 1.014-.779.222-.33.332-.69.332-1.08 0-.396-.106-.741-.32-1.037-.214-.295-1.321-.606-1.813-.807l-1.336-.332c-.269-.069-.514-.138-.736-.205h-7.876v-1h5.868c-.322-.307-.597-.67-.778-.977-.275-.468-.413-.991-.413-1.57 0-.637.169-1.232.505-1.786.337-.553.828-.974 1.475-1.261.646-.286 1.364-.43 2.155-.43.871 0 1.639.151 2.304.452.665.301 1.176.744 1.534 1.329.358.585.551 1.248.577 1.988l-1.49.121c-.08-.798-.351-1.4-.813-1.807-.463-.408-1.145-.611-2.048-.611-.94 0-1.625.185-2.055.555-.43.37-.645.816-.645 1.338 0 .453.152.826.456 1.118.3.293 1.081.53 2.344.837z" class="cls-4"/><path d="M45.976 1088.296c.991.24 1.73.494 2.233.704h5.791v1h-4.303c.139.146.291.285.394.449.326.52.489 1.118.489 1.795 0 .671-.179 1.303-.537 1.897-.358.594-.872 1.055-1.542 1.385-.671.33-1.426.495-2.264.495-1.063 0-1.954-.166-2.673-.499-.718-.333-1.282-.833-1.69-1.502-.409-.668-.624-1.424-.645-2.267l1.466-.138c.069.631.231 1.149.485 1.554.253.404.647.731 1.182.981.534.249 1.135.374 1.803.374.593 0 1.116-.095 1.57-.284.454-.189.792-.449 1.014-.779.222-.33.332-.69.332-1.08 0-.396-.106-.741-.32-1.037-.214-.295-1.321-.606-1.813-.807l-1.336-.332c-.269-.069-.514-.138-.736-.205h-7.876v-1h5.868c-.322-.307-.597-.67-.778-.977-.275-.468-.413-.991-.413-1.57 0-.637.169-1.232.505-1.786.337-.553.828-.974 1.475-1.261.646-.286 1.364-.43 2.155-.43.871 0 1.639.151 2.304.452.665.301 1.176.744 1.534 1.329.358.585.551 1.248.577 1.988l-1.49.121c-.08-.798-.351-1.4-.813-1.807-.463-.408-1.145-.611-2.048-.611-.94 0-1.625.185-2.055.555-.43.37-.645.816-.645 1.338 0 .453.152.826.456 1.118.3.293 1.081.53 2.344.837z" class="cls-5"/><path d="M8.519 1066.96l2.238-3.149.465.669 1.748 2.48h1.772l-3.168-4.224 2.943-3.758h-1.724l-1.435 1.887c-.198.255-.414.548-.65.879-.149-.24-.347-.538-.593-.894l-1.307-1.872h-1.804l2.879 3.833-3.112 4.149h1.748z" class="cls-8"/><path d="M17.45 1061.598c.078-.136.181-.275.309-.419.127-.143.428-.433.905-.87.476-.437.805-.771.988-1.004.276-.351.477-.687.604-1.007.127-.321.191-.658.191-1.013 0-.623-.222-1.144-.666-1.563-.444-.419-1.055-.628-1.832-.628-.709 0-1.3.181-1.772.542-.473.362-.754.958-.843 1.789l1.503.15c.029-.44.136-.755.323-.945.186-.19.436-.285.752-.285.318 0 .568.091.749.271.181.181.271.44.271.777 0 .304-.104.612-.311.924-.154.225-.572.655-1.252 1.289-.845.784-1.411 1.413-1.697 1.888-.287.474-.459.976-.516 1.506h5.291v-1.402h-2.997z" class="cls-4"/><path d="M42.519 1066.96l2.238-3.149.465.669 1.748 2.48h1.772l-3.168-4.224 2.943-3.758h-1.724l-1.435 1.887c-.198.255-.414.548-.65.879-.149-.24-.347-.538-.593-.894l-1.307-1.872h-1.804l2.879 3.833-3.112 4.149h1.748z" class="cls-9"/><path d="M51.45 1061.598c.078-.136.181-.275.309-.419.127-.143.428-.433.905-.87.476-.437.805-.771.988-1.004.276-.351.477-.687.604-1.007.127-.321.191-.658.191-1.013 0-.623-.222-1.144-.666-1.563-.444-.419-1.055-.628-1.832-.628-.709 0-1.3.181-1.772.542-.473.362-.754.958-.844 1.789l1.504.15c.029-.44.136-.755.323-.945.186-.19.436-.285.752-.285.318 0 .568.091.749.271.181.181.271.44.271.777 0 .304-.104.612-.311.924-.154.225-.572.655-1.252 1.289-.845.784-1.411 1.413-1.697 1.888-.287.474-.459.976-.516 1.506h5.291v-1.402h-2.997z" class="cls-5"/><path d="M8.519 1039.96l2.238-3.149.465.669 1.748 2.48h1.772l-3.168-4.224 2.943-3.758h-1.724l-1.435 1.887c-.198.255-.414.548-.65.879-.149-.24-.347-.539-.593-.894l-1.307-1.872h-1.804l2.879 3.833-3.112 4.149h1.748z" class="cls-8"/><path d="M17.45 1042.598c.078-.136.181-.276.309-.419.127-.143.428-.433.905-.87.476-.437.805-.771.988-1.004.276-.351.477-.687.604-1.007.127-.321.191-.658.191-1.013 0-.623-.222-1.144-.666-1.563-.444-.419-1.055-.628-1.832-.628-.709 0-1.3.181-1.772.542-.473.362-.754.958-.843 1.789l1.503.15c.029-.44.136-.755.323-.945.186-.19.436-.285.752-.285.318 0 .568.091.749.271.181.181.271.44.271.777 0 .304-.104.612-.311.923-.154.226-.572.656-1.252 1.289-.845.785-1.411 1.414-1.697 1.888-.287.475-.459.977-.516 1.507h5.291v-1.402h-2.997z" class="cls-4"/><path d="M42.519 1039.96l2.238-3.149.465.669 1.748 2.48h1.772l-3.168-4.224 2.943-3.758h-1.724l-1.435 1.887c-.198.255-.414.548-.65.879-.149-.24-.347-.539-.593-.894l-1.307-1.872h-1.804l2.879 3.833-3.112 4.149h1.748z" class="cls-9"/><path d="M51.45 1042.598c.078-.136.181-.276.309-.419.127-.143.428-.433.905-.87.476-.437.805-.771.988-1.004.276-.351.477-.687.604-1.007.127-.321.191-.658.191-1.013 0-.623-.222-1.144-.666-1.563-.444-.419-1.055-.628-1.832-.628-.709 0-1.3.181-1.772.542-.473.362-.754.958-.844 1.789l1.504.15c.029-.44.136-.755.323-.945.186-.19.436-.285.752-.285.318 0 .568.091.749.271.181.181.271.44.271.777 0 .304-.104.612-.311.923-.154.226-.572.656-1.252 1.289-.845.785-1.411 1.414-1.697 1.888-.287.475-.459.977-.516 1.507h5.291v-1.402h-2.997z" class="cls-5"/><path d="M4 1011v-1h17v1h-17zm0-4h17v1h-17v-1zm0-3h17v1h-17v-1zm7 10h-7v-1h7v1z" class="cls-4"/><path d="M38 1011v-1h17v1h-17zm0-4h17v1h-17v-1zm0-3h17v1h-17v-1zm7 10h-7v-1h7v1z" class="cls-5"/><path d="M3.994 984v-1h17.019v1h-17.019zm2.006-3.031v-.969h13.012v.969h-13.012zm-2.006-3.969h17.019v1h-17.019v-1zm15.018 9.969h-13.012v-.969h13.012v.969z" class="cls-4"/><path d="M37.994 984v-1h17.018v1h-17.018zm2.006-3.031v-.969h13.013v.969h-13.013zm-2.006-3.969h17.018v1h-17.018v-1zm15.019 9.969h-13.013v-.969h13.013v.969z" class="cls-5"/><path d="M11.007 960v-1h9.993v1h-9.993zm-7.019-4h17.012v1h-17.012v-1zm7.013-3h9.999v1h-9.999v-1zm-7.013-3h17.012v1h-17.012v-1z" class="cls-4"/><path d="M45.007 960v-1h9.993v1h-9.993zm-7.02-4h17.013v1h-17.013v-1zm7.014-3h9.999v1h-9.999v-1zm-7.014-3h17.013v1h-17.013v-1z" class="cls-5"/><path d="M4 930v-1h17.013v1h-17.013zm0-7h17.013v1h-17.013v-1zm9.999 4h-9.999v-1h9.999v1zm-.006 6h-9.993v-1h9.993v1z" class="cls-4"/><path d="M38 930v-1h17.012v1h-17.012zm0-7h17.012v1h-17.012v-1zm9.999 4h-9.999v-1h9.999v1zm-.006 6h-9.993v-1h9.993v1z" class="cls-5"/><path d="M7 900.5l9 5.5v-11l-9 5.5z" class="cls-4"/><path d="M41 900.5l9 5.5v-11l-9 5.5z" class="cls-5"/><path d="M17 873.5l-9 5.5v-11l9 5.5z" class="cls-4"/><path d="M51 873.5l-9 5.5v-11l9 5.5z" class="cls-5"/><path d="M20.702 847.482l-5.657 5.657-1.121-1.121 4.549-4.549-4.549-4.549 1.121-1.122 5.657 5.657-.014.014.014.013zm-10.684 5.657l-5.657-5.657.013-.013-.013-.014 5.657-5.657 1.121 1.122-4.549 4.549 4.549 4.549-1.121 1.121z" class="cls-4"/><path d="M54.702 847.482l-5.657 5.657-1.121-1.121 4.549-4.549-4.549-4.549 1.121-1.122 5.657 5.657-.014.014.014.013zm-10.684 5.657l-5.657-5.657.013-.013-.013-.014 5.657-5.657 1.121 1.122-4.549 4.549 4.549 4.549-1.121 1.121z" class="cls-5"/><path d="M16.791 818.816h.084l-.203.382c-.066.16-.157.306-.241.456l-3.931 7.416-4.375-8.254h.1c-.135-.428-.229-.876-.229-1.349 0-2.492 2.02-4.512 4.512-4.512 2.491 0 4.511 2.02 4.511 4.512 0 .473-.093.921-.228 1.349zm-4.277-2.818c-.84 0-1.521.68-1.521 1.52s.681 1.521 1.521 1.521c.84 0 1.521-.681 1.521-1.521 0-.84-.681-1.52-1.521-1.52z" class="cls-4"/><path d="M50.791 818.816h.084l-.202.382c-.067.161-.159.307-.243.458l-3.93 7.414-4.375-8.254h.1c-.136-.428-.229-.876-.229-1.349 0-2.492 2.02-4.512 4.512-4.512 2.491 0 4.511 2.02 4.511 4.512 0 .473-.093.921-.228 1.349zm-4.277-2.818c-.84 0-1.521.68-1.521 1.52s.681 1.521 1.521 1.521c.84 0 1.521-.681 1.521-1.521 0-.84-.681-1.52-1.521-1.52zM50.025 794l.003-.031h1.972l-.003.031h-1.972zm1.871 1c-.491 2.82-2.936 4.969-5.896 4.969-2.171 0-4.055-1.164-5.109-2.891l-1.891 1.891v-5h5l-1.609 1.609c.627 1.389 2.017 2.36 3.64 2.36 1.839 0 3.37-1.248 3.837-2.938h2.028zM51.531 792.969h-4l1.609-1.609c-.627-1.389-2.017-2.36-3.64-2.36-1.861 0-3.41 1.277-3.856 2.998h-2.015c.467-2.849 2.921-5.029 5.902-5.029 2.171 0 4.056 1.164 5.109 2.891l1.891-1.891v5h-1z" class="cls-5"/><path d="M16.025 794l.003-.031h1.972l-.003.031h-1.972zm1.871 1c-.491 2.82-2.936 4.969-5.896 4.969-2.171 0-4.055-1.164-5.109-2.891l-1.891 1.891v-5h5l-1.609 1.609c.627 1.389 2.017 2.36 3.64 2.36 1.839 0 3.37-1.248 3.837-2.938h2.028zM17.531 792.969h-4l1.609-1.609c-.627-1.389-2.017-2.36-3.64-2.36-1.861 0-3.41 1.277-3.856 2.998h-2.015c.467-2.849 2.921-5.029 5.902-5.029 2.171 0 4.056 1.164 5.109 2.891l1.891-1.891v5h-1zM21.009 774.009h-17.018c-.552 0-1-.448-1-1v-14.018c0-.552.448-1 1-1h17.018c.552 0 1 .448 1 1v14.018c0 .552-.448 1-1 1zm-1.009-1.009l.018-.004-.462.004h.444zm-15-14l-.029.006.737-.006h-.708zm16 1l-.036-.179.017 2.176-3.221-2.993h2.259l-.019-.004h-13.002l-2.984 3.211v-2.28l-.014.069v10.017l3.18 2.955h-2.32l.14.028h12.984l2.981-3.209v2.382l.035-.173v-12zm-4.1 10h-8.8c-.608 0-1.1-.522-1.1-1.167v-4.666c0-.645.492-1.167 1.1-1.167h1.912v-1.043h.988v-.957h2.969v.957h1.037v1.043h1.894c.608 0 1.1.522 1.1 1.167v4.666c0 .645-.492 1.167-1.1 1.167zm-4.427-6.046c-1.118 0-2.024.906-2.024 2.024 0 1.117.906 2.023 2.024 2.023 1.118 0 2.024-.906 2.024-2.023 0-1.118-.906-2.024-2.024-2.024z" class="cls-4"/><path d="M55.009 774.009h-17.018c-.552 0-1-.448-1-1v-14.018c0-.552.448-1 1-1h17.018c.552 0 1 .448 1 1v14.018c0 .552-.448 1-1 1zm-1.009-1.009l.018-.004-.462.004h.444zm-15-14l-.029.006.737-.006h-.708zm16 1l-.036-.179.017 2.176-3.221-2.993h2.259l-.019-.004h-13.002l-2.984 3.211v-2.28l-.014.069v10.017l3.18 2.955h-2.32l.14.028h12.984l2.981-3.209v2.382l.035-.173v-12zm-4.1 10h-8.8c-.608 0-1.1-.522-1.1-1.167v-4.666c0-.645.492-1.167 1.1-1.167h1.912v-1.043h.988v-.957h2.969v.957h1.037v1.043h1.894c.608 0 1.1.522 1.1 1.167v4.666c0 .645-.492 1.167-1.1 1.167zm-4.427-6.046c-1.118 0-2.024.906-2.024 2.024 0 1.117.906 2.023 2.024 2.023 1.118 0 2.024-.906 2.024-2.023 0-1.118-.906-2.024-2.024-2.024z" class="cls-5"/><path d="M21.127 737.876l-2.764 2.763-.829-.873 2.702-2.705c.818-.821.736-2.233-.183-3.154-.92-.922-2.329-1.005-3.147-.184l-2.62 2.624-.814-.858 2.634-2.633c1.234-1.234 3.358-1.11 4.745.276 1.386 1.387 1.51 3.51.276 4.744zM7.343 739.358l-2.641 2.645c-.819.821-.737 2.233.183 3.155.919.922 2.328 1.004 3.147.183l2.559-2.563.815.857-2.574 2.573c-1.234 1.234-3.359 1.11-4.745-.276-1.387-1.386-1.51-3.51-.276-4.744l2.703-2.703.829.873zM17.641 744.347l-3-3 .707-.707 3 3-.707.707zm-4.624-3.366h1v4.969h-1v-4.969zm-2.017-7.981h1v4.969h-1v-4.969zm-4.386 2.259l.707-.707 3 3-.707.707-3-3z" class="cls-4"/><path d="M55.127 737.876l-2.764 2.763-.829-.873 2.702-2.705c.818-.821.736-2.233-.183-3.154-.92-.922-2.329-1.005-3.147-.184l-2.62 2.624-.814-.858 2.634-2.633c1.234-1.234 3.358-1.11 4.745.276 1.386 1.387 1.51 3.51.276 4.744zM41.343 739.358l-2.641 2.645c-.819.821-.737 2.233.183 3.155.919.922 2.328 1.004 3.147.183l2.559-2.563.815.857-2.574 2.573c-1.234 1.234-3.359 1.11-4.745-.276-1.387-1.386-1.51-3.51-.276-4.744l2.703-2.703.829.873zM51.641 744.347l-3-3 .707-.707 3 3-.707.707zm-4.624-3.366h1v4.969h-1v-4.969zm-2.017-7.981h1v4.969h-1v-4.969zm-4.386 2.259l.707-.707 3 3-.707.707-3-3z" class="cls-5"/><path d="M15 705l6-.003v6.003h-1v-4l-1 1-1 1-5 4 4-5 1-1 1-1h-4v-1zm-8 5v6c0 .552.448 1 1 1h8c.552 0 1-.448 1-1v-4h1v5c0 .552-.448 1-1 1h-10c-.552 0-1-.448-1-1v-8c0-.552.448-1 1-1h7v1h-6c-.552 0-1 .448-1 1z" class="cls-4"/><path d="M54 711v-4l-1 1-1 1-5 4 4-5 1-1 1-1h-4v-1l6-.003v6.003h-1zm-13-1v6c0 .552.448 1 1 1h8c.552 0 1-.448 1-1v-4h1v5c0 .552-.448 1-1 1h-10c-.552 0-1-.448-1-1v-8c0-.552.448-1 1-1h7v1h-6c-.552 0-1 .448-1 1z" class="cls-5"/><path d="M21.127 683.876l-5.289 5.288c-1.234 1.234-3.359 1.11-4.745-.276-1.053-1.053-1.373-2.531-.927-3.721l1.241.177c-.457.826-.286 1.953.492 2.732.919.921 2.328 1.004 3.146.183l5.191-5.198c.818-.821.736-2.233-.183-3.155-.92-.921-2.329-1.004-3.147-.183l-1.33 1.331-.755-.914 1.285-1.284c1.234-1.234 3.358-1.11 4.745.276 1.386 1.387 1.51 3.51.276 4.744zM13.593 685.625c.457-.827.286-1.953-.492-2.732-.919-.922-2.328-1.004-3.146-.184l-5.191 5.199c-.818.82-.736 2.233.183 3.154.92.922 2.329 1.004 3.147.184l1.33-1.332.755.915-1.285 1.284c-1.234 1.234-3.358 1.11-4.745-.276-1.386-1.387-1.51-3.511-.276-4.744l5.289-5.288c1.234-1.234 3.359-1.11 4.745.276 1.053 1.053 1.373 2.53.927 3.721l-1.241-.177z" class="cls-4"/><path d="M55.127 683.876l-5.289 5.288c-1.234 1.234-3.359 1.11-4.745-.276-1.053-1.053-1.373-2.531-.927-3.721l1.241.177c-.457.826-.286 1.953.492 2.732.919.921 2.328 1.004 3.146.183l5.191-5.198c.818-.821.736-2.233-.183-3.155-.92-.921-2.329-1.004-3.147-.183l-1.33 1.331-.755-.914 1.285-1.284c1.234-1.234 3.358-1.11 4.745.276 1.386 1.387 1.51 3.51.276 4.744zM47.593 685.625c.457-.827.286-1.953-.492-2.732-.919-.922-2.328-1.004-3.146-.184l-5.191 5.199c-.818.82-.736 2.233.183 3.154.92.922 2.329 1.004 3.147.184l1.33-1.332.755.915-1.285 1.284c-1.234 1.234-3.358 1.11-4.745-.276-1.386-1.387-1.51-3.511-.276-4.744l5.289-5.288c1.234-1.234 3.359-1.11 4.745.276 1.053 1.053 1.373 2.53.927 3.721l-1.241-.177z" class="cls-5"/><path d="M10 659v-3h-3v-2l-4.066 3.485 4.066 3.515v-2h3z" class="cls-4"/><path d="M12 663v-1h10v1h-10zm0-10h10v2h-10v-2zm0-2h10v1h-10v-1zm0-2h1v1h-1v-1zm-5 15h4v1h-4v-1zm0-2h4v1h-4v-1zm0-11h4v1h-4v-1zm10 7h-5v-2h5v2zm0 3h-5v-2h5v2zm-1.987 3.995l-3.013.005v-1h3l.013.995zm-2.013 2.005h-1v-1h1v1z" class="cls-8"/><path d="M44 659v-3h-3v-2l-4.066 3.485 4.066 3.515v-2h3z" class="cls-5"/><path d="M46 663v-1h10v1h-10zm0-10h10v2h-10v-2zm0-2h10v1h-10v-1zm0-2h1v1h-1v-1zm-5 15h4v1h-4v-1zm0-2h4v1h-4v-1zm0-11h4v1h-4v-1zm10 7h-5v-2h5v2zm0 3h-5v-2h5v2zm-1.987 3.995l-3.013.005v-1h3l.013.995zm-2.013 2.005h-1v-1h1v1z" class="cls-9"/><path d="M3 632v-3h2.973v-2l4.031 3.485-4.031 3.515v-2h-2.973z" class="cls-4"/><path d="M12 636v-1h10v1h-10zm0-10h10v2h-10v-2zm0-2h10v1h-10v-1zm0-2h1v1h-1v-1zm-5 15h4v1h-4v-1zm0-2h4v1h-4v-1zm0-11h4v1h-4v-1zm10 7h-5v-2h5v2zm0 3h-5v-2h5v2zm-1.987 3.995l-3.013.005v-1h3l.013.995zm-2.013 2.005h-1v-1h1v1z" class="cls-8"/><path d="M37 632v-3h3v-2l4.066 3.485-4.066 3.515v-2h-3z" class="cls-5"/><path d="M46 636v-1h10v1h-10zm0-10h10v2h-10v-2zm0-2h10v1h-10v-1zm0-2h1v1h-1v-1zm-5 15h4v1h-4v-1zm0-2h4v1h-4v-1zm0-11h4v1h-4v-1zm10 7h-5v-2h5v2zm0 3h-5v-2h5v2zm-1.987 3.995l-3.013.005v-1h3l.013.995zm-2.013 2.005h-1v-1h1v1z" class="cls-9"/><path d="M6.929 610.254c-.095.155-.218.283-.369.384-.153.101-.324.176-.513.225-.191.05-.384.074-.579.074-.192 0-.38-.02-.562-.06-.182-.04-.347-.102-.497-.184-.15-.083-.282-.189-.393-.319-.113-.131-.197-.287-.252-.471l.936-.225c.039.128.121.241.245.338.124.097.283.146.475.146l.219-.028.198-.085.144-.151c.037-.062.057-.139.057-.231 0-.099-.026-.182-.075-.248-.051-.066-.117-.118-.198-.156-.083-.039-.176-.066-.279-.083l-.312-.025h-.27v-.671h.293l.277-.019.237-.072c.069-.035.126-.082.168-.141.042-.059.063-.137.063-.233 0-.14-.054-.247-.163-.32-.107-.074-.232-.111-.371-.111-.144 0-.27.039-.375.118-.107.079-.176.184-.207.316l-.936-.198c.051-.165.129-.308.233-.431.104-.123.227-.226.37-.308.141-.083.297-.145.464-.187.169-.042.34-.064.517-.064.187 0 .37.022.549.066.177.044.336.112.476.204.14.092.253.207.34.345.085.137.128.3.128.487 0 .217-.067.399-.2.548-.135.149-.306.249-.513.3v.017c.119.025.229.067.33.123.099.057.186.125.257.204.073.078.128.166.169.263.039.097.059.201.059.311 0 .212-.047.396-.14.552zm-2.929-5.254l1.616-1.18c.098-.1.177-.201.237-.305.061-.104.091-.22.091-.348 0-.151-.045-.274-.136-.368-.09-.094-.211-.141-.361-.141-.158 0-.287.059-.387.177-.1.118-.159.273-.178.465l-.882-.456c.023-.216.051-.084.14-.253.088-.169.2-.312.336-.431.135-.119.29-.21.465-.272.176-.063.361-.094.557-.094.184 0 .363.026.536.078.173.052.328.132.463.24.136.108.244.244.325.408.081.164.121.356.121.576 0 .152-.019.289-.056.411-.038.122-.09.235-.155.339-.066.104-.142.201-.226.291l-.263.267-.243.596h1v1h-3v-1zm1-7h-1v-1l1.062.002.938-.002v4h-1v-3zM9 610v-1h12v1h-12zm0-6h12v1h-12v-1zm0-5h12v1h-12v-1z" class="cls-4"/><path d="M40.929 610.254c-.095.155-.218.283-.369.384-.153.101-.324.176-.514.225-.19.05-.383.074-.579.074-.192 0-.379-.02-.561-.06-.182-.04-.348-.102-.498-.184-.149-.083-.281-.189-.393-.319-.112-.131-.196-.287-.252-.471l.936-.225c.04.128.122.241.246.338.124.097.282.146.474.146l.22-.028.197-.085.145-.151c.037-.062.056-.139.056-.231 0-.099-.025-.182-.075-.248-.05-.066-.116-.118-.197-.156-.083-.039-.176-.066-.279-.083l-.313-.025h-.269v-.671h.293l.277-.019.236-.072c.07-.035.126-.082.169-.141.041-.059.063-.137.063-.233 0-.14-.055-.247-.163-.32-.108-.074-.232-.111-.372-.111-.144 0-.269.039-.374.118-.107.079-.176.184-.208.316l-.936-.198c.052-.165.13-.308.234-.431.104-.123.227-.226.369-.308.142-.083.298-.145.465-.187.168-.042.34-.064.517-.064.187 0 .37.022.548.066.178.044.337.112.477.204.14.092.253.207.34.345.085.137.128.3.128.487 0 .217-.067.399-.201.548-.134.149-.305.249-.513.3v.017c.12.025.23.067.33.123.1.057.186.125.258.204.073.078.128.166.168.263.04.097.06.201.06.311 0 .212-.047.396-.14.552zm-2.929-5.254l1.616-1.18c.098-.1.177-.201.237-.305.061-.104.091-.22.091-.348 0-.151-.045-.274-.136-.368-.09-.094-.211-.141-.361-.141-.158 0-.287.059-.387.177-.1.118-.159.273-.178.465l-.882-.456c.023-.216.051-.084.14-.253.088-.169.2-.312.336-.431.135-.119.29-.21.465-.272.176-.063.361-.094.557-.094.184 0 .363.026.536.078.173.052.328.132.463.24.136.108.244.244.325.408.081.164.121.356.121.576 0 .152-.019.289-.056.411-.038.122-.09.235-.155.339-.066.104-.142.201-.226.291l-.263.267-.243.596h1v1h-3v-1zm1-7h-1v-1l1.062.002.938-.002v4h-1v-3zM43 610v-1h12v1h-12zm0-6h12v1h-12v-1zm0-5h12v1h-12v-1z" class="cls-5"/><path d="M9 583v-1h12v1h-12zm0-6h12v1h-12v-1zm0-5h12v1h-12v-1zm-5 9h2v2h-2v-2zm0-5h2v2h-2v-2zm0-5h2v2h-2v-2z" class="cls-4"/><path d="M43 583v-1h12v1h-12zm0-6h12v1h-12v-1zm0-5h12v1h-12v-1zm-5 9h2v2h-2v-2zm0-5h2v2h-2v-2zm0-5h2v2h-2v-2z" class="cls-5"/><path d="M4 557v-14h17v14h-17zm5-12h-3v2h3v-2zm0 4h-3v2h3v-2zm0 4h-3v2h3v-2zm5-8h-3v2h3v-2zm0 4h-3v2h3v-2zm0 4h-3v2h3v-2zm5-8h-3v2h3v-2zm0 4h-3v2h3v-2zm0 4h-3v2h3v-2z" class="cls-2"/><path d="M4 553v-6h7v6h-7zm5-4h-3v2h3v-2z" class="cls-4"/><path d="M38 557v-14h17v14h-17zm5-12h-3v2h3v-2zm0 4h-3v2h3v-2zm0 4h-3v2h3v-2zm5-8h-3v2h3v-2zm0 4h-3v2h3v-2zm0 4h-3v2h3v-2zm5-8h-3v2h3v-2zm0 4h-3v2h3v-2zm0 4h-3v2h3v-2z" class="cls-3"/><path d="M38 553v-6h7v6h-7zm5-4h-3v2h3v-2z" class="cls-5"/><path d="M4 530v-14h17v14h-17zm5-12h-3v2h3v-2zm0 4h-3v2h3v-2zm0 4h-3v2h3v-2zm5-8h-3v2h3v-2zm0 4h-3v2h3v-2zm0 4h-3v2h3v-2zm5-8h-3v2h3v-2zm0 4h-3v2h3v-2zm0 4h-3v2h3v-2z" class="cls-2"/><path d="M10 530v-14h5v14h-5zm4-12h-3v2h3v-2zm0 4h-3v2h3v-2zm0 4h-3v2h3v-2z" class="cls-4"/><path d="M38 530v-14h17v14h-17zm5-12h-3v2h3v-2zm0 4h-3v2h3v-2zm0 4h-3v2h3v-2zm5-8h-3v2h3v-2zm0 4h-3v2h3v-2zm0 4h-3v2h3v-2zm5-8h-3v2h3v-2zm0 4h-3v2h3v-2zm0 4h-3v2h3v-2z" class="cls-3"/><path d="M44 530v-14h5v14h-5zm4-12h-3v2h3v-2zm0 4h-3v2h3v-2zm0 4h-3v2h3v-2z" class="cls-5"/><path d="M4 503v-14h17v14h-17zm5-12h-3v2h3v-2zm0 4h-3v2h3v-2zm0 4h-3v2h3v-2zm5-8h-3v2h3v-2zm0 4h-3v2h3v-2zm0 4h-3v2h3v-2zm5-8h-3v2h3v-2zm0 4h-3v2h3v-2zm0 4h-3v2h3v-2z" class="cls-2"/><path d="M4 498v-4h17v4h-17zm5-3h-3v2h3v-2zm5 0h-3v2h3v-2zm5 0h-3v2h3v-2z" class="cls-4"/><path d="M38 503v-14h17v14h-17zm5-12h-3v2h3v-2zm0 4h-3v2h3v-2zm0 4h-3v2h3v-2zm5-8h-3v2h3v-2zm0 4h-3v2h3v-2zm0 4h-3v2h3v-2zm5-8h-3v2h3v-2zm0 4h-3v2h3v-2zm0 4h-3v2h3v-2z" class="cls-3"/><path d="M38 498v-4h17v4h-17zm5-3h-3v2h3v-2zm5 0h-3v2h3v-2zm5 0h-3v2h3v-2z" class="cls-5"/><path d="M4 476v-14h17v14h-17zm5-12h-3v2h3v-2zm0 4h-3v2h3v-2zm0 4h-3v2h3v-2zm5-8h-3v2h3v-2zm0 4h-3v2h3v-2zm0 4h-3v2h3v-2zm5-8h-3v2h3v-2zm0 4h-3v2h3v-2zm0 4h-3v2h3v-2z" class="cls-4"/><path d="M38 476v-14h17v14h-17zm5-12h-3v2h3v-2zm0 4h-3v2h3v-2zm0 4h-3v2h3v-2zm5-8h-3v2h3v-2zm0 4h-3v2h3v-2zm0 4h-3v2h3v-2zm5-8h-3v2h3v-2zm0 4h-3v2h3v-2zm0 4h-3v2h3v-2z" class="cls-5"/><path d="M19.343 445.082l-.193-.03-.906.16c-.845 2.688-2.891 4.787-5.745 4.787-2.853 0-4.898-2.099-5.743-4.783l-.907-.101-.193.03c-.362 0-.687-.182-.687-.561l.015-.16.056-2.449c.053-.299.054-1.024.356-1.024.178 0 .843.581.955.71l2.013 1.498.104.119c.218.302-.159.419-.449.645l-.177.097-.152.918c.966 2.551 2.622 3.76 4.301 4.075l-.004-10.074c-1.551-.512-2.002-1.629-2.002-2.596 0-1.296 1.319-2.343 2.554-2.343 1.241 0 2.431 1.047 2.431 2.343 0 .967-.432 2.113-1.987 2.596l-.004 10.058c1.643-.341 3.449-1.478 4.153-4.029l-.162-.854-.177-.097c-.29-.226-.381-.437-.169-.739l.106-.119 1.824-1.496c.118-.129.715-.65.897-.65.297 0 .422.228.479.526l.053 2.697.017.161c0 .378-.294.685-.657.685zm-5.343-8.582c0-.828-.672-1.5-1.5-1.5s-1.5.672-1.5 1.5.672 1.5 1.5 1.5 1.5-.672 1.5-1.5z" class="cls-4"/><path d="M53.343 445.082l-.193-.03-.906.16c-.845 2.688-2.891 4.787-5.745 4.787-2.853 0-4.898-2.099-5.743-4.783l-.907-.101-.193.03c-.362 0-.687-.182-.687-.561l.015-.16.056-2.449c.053-.299.054-1.024.356-1.024.178 0 .843.581.955.71l2.013 1.498.104.119c.218.302-.159.419-.449.645l-.177.097-.152.918c.966 2.551 2.622 3.76 4.301 4.075l-.004-10.074c-1.551-.512-2.002-1.629-2.002-2.596 0-1.296 1.319-2.343 2.554-2.343 1.241 0 2.431 1.047 2.431 2.343 0 .967-.432 2.113-1.987 2.596l-.004 10.058c1.643-.341 3.449-1.478 4.153-4.029l-.162-.854-.177-.097c-.29-.226-.381-.437-.169-.739l.106-.119 1.824-1.496c.118-.129.715-.65.897-.65.297 0 .422.228.479.526l.053 2.697.017.161c0 .378-.294.685-.657.685zm-5.343-8.582c0-.828-.672-1.5-1.5-1.5s-1.5.672-1.5 1.5.672 1.5 1.5 1.5 1.5-.672 1.5-1.5zM45.725 407.746c.121-.2.15-.422.196-.642.037-.18.11-.087.172-.007l.061.369c.08.374.162.748.364 1.09.013.139.071.263.164.374.11.332.279.64.485.932l.242.365c.13.288.287.563.507.805.03.111.09.205.194.273l.551.813.276.386c.157.312.36.599.593.868l.146.267.556.951.097.189.358.903.152.467.155 1.177.005.461c-.097.674-.306 1.317-.656 1.921-.479.701-1.104 1.271-1.891 1.695-.671.327-1.397.492-2.143.597l-.511-.005-1.315-.213c-.078-.087-.191-.079-.297-.089l-1.016-.479-.316-.236-.62-.54c-.056-.122-.151-.214-.273-.284l-.528-.817-.144-.375-.274-1.085-.015-.46c.049-.535.133-1.064.301-1.58l.238-.699c.542-.994 1.142-1.96 1.759-2.918l.723-1.084c.582-.886 1.165-1.771 1.499-2.766.13-.192.184-.404.205-.624zm.317 4.097c.139-.263.296-.526.052-.862l-.499.852c-.231.275-.471.547-.689.827-.692.89-1.554 1.713-1.989 2.704-.204.257-.312.537-.37.829-.241.598-.41 1.205-.252 1.828.161.633.636.993 1.216.962.543-.028 1.018-.503.924-1.123-.154-1.031.075-2.019.39-3.009l.349-.837c.36-.709.694-1.422.868-2.171z" class="cls-5"/><path d="M11.725 407.746c.121-.2.15-.422.196-.642.037-.18.11-.087.172-.007l.061.369c.08.374.162.748.364 1.09.013.139.071.263.164.374.11.332.279.64.485.932l.242.365c.13.288.287.563.507.805.03.111.09.205.194.273l.551.813.276.386c.157.312.36.599.593.868l.146.267.556.951.097.189.358.903.152.467.155 1.177.005.461c-.097.674-.306 1.317-.656 1.921-.479.701-1.104 1.271-1.891 1.695-.671.327-1.397.492-2.143.597l-.511-.005-1.315-.213c-.078-.087-.191-.079-.297-.089l-1.016-.479-.316-.236-.62-.54c-.056-.122-.151-.214-.273-.284l-.528-.817-.144-.375-.274-1.085-.015-.46c.049-.535.133-1.064.301-1.58l.238-.699c.542-.994 1.142-1.96 1.759-2.918l.723-1.084c.582-.886 1.165-1.771 1.499-2.766.13-.192.184-.404.205-.624zm.317 4.097c.139-.263.296-.526.052-.862l-.499.852c-.231.275-.471.547-.689.827-.692.89-1.554 1.713-1.989 2.704-.204.257-.312.537-.37.829-.241.598-.41 1.205-.252 1.828.161.633.636.993 1.216.962.543-.028 1.018-.503.925-1.123-.155-1.031.074-2.019.389-3.009l.349-.837c.36-.709.694-1.422.868-2.171zM20 394v-2h2v2h-2zm-4-2h2v2h-2v-2zm-4 0h2v2h-2v-2zm-2.026-7.897c-.269.471-.419 1.994-.45 2.895h1.48v3.011h-3.017v-2.915c0-1.387.165-2.642.497-3.263.434-.828 1.123-1.454 2.065-1.879l.683 1.087c-.57.238-.989.593-1.258 1.064zm-4 0c-.269.471-.419 1.994-.45 2.895h1.48v3.011h-3.017v-2.915c0-1.387.165-2.642.497-3.263.434-.828 1.123-1.454 2.065-1.879l.683 1.087c-.569.238-.989.593-1.258 1.064z" class="cls-4"/><path d="M54 394v-2h2v2h-2zm-4-2h2v2h-2v-2zm-4 0h2v2h-2v-2zm-2.026-7.897c-.269.471-.419 1.994-.45 2.895h1.48v3.011h-3.017v-2.915c0-1.387.165-2.642.497-3.263.434-.828 1.123-1.454 2.065-1.879l.683 1.087c-.57.238-.989.593-1.258 1.064zm-4 0c-.269.471-.419 1.994-.45 2.895h1.48v3.011h-3.017v-2.915c0-1.387.165-2.642.497-3.263.434-.828 1.123-1.454 2.065-1.879l.683 1.087c-.57.238-.989.593-1.258 1.064z" class="cls-5"/><path d="M12.5 371c-5.247 0-9.5-4.253-9.5-9.5s4.253-9.5 9.5-9.5 9.5 4.253 9.5 9.5-4.253 9.5-9.5 9.5zm0-18c-4.694 0-8.5 3.806-8.5 8.5s3.806 8.5 8.5 8.5 8.5-3.806 8.5-8.5-3.806-8.5-8.5-8.5zm4.394 9.201c-.258-.233-.639-.588-1.206-1.067-.567-.478-.993-.859-1.276-1.143h-.058l-.136-.078-.116-.039c-.077 0-.115.091-.115.272v1.143s-.068.446-.017 1.338l.039.504 1.06 4.018c.052.543-.168.866-.657.969-.232.052-.445.007-.638-.135-.193-.142-.303-.317-.329-.524-.515-2.92-.71-3.286-.71-3.337-.078-.311-.142-.466-.194-.466l-.116.097-.038.136-.02.155-.019.078c0 .025-.065-.587-.193.163-.129.749-.321 1.365-.45 2.089l-.193 1.085c-.077.233-.2.408-.367.524-.168.116-.367.161-.599.135-.516-.129-.735-.452-.658-.969l1.061-4.057c.077-.491.022-1.46.022-2.908 0-.206-.039-.31-.116-.31-.077 0-.18.052-.309.155l-2.421 2.172c-.36.258-.67.232-.927-.078-.258-.362-.245-.672.038-.931l3.232-2.939c.155-.103.297-.174.426-.213.128-.039.296-.058.502-.058h2.165c.206 0 .374.02.503.058.129.039.27.11.425.213l1.411 1.272c.812.724 1.419 1.28 1.883 1.667.284.285.296.595.039.931-.284.31-.593.336-.928.078zm-4.396-5.204c-.413 0-.765-.146-1.058-.439-.293-.293-.439-.645-.439-1.058 0-.413.146-.765.439-1.058.293-.293.645-.44 1.058-.44.413 0 .765.147 1.058.44.293.293.439.645.439 1.058 0 .413-.146.765-.439 1.058-.293.293-.645.439-1.058.439z" class="cls-4"/><path d="M46.5 371c-5.247 0-9.5-4.253-9.5-9.5s4.253-9.5 9.5-9.5 9.5 4.253 9.5 9.5-4.253 9.5-9.5 9.5zm0-18c-4.694 0-8.5 3.806-8.5 8.5s3.806 8.5 8.5 8.5 8.5-3.806 8.5-8.5-3.806-8.5-8.5-8.5zm4.394 9.201c-.258-.233-.639-.588-1.206-1.067-.567-.478-.993-.859-1.276-1.143h-.058l-.136-.078-.116-.039c-.077 0-.116.091-.116.272v1.143s-.067.446-.016 1.338l.039.504 1.06 4.018c.052.543-.168.866-.657.969-.232.052-.445.007-.638-.135-.193-.142-.303-.317-.329-.524-.515-2.92-.71-3.286-.71-3.337-.078-.311-.142-.466-.194-.466l-.116.097-.038.136-.02.155-.019.078c0 .025-.065-.587-.193.163-.129.749-.321 1.365-.45 2.089l-.193 1.085c-.077.233-.2.408-.367.524-.168.116-.367.161-.599.135-.516-.129-.735-.452-.658-.969l1.061-4.057c.077-.491.022-1.46.022-2.908 0-.206-.039-.31-.116-.31-.077 0-.18.052-.309.155l-2.421 2.172c-.36.258-.67.232-.927-.078-.258-.362-.245-.672.038-.931l3.232-2.939c.155-.103.297-.174.426-.213.128-.039.296-.058.502-.058h2.165c.206 0 .374.02.503.058.129.039.27.11.425.213l1.411 1.272c.812.724 1.419 1.28 1.883 1.667.284.285.296.595.039.931-.284.31-.593.336-.928.078zm-4.396-5.204c-.413 0-.765-.146-1.058-.439-.293-.293-.439-.645-.439-1.058 0-.413.146-.765.439-1.058.293-.293.645-.44 1.058-.44.413 0 .765.147 1.058.44.293.293.439.645.439 1.058 0 .413-.146.765-.439 1.058-.293.293-.645.439-1.058.439z" class="cls-5"/><path d="M14 337h-7c-1.105 0-2-.895-2-2v-7c0-1.105.895-2 2-2h7c1.105 0 2 .895 2 2v7c0 1.105-.895 2-2 2zm1-9c0-.552-.448-1-1-1h-7c-.552 0-1 .448-1 1v7c0 .552.448 1 1 1h7c.552 0 1-.448 1-1v-7zM18 341h-7c-1.105 0-2-.895-2-2v-7c0-1.105.895-2 2-2h7c1.105 0 2 .895 2 2v7c0 1.105-.895 2-2 2zm1-9c0-.552-.448-1-1-1h-7c-.552 0-1 .448-1 1v7c0 .552.448 1 1 1h7c.552 0 1-.448 1-1v-7zm-8 0h3v3h-3v-3z" class="cls-4"/><path d="M48 337h-7c-1.105 0-2-.895-2-2v-7c0-1.105.895-2 2-2h7c1.105 0 2 .895 2 2v7c0 1.105-.895 2-2 2zm1-9c0-.552-.448-1-1-1h-7c-.552 0-1 .448-1 1v7c0 .552.448 1 1 1h7c.552 0 1-.448 1-1v-7zM52 341h-7c-1.105 0-2-.895-2-2v-7c0-1.105.895-2 2-2h7c1.105 0 2 .895 2 2v7c0 1.105-.895 2-2 2zm1-9c0-.552-.448-1-1-1h-7c-.552 0-1 .448-1 1v7c0 .552.448 1 1 1h7c.552 0 1-.448 1-1v-7zm-8 0h3v3h-3v-3z" class="cls-5"/><path d="M15 311v-8l5.941 4.043-5.941 3.957zm-5 0h-2v-3h-3v-2h3v-3h2v3h3v2h-3v3z" class="cls-4"/><path d="M49 311v-8l5.941 4.043-5.941 3.957zm-5 0h-2v-3h-3v-2h3v-3h2v3h3v2h-3v3z" class="cls-5"/><path d="M20 281h-3.012v3h-2.008v-3h-2.98v-2h2.98v-3h2.008v3h3.012v2zm-10-5v8l-6.003-3.957 6.003-4.043z" class="cls-4"/><path d="M54 281h-3v3h-2v-3h-3v-2h3v-3h2v3h3v2zm-10-5v8l-6.003-3.957 6.003-4.043z" class="cls-5"/><path d="M21 253.48l-3 2.52v-2h-5v5h2l-2.48 3-2.52-3h2v-5h-5v2l-3-2.52 3-2.48v2h5v-5h-2l2.52-3 2.48 3h-2v5h5v-2l3 2.48z" class="cls-4"/><path d="M55 253.48l-3 2.52v-2h-5v5h2l-2.48 3-2.52-3h2v-5h-5v2l-3-2.52 3-2.48v2h5v-5h-2l2.52-3 2.48 3h-2v5h5v-2l3 2.48z" class="cls-5"/><path d="M21 225.5l-4 3.5v-2h-2v-3h2v-2l4 3.5zm-9-6.5h1v13h-1v-13zm-4 10l-4-3.5 4-3.5v2h2v3h-2v2z" class="cls-4"/><path d="M55 225.5l-4 3.5v-2h-2v-3h2v-2l4 3.5zm-9-6.5h1v13h-1v-13zm-4 10l-4-3.5 4-3.5v2h2v3h-2v2zM40 200v-1h13v1h-13zm8-3h-3v-2h-2l3.5-4 3.5 4h-2v2zm-3 5h3v2h2l-3.5 4-3.5-4h2v-2z" class="cls-5"/><path d="M6 200v-1h13v1h-13zm8-3h-3v-2h-2l3.5-4 3.5 4h-2v2zm-3 5h3v2h2l-3.5 4-3.5-4h2v-2zM6 174v-3h7v-3l6 4.469-6 4.531v-3h-7z" class="cls-4"/><path d="M40 174v-3h7v-3l6 4.469-6 4.531v-3h-7z" class="cls-5"/><path d="M19 147v-3h-7v-3l-6 4.469 6 4.531v-3h7z" class="cls-4"/><path d="M53 147v-3h-7v-3l-6 4.469 6 4.531v-3h7z" class="cls-5"/><path d="M13 119h-2v-3h-3v-2h3v-3h2v3h3v2h-3v3zm-2 2h5l-4.011 5.972-3.989-5.972h3z" class="cls-4"/><path d="M47 119h-2v-3h-3v-2h3v-3h2v3h3v2h-3v3zm-2 2h5l-4.011 5.972-3.989-5.972h3z" class="cls-5"/><path d="M13 94.969v3h-2v-3h-3v-2h3v-3h2v3h3v2h-3zm-2-7h-3l3.989-5.972 4.011 5.972h-5z" class="cls-4"/><path d="M47 94.969v3h-2v-3h-3v-2h3v-3h2v3h3v2h-3zm-2-7h-3l3.989-5.972 4.011 5.972h-5z" class="cls-5"/><path d="M17 61v7.001c0 1.163-.822 1.999-1.969 1.999h-5.061c-1.147 0-1.97-.805-1.97-1.935v-7.065h-1v-2h2.5v-1.5c0-.275.225-.5.5-.5h5c.276 0 .5.225.5.5v1.5h2.5v2h-1zm-5 6.5c0 .277.224.5.5.5.277 0 .5-.223.5-.5v-5c0-.276-.223-.5-.5-.5-.276 0-.5.224-.5.5v5zm-2-5v5c0 .277.224.5.5.5.277 0 .5-.223.5-.5v-5c0-.276-.223-.5-.5-.5-.276 0-.5.224-.5.5zm4-4.5h-3c-.148 0-.279.497-.371 1h3.743c-.092-.503-.224-1-.372-1zm1 4.5c0-.276-.223-.5-.5-.5-.276 0-.5.224-.5.5v5c0 .277.224.5.5.5.277 0 .5-.223.5-.5v-5z" class="cls-4"/><path d="M51 61v7.001c0 1.163-.822 1.999-1.969 1.999h-5.061c-1.148 0-1.97-.805-1.97-1.935v-7.065h-1v-2h2.5v-1.5c0-.275.225-.5.5-.5h5c.276 0 .5.225.5.5v1.5h2.5v2h-1zm-5 6.5c0 .277.224.5.5.5.277 0 .5-.223.5-.5v-5c0-.276-.223-.5-.5-.5-.276 0-.5.224-.5.5v5zm-2-5v5c0 .277.224.5.5.5.277 0 .5-.223.5-.5v-5c0-.276-.223-.5-.5-.5-.276 0-.5.224-.5.5zm4-4.5h-3c-.148 0-.279.497-.371 1h3.743c-.092-.503-.224-1-.372-1zm1 4.5c0-.276-.223-.5-.5-.5-.276 0-.5.224-.5.5v5c0 .277.224.5.5.5.277 0 .5-.223.5-.5v-5z" class="cls-5"/><path d="M11.008 29.987h3v8.017h3l-4.5 5.987-4.5-5.987h3v-8.017z" class="cls-4"/><path d="M45.008 29.987h3v8.017h3l-4.5 5.987-4.5-5.987h3v-8.017z" class="cls-5"/><path d="M11.008 17.013h3v-8.035h3l-4.5-6-4.5 6h3v8.035z" class="cls-4"/><path d="M45.008 17.013h3v-8.035h3l-4.5-6-4.5 6h3v8.035z" class="cls-5"/></svg>