<svg id="buttonIcon-sprite.svg" xmlns="http://www.w3.org/2000/svg" width="59" height="1636" viewBox="0 0 59 1636">
  <metadata><?xpacket begin="﻿" id="W5M0MpCehiHzreSzNTczkc9d"?>
<x:xmpmeta xmlns:x="adobe:ns:meta/" x:xmptk="Adobe XMP Core 5.6-c138 79.159824, 2016/09/14-01:09:01        ">
   <rdf:RDF xmlns:rdf="http://www.w3.org/1999/02/22-rdf-syntax-ns#">
      <rdf:Description rdf:about=""/>
   </rdf:RDF>
</x:xmpmeta>
<?xpacket end="w"?></metadata>
<defs>
    <style>
      .cls-1, .cls-2, .cls-5, .cls-7, .cls-9 {
        fill: #2b2b2b;
      }

      .cls-1 {
        fill-opacity: 0;
      }

      .cls-10, .cls-2, .cls-3, .cls-4, .cls-5, .cls-6, .cls-9 {
        fill-rule: evenodd;
      }

      .cls-10, .cls-3, .cls-6, .cls-8 {
        fill: #fff;
      }

      .cls-5, .cls-6 {
        opacity: 0.3;
      }

      .cls-10, .cls-9 {
        opacity: 0.4;
      }
    </style>
  </defs>
  <rect id="Sprite_Mask_BG" data-name="Sprite Mask BG" class="cls-1" width="59" height="1615"/>
  <g id="Code_icon" data-name="Code icon">
    <path id="_" data-name="{" class="cls-2" d="M59,1729h1l0.016,2.18A2.668,2.668,0,0,0,60,1732a4.845,4.845,0,0,0,.546,1.44,1.78,1.78,0,0,0,.771.45A13.317,13.317,0,0,0,63,1734h1v-2H62a0.625,0.625,0,0,1-.334-0.42c0-.19-0.015-0.61-0.044-1.31a4.7,4.7,0,0,0-.165-1.1A5.185,5.185,0,0,0,61,1728c-0.159-.19.25,0.14,0,0,0.283-.18-0.138.17,0,0a7.225,7.225,0,0,0,.45-1.21,3.826,3.826,0,0,0,.165-1.02c0.038-.75.057-1.13,0.057-1.39A0.471,0.471,0,0,1,62,1724h0c0.235-.06,2,0,2,0v-2H63a13.074,13.074,0,0,0-1.588.1,2.082,2.082,0,0,0-.87.46A5.044,5.044,0,0,0,60,1724a4.413,4.413,0,0,0,.016,1.06l-0.051.94L60,1727H59v2h0Zm13,0H71l-0.016,2.18A2.668,2.668,0,0,1,71,1732a4.845,4.845,0,0,1-.546,1.44,1.78,1.78,0,0,1-.771.45A13.317,13.317,0,0,1,68,1734H67v-2h2a0.625,0.625,0,0,0,.334-0.42c0-.19.015-0.61,0.044-1.31a4.7,4.7,0,0,1,.165-1.1A5.185,5.185,0,0,1,70,1728c0.159-.19-0.25.14,0,0-0.284-.18.138,0.17,0,0a7.225,7.225,0,0,1-.45-1.21,3.826,3.826,0,0,1-.165-1.02c-0.038-.75-0.057-1.13-0.057-1.39A0.471,0.471,0,0,0,69,1724h0c-0.235-.06-2,0-2,0v-2h1a13.074,13.074,0,0,1,1.588.1,2.082,2.082,0,0,1,.87.46A5.044,5.044,0,0,1,71,1724a4.413,4.413,0,0,1-.016,1.06l0.051,0.94L71,1727h1v2h0Z" transform="translate(-53 -98)"/>
    <path id="_copy" data-name="{ copy" class="cls-3" d="M93,1729h1l0.016,2.18A2.668,2.668,0,0,0,94,1732a4.845,4.845,0,0,0,.546,1.44,1.78,1.78,0,0,0,.771.45A13.317,13.317,0,0,0,97,1734h1v-2H96a0.625,0.625,0,0,1-.334-0.42c0-.19-0.015-0.61-0.044-1.31a4.7,4.7,0,0,0-.165-1.1A5.185,5.185,0,0,0,95,1728c-0.159-.19.25,0.14,0,0,0.284-.18-0.138.17,0,0a7.225,7.225,0,0,0,.45-1.21,3.826,3.826,0,0,0,.165-1.02c0.038-.75.057-1.13,0.057-1.39A0.471,0.471,0,0,1,96,1724h0c0.235-.06,2,0,2,0v-2H97a13.074,13.074,0,0,0-1.588.1,2.082,2.082,0,0,0-.87.46A5.044,5.044,0,0,0,94,1724a4.413,4.413,0,0,0,.016,1.06l-0.051.94L94,1727H93v2h0Zm13,0h-1l-0.016,2.18a2.662,2.662,0,0,1,.016.82,4.835,4.835,0,0,1-.546,1.44,1.775,1.775,0,0,1-.771.45A13.307,13.307,0,0,1,102,1734h-1v-2h2a0.625,0.625,0,0,0,.334-0.42c0-.19.015-0.61,0.045-1.31a4.66,4.66,0,0,1,.165-1.1A5.138,5.138,0,0,1,104,1728c0.159-.19-0.25.14,0,0-0.283-.18.138,0.17,0,0a7.278,7.278,0,0,1-.45-1.21,3.814,3.814,0,0,1-.165-1.02c-0.038-.75-0.057-1.13-0.057-1.39A0.471,0.471,0,0,0,103,1724h0c-0.235-.06-2,0-2,0v-2h1a13.073,13.073,0,0,1,1.588.1,2.084,2.084,0,0,1,.87.46A5.038,5.038,0,0,1,105,1724a4.416,4.416,0,0,1-.016,1.06l0.051,0.94L105,1727h1v2h0Z" transform="translate(-53 -98)"/>
  </g>
  <g id="Image_Crop" data-name="Image Crop">
    <g id="Shapes">
      <path class="cls-4" d="M70,1704H69v-8h1v8Zm4,1v1H61v-1H74Zm-14-7h1v8H60v-8Zm-4-1v-1H69v1H56Zm4-5h1v3H60v-3Zm10,18H69v-3h1v3Z" transform="translate(-53 -98)"/>
      <path class="cls-3" d="M104,1704h-1v-8h1v8Zm4,1v1H95v-1h13Zm-14-7h1v8H94v-8Zm-4-1v-1h13v1H90Zm4-5h1v3H94v-3Zm10,18h-1v-3h1v3Z" transform="translate(-53 -98)"/>
    </g>
  </g>
  <g id="Formatting_PRE_" data-name="Formatting [PRE]">
    <g id="Combined">
      <path class="cls-5" d="M76,1680v2H74v-2H73v2H71v-2H70v2H68v-2H67v2H57a2,2,0,0,1-2-2v-14H74a2,2,0,0,1,2,2v5H74v1h2v2H74v1h2v2H74v1h2Zm-2-11a1,1,0,0,0-1-1H64v-2H63v2H61v-2H60v2H58v-2H57v2h1a1,1,0,0,0-1,1v-1H55v1h2v2H55v1h2v2H55v1h2v4a1,1,0,0,0,1,1H73a1,1,0,0,0,1-1v-10Z" transform="translate(-53 -98)"/>
      <path class="cls-6" d="M110,1680v2h-2v-2h-1v2h-2v-2h-1v2h-2v-2h-1v2H91a2,2,0,0,1-2-2v-5h2v4a1,1,0,0,0,1,1h15a1,1,0,0,0,1-1v1h2Zm0-3v2h-2v-2h2Zm-2-3h2v2h-2v-2Zm0-5a1,1,0,0,0-1-1H98v-2H97v2H95v-2H94v2H92v-2H91v2h1a1,1,0,0,0-1,1v-1H89v-2h19a2,2,0,0,1,2,2v5h-2v-4Zm-19,2v-2h2v2H89Zm2,3H89v-2h2v2Z" transform="translate(-53 -98)"/>
      <path id="PRE_copy" data-name="PRE copy" class="cls-2" d="M60,1677v-2h1a2.589,2.589,0,0,0,.8-0.11,1.428,1.428,0,0,0,.551-0.29,1.58,1.58,0,0,0,.447-0.59,3.562,3.562,0,0,0,.176-1.18,2.07,2.07,0,0,0-.3-1.17,1.38,1.38,0,0,0-.757-0.58A14.989,14.989,0,0,0,60,1671H59v6h1Zm1-5a1.014,1.014,0,0,1,.44.04,0.752,0.752,0,0,1,.427.27,0.836,0.836,0,0,1,.169.54,2.45,2.45,0,0,1-.12.78,0.716,0.716,0,0,1-.332.29A0.981,0.981,0,0,1,61,1674H60v-2h1Zm4,5-0.011-2.05h0.228c0.258,0,.067.03,0.186,0.07a0.831,0.831,0,0,1,.338.25,2.788,2.788,0,0,1,.593.69l0.813,1.02h1.346l-0.68-.89a3.523,3.523,0,0,0-.641-0.78,2.652,2.652,0,0,0-.6-0.5,1.753,1.753,0,0,0,1.1-.55A2.1,2.1,0,0,0,68,1673a3.3,3.3,0,0,0-.2-1.28,1.334,1.334,0,0,0-.648-0.57A1.583,1.583,0,0,0,66,1671H64v6h1Zm-0.011-5H66c0.456,0,.217.01,0.308,0.02a0.643,0.643,0,0,1,.424.24A1.722,1.722,0,0,1,67,1673a1.846,1.846,0,0,1-.232.67,0.61,0.61,0,0,1-.316.25,3.841,3.841,0,0,1-1.011.08H64.989v-2ZM72,1677v-1H70v-2h2v-1H70v-1h2v-1H69v6h3Z" transform="translate(-53 -98)"/>
      <path id="PRE_copy-2" data-name="PRE copy" class="cls-3" d="M94,1677v-2h1a2.589,2.589,0,0,0,.8-0.11,1.428,1.428,0,0,0,.551-0.29,1.58,1.58,0,0,0,.447-0.59,3.562,3.562,0,0,0,.176-1.18,2.07,2.07,0,0,0-.3-1.17,1.38,1.38,0,0,0-.757-0.58A14.989,14.989,0,0,0,94,1671H93v6h1Zm1-5a1.014,1.014,0,0,1,.44.04,0.752,0.752,0,0,1,.427.27,0.836,0.836,0,0,1,.169.54,2.45,2.45,0,0,1-.12.78,0.715,0.715,0,0,1-.332.29A0.98,0.98,0,0,1,95,1674H94v-2h1Zm4,5-0.011-2.05h0.228c0.258,0,.067.03,0.186,0.07a0.832,0.832,0,0,1,.338.25,2.77,2.77,0,0,1,.593.69l0.814,1.02h1.345l-0.68-.89a3.547,3.547,0,0,0-.64-0.78,2.676,2.676,0,0,0-.6-0.5,1.75,1.75,0,0,0,1.1-.55A2.1,2.1,0,0,0,102,1673a3.3,3.3,0,0,0-.2-1.28,1.332,1.332,0,0,0-.648-0.57A1.586,1.586,0,0,0,100,1671H98v6h1Zm-0.011-5H100c0.456,0,.217.01,0.308,0.02a0.647,0.647,0,0,1,.424.24,1.723,1.723,0,0,1,.268.74,1.848,1.848,0,0,1-.232.67,0.609,0.609,0,0,1-.316.25,3.838,3.838,0,0,1-1.011.08H98.989v-2Zm7.011,5v-1h-2v-2h2v-1h-2v-1h2v-1h-3v6h3Z" transform="translate(-53 -98)"/>
    </g>
  </g>
  <g id="Formatting_Quote_" data-name="Formatting [Quote]">
    <g id="Combined-2" data-name="Combined">
      <path class="cls-5" d="M76,1653v2H74v-2H73v2H71v-2H70v2H68v-2H67v2H57a2,2,0,0,1-2-2v-14H74a2,2,0,0,1,2,2v5H74v1h2v2H74v1h2v2H74v1h2Zm-2-11a1,1,0,0,0-1-1H64v-2H63v2H61v-2H60v2H58v-2H57v2H55v1h2v2H55v1h2v2H55v1h2v4a1,1,0,0,0,1,1H73a1,1,0,0,0,1-1v-10Zm-17,0v-1h1A1,1,0,0,0,57,1642Z" transform="translate(-53 -98)"/>
      <path class="cls-6" d="M110,1653v2h-2v-2h-1v2h-2v-2h-1v2h-2v-2h-1v2H91a2,2,0,0,1-2-2v-5h2v4a1,1,0,0,0,1,1h15a1,1,0,0,0,1-1v-2h2v2h-2v1h2Zm-2-6h2v2h-2v-2Zm0-5a1,1,0,0,0-1-1H98v-2H97v2H95v-2H94v2H92v-2H91v2H89v-2h19a2,2,0,0,1,2,2v5h-2v-4Zm-17,0v-1h1A1,1,0,0,0,91,1642Zm-2,2v-2h2v2H89Zm2,3H89v-2h2v2Z" transform="translate(-53 -98)"/>
      <path id="_copy-2" data-name="“ copy" class="cls-2" d="M65,1647l-1.534-.01a2.471,2.471,0,0,1,.4-1.41,2.5,2.5,0,0,1,1.262-.82l-0.576-1.22a4.2,4.2,0,0,0-1.55.92,3.129,3.129,0,0,0-.833,1.34A2.387,2.387,0,0,0,62,1647v3h3v-3Zm4,0-1.454-.01a2.471,2.471,0,0,1,.4-1.41,2.5,2.5,0,0,1,1.262-.82l-0.576-1.22a4.266,4.266,0,0,0-1.545.92,3.11,3.11,0,0,0-.838,1.34A8.4,8.4,0,0,0,66,1648v2h3v-3Z" transform="translate(-53 -98)"/>
      <path id="_copy-3" data-name="“ copy" class="cls-3" d="M99,1647l-1.534-.01a2.471,2.471,0,0,1,.4-1.41,2.5,2.5,0,0,1,1.262-.82l-0.576-1.22a4.2,4.2,0,0,0-1.55.92,3.129,3.129,0,0,0-.833,1.34A2.387,2.387,0,0,0,96,1647v3h3v-3Zm4,0-1.453-.01a2.464,2.464,0,0,1,.4-1.41,2.493,2.493,0,0,1,1.262-.82l-0.576-1.22a4.259,4.259,0,0,0-1.545.92,3.113,3.113,0,0,0-.838,1.34A8.4,8.4,0,0,0,100,1648v2h3v-3Z" transform="translate(-53 -98)"/>
    </g>
  </g>
  <g id="Formatting_P_" data-name="Formatting [P]">
    <g id="Combined-3" data-name="Combined">
      <path class="cls-5" d="M76,1626v2H74v-2H73v2H71v-2H70v2H68v-2H67v2H57a2,2,0,0,1-2-2v-14H74a2,2,0,0,1,2,2v5H74v1h2v2H74v1h2v2H74v1h2Zm-2-11a1,1,0,0,0-1-1H64v-2H63v2H61v-2H60v2H58v-2H57v2h1a1,1,0,0,0-1,1v-1H55v1h2v2H55v1h2v2H55v1h2v4a1,1,0,0,0,1,1H73a1,1,0,0,0,1-1v-10Z" transform="translate(-53 -98)"/>
      <path class="cls-6" d="M110,1626v2h-2v-2h-1v2h-2v-2h-1v2h-2v-2h-1v2H91a2,2,0,0,1-2-2v-5h2v4a1,1,0,0,0,1,1h15a1,1,0,0,0,1-1v1h2Zm0-3v2h-2v-2h2Zm-2-3h2v2h-2v-2Zm0-5a1,1,0,0,0-1-1H98v-2H97v2H95v-2H94v2H92v-2H91v2h1a1,1,0,0,0-1,1v-1H89v-2h19a2,2,0,0,1,2,2v5h-2v-4Zm-19,2v-2h2v2H89Zm2,3H89v-2h2v2Z" transform="translate(-53 -98)"/>
      <path id="P_copy_2" data-name="P copy 2" class="cls-2" d="M62.992,1624.02H65v-3.07H66.08a3.134,3.134,0,0,0,2.225-.59,2.448,2.448,0,0,0,.729-1.89,2.4,2.4,0,0,0-.669-1.82,2.841,2.841,0,0,0-2.012-.64H62.992v8.01Zm2-6.57h1.187a0.668,0.668,0,0,1,.668.26,1.331,1.331,0,0,1,.251.8,1.135,1.135,0,0,1-.289.79,0.8,0.8,0,0,1-.728.25H64.994v-2.1Z" transform="translate(-53 -98)"/>
      <path id="P_copy_3" data-name="P copy 3" class="cls-3" d="M96.992,1624.02H99v-3.07h1.078a3.134,3.134,0,0,0,2.225-.59,2.448,2.448,0,0,0,.729-1.89,2.4,2.4,0,0,0-.669-1.82,2.842,2.842,0,0,0-2.012-.64H96.992v8.01Zm2-6.57h1.187a0.667,0.667,0,0,1,.668.26,1.327,1.327,0,0,1,.252.8,1.135,1.135,0,0,1-.29.79,0.8,0.8,0,0,1-.728.25H98.994v-2.1Z" transform="translate(-53 -98)"/>
    </g>
  </g>
  <g id="Formatting_DIV_" data-name="Formatting [DIV ]">
    <g id="Combined-4" data-name="Combined">
      <path class="cls-5" d="M76,1599v2H74v-2H73v2H71v-2H70v2H68v-2H67v2H57a2,2,0,0,1-2-2v-14H74a2,2,0,0,1,2,2v5H74v1h2v2H74v1h2v2H74v1h2Zm-2-11a1,1,0,0,0-1-1H64v-2H63v2H61v-2H60v2H58v-2H57v2H55v1h2v2H55v1h2v2H55v1h2v4a1,1,0,0,0,1,1H73a1,1,0,0,0,1-1v-10Zm-17,0v-1h1A1,1,0,0,0,57,1588Z" transform="translate(-53 -98)"/>
      <path class="cls-6" d="M110,1599v2h-2v-2h-1v2h-2v-2h-1v2h-2v-2h-1v2H91a2,2,0,0,1-2-2v-5h2v4a1,1,0,0,0,1,1h15a1,1,0,0,0,1-1v-2h2v2h-2v1h2Zm-2-6h2v2h-2v-2Zm0-5a1,1,0,0,0-1-1H98v-2H97v2H95v-2H94v2H92v-2H91v2H89v-2h19a2,2,0,0,1,2,2v5h-2v-4Zm-17,0v-1h1A1,1,0,0,0,91,1588Zm-2,2v-2h2v2H89Zm2,3H89v-2h2v2Z" transform="translate(-53 -98)"/>
      <path id="div_copy" data-name="div copy" class="cls-2" d="M58.994,1595.97h2.284a3.829,3.829,0,0,0,1.075-.13,1.985,1.985,0,0,0,.791-0.48,2.69,2.69,0,0,0,.644-1.06,3.984,3.984,0,0,0,.184-1.28,4.385,4.385,0,0,0-.2-1.42,2.645,2.645,0,0,0-.574-0.98,1.822,1.822,0,0,0-.844-0.55,4.154,4.154,0,0,0-1.144-.12H58.994v6.02ZM61,1591a5.875,5.875,0,0,1,.969.03,1.153,1.153,0,0,1,.562.28,1.426,1.426,0,0,1,.345.58,3.617,3.617,0,0,1,.123,1.07,3.971,3.971,0,0,1-.123,1.11,1.339,1.339,0,0,1-.318.58A1.686,1.686,0,0,1,62,1595a8.174,8.174,0,0,1-1,0H60v-4h1Zm5,5v-6H65v6h1Zm4,0,2-6H71l-1.516,4.42L68,1590H67l2,6h1Z" transform="translate(-53 -98)"/>
      <path id="div_copy-2" data-name="div copy" class="cls-3" d="M92.994,1595.97h2.284a3.829,3.829,0,0,0,1.075-.13,1.985,1.985,0,0,0,.79-0.48,2.69,2.69,0,0,0,.644-1.06,3.984,3.984,0,0,0,.184-1.28,4.385,4.385,0,0,0-.2-1.42,2.645,2.645,0,0,0-.574-0.98,1.822,1.822,0,0,0-.844-0.55,4.154,4.154,0,0,0-1.144-.12H92.994v6.02ZM95,1591a5.875,5.875,0,0,1,.969.03,1.153,1.153,0,0,1,.562.28,1.427,1.427,0,0,1,.344.58,3.617,3.617,0,0,1,.123,1.07,3.971,3.971,0,0,1-.123,1.11,1.339,1.339,0,0,1-.318.58A1.686,1.686,0,0,1,96,1595a8.174,8.174,0,0,1-1,0H94v-4h1Zm5,5v-6H99v6h1Zm4,0,2-6h-1l-1.515,4.42L102,1590h-1l2,6h1Z" transform="translate(-53 -98)"/>
    </g>
  </g>
  <g id="Headings">
    <path id="H_copy_2" data-name="H copy 2" class="cls-2" d="M73,1572a8.667,8.667,0,0,1-.921-0.06,2.9,2.9,0,0,1-.561-0.17,0.9,0.9,0,0,1-.422-0.39,0.32,0.32,0,0,1-.107-0.27v-9.01a1.462,1.462,0,0,1,.107-0.57,0.658,0.658,0,0,1,.422-0.37,5.173,5.173,0,0,1,.561-0.14A7.359,7.359,0,0,1,73,1561v-1H67v1a5.436,5.436,0,0,1,.867.05,3.263,3.263,0,0,1,.608.21,0.851,0.851,0,0,1,.418.39,1.187,1.187,0,0,1,.121.54L69,1566H62v-4a1.033,1.033,0,0,1,.107-0.47,0.659,0.659,0,0,1,.422-0.37,5.18,5.18,0,0,1,.561-0.14A7.179,7.179,0,0,1,64,1561v-1H58v1a5.2,5.2,0,0,1,.848.05,3.264,3.264,0,0,1,.608.21,0.851,0.851,0,0,1,.418.39,1.187,1.187,0,0,1,.121.54L60,1571a0.917,0.917,0,0,1-.137.52,0.777,0.777,0,0,1-.408.34,1.791,1.791,0,0,1-.58.11c-0.282.03-.727,0.02-0.875,0.03v1h6v-1a8.476,8.476,0,0,1-.909-0.06,2.9,2.9,0,0,1-.561-0.17,0.9,0.9,0,0,1-.422-0.39A0.606,0.606,0,0,1,62,1571v-4h7l0.013,4.21a0.335,0.335,0,0,1-.13.31,0.777,0.777,0,0,1-.408.34,1.792,1.792,0,0,1-.58.11c-0.281.03-.747,0.02-0.895,0.03v1h6v-1Z" transform="translate(-53 -98)"/>
    <path id="H_copy_2-2" data-name="H copy 2" class="cls-3" d="M107,1572a8.664,8.664,0,0,1-.921-0.06,2.9,2.9,0,0,1-.561-0.17,0.9,0.9,0,0,1-.422-0.39,0.318,0.318,0,0,1-.107-0.27v-9.01a1.448,1.448,0,0,1,.107-0.57,0.657,0.657,0,0,1,.422-0.37,5.158,5.158,0,0,1,.561-0.14A7.363,7.363,0,0,1,107,1561v-1h-6v1a5.435,5.435,0,0,1,.867.05,3.269,3.269,0,0,1,.608.21,0.848,0.848,0,0,1,.417.39,1.178,1.178,0,0,1,.121.54L103,1566H96v-4a1.032,1.032,0,0,1,.107-0.47,0.659,0.659,0,0,1,.422-0.37,5.18,5.18,0,0,1,.561-0.14A7.179,7.179,0,0,1,98,1561v-1H92v1a5.2,5.2,0,0,1,.848.05,3.264,3.264,0,0,1,.608.21,0.851,0.851,0,0,1,.417.39,1.187,1.187,0,0,1,.121.54L94,1571a0.917,0.917,0,0,1-.137.52,0.777,0.777,0,0,1-.408.34,1.792,1.792,0,0,1-.58.11c-0.281.03-.727,0.02-0.875,0.03v1h6v-1a8.476,8.476,0,0,1-.909-0.06,2.9,2.9,0,0,1-.561-0.17,0.9,0.9,0,0,1-.422-0.39A0.605,0.605,0,0,1,96,1571v-4h7l0.013,4.21a0.334,0.334,0,0,1-.13.31,0.78,0.78,0,0,1-.408.34,1.794,1.794,0,0,1-.58.11c-0.282.03-.747,0.02-0.895,0.03v1h6v-1Z" transform="translate(-53 -98)"/>
  </g>
  <g id="Formatting_-_none" data-name="Formatting - none">
    <g id="Combined-5" data-name="Combined">
      <path class="cls-2" d="M75,1544v2H73v-2H72v2H70v-2H69v2H67v-2H66v2H58a2,2,0,0,1-2-2v-12H73a2,2,0,0,1,2,2v3H73v1h2v2H73v1h2v2H73v1h2Zm-2-9a1,1,0,0,0-1-1H65v-2H64v2H62v-2H61v2H59v-2H58v2H56v1h2v2H56v1h2v2H56v1h2v2a1,1,0,0,0,1,1H72a1,1,0,0,0,1-1v-8Zm-15,0v-1h1A1,1,0,0,0,58,1535Z" transform="translate(-53 -98)"/>
      <path class="cls-3" d="M109,1544v2h-2v-2h-1v2h-2v-2h-1v2h-2v-2h-1v2H92a2,2,0,0,1-2-2v-3h2v2a1,1,0,0,0,1,1h13a1,1,0,0,0,1-1v1h2Zm0-3v2h-2v-2h2Zm-2-3h2v2h-2v-2Zm0-3a1,1,0,0,0-1-1H99v-2H98v2H96v-2H95v2H93v-2H92v2H90v-2h17a2,2,0,0,1,2,2v3h-2v-2Zm-15,0v-1h1A1,1,0,0,0,92,1535Zm-2,2v-2h2v2H90Zm2,3H90v-2h2v2Z" transform="translate(-53 -98)"/>
    </g>
  </g>
  <g id="search">
    <path class="cls-2" d="M64,1507H61v-2h3v2Zm-4,1h4v5H63l0,1.01,0,4.99H58v-5Zm7-1h3v-2H67v2Zm4,1H67v5h1v6h5v-5Zm-5,5H65v-5h1v5Z" transform="translate(-53 -98)"/>
    <path class="cls-3" d="M98,1507H95v-2h3v2Zm-4,1h4v5H97l0,1.01,0,4.99H92v-5Zm7-1h3v-2h-3v2Zm4,1h-4v5h1v6h5v-5Zm-5,5H99v-5h1v5Z" transform="translate(-53 -98)"/>
  </g>
  <g id="Italic">
    <path id="I_copy" data-name="I copy" class="cls-2" d="M64.045,1478.97l-0.127.9c0.124,0.02.317,0.05,0.579,0.11s0.063,0.12.215,0.19a0.6,0.6,0,0,1,.3.23,0.562,0.562,0,0,1,.072.29,1.372,1.372,0,0,1-.009.16,1.423,1.423,0,0,1-.025.15l-1.935,8.09a1.169,1.169,0,0,1-.228.5,1.021,1.021,0,0,1-.5.32,2.655,2.655,0,0,1-.626.11c-0.293.02-.518,0.04-0.676,0.05l-0.127.9h4.973l0.127-.9c-0.141-.01-0.355-0.05-0.642-0.1s-0.036-.1-0.12-0.14a0.7,0.7,0,0,1-.3-0.24,0.61,0.61,0,0,1-.085-0.33,1.12,1.12,0,0,1,.008-0.13,0.6,0.6,0,0,1,.026-0.13l1.941-8.08a1.573,1.573,0,0,1,.22-0.5,0.852,0.852,0,0,1,.507-0.34c0.135-.04.344-0.08,0.626-0.13s0.51-.07.685-0.08l0.127-.9h-5Z" transform="translate(-53 -98)"/>
    <path id="I_copy-2" data-name="I copy" class="cls-3" d="M98.045,1478.97l-0.127.9c0.124,0.02.317,0.05,0.579,0.11s0.063,0.12.215,0.19a0.6,0.6,0,0,1,.3.23,0.562,0.562,0,0,1,.072.29,1.372,1.372,0,0,1-.009.16,1.4,1.4,0,0,1-.025.15l-1.935,8.09a1.169,1.169,0,0,1-.228.5,1.021,1.021,0,0,1-.5.32,2.655,2.655,0,0,1-.626.11c-0.293.02-.518,0.04-0.676,0.05l-0.127.9h4.973l0.126-.9c-0.141-.01-0.355-0.05-0.642-0.1s-0.036-.1-0.12-0.14a0.7,0.7,0,0,1-.3-0.24,0.61,0.61,0,0,1-.085-0.33,1.12,1.12,0,0,1,.008-0.13,0.6,0.6,0,0,1,.026-0.13l1.941-8.08a1.582,1.582,0,0,1,.22-0.5,0.855,0.855,0,0,1,.507-0.34c0.136-.04.344-0.08,0.626-0.13s0.51-.07.685-0.08l0.126-.9h-5Z" transform="translate(-53 -98)"/>
  </g>
  <g id="Bold">
    <g id="Combined-6" data-name="Combined">
      <path class="cls-2" d="M68.479,1457.44A4.844,4.844,0,0,1,70.25,1461a3,3,0,0,1-3,3,2.085,2.085,0,0,1-.25-0.03V1464H61v-12h6v0.03A2.979,2.979,0,0,1,68.479,1457.44ZM67,1454.19V1454H63v3h4v-0.19A1.462,1.462,0,0,0,67,1454.19Zm0,4.91V1459H63v3h4v-0.1A1.48,1.48,0,0,0,67,1459.1Z" transform="translate(-53 -98)"/>
      <path class="cls-3" d="M102.479,1457.44a4.841,4.841,0,0,1,1.771,3.56,3,3,0,0,1-3,3,2.081,2.081,0,0,1-.25-0.03V1464H95v-12h6v0.03A2.978,2.978,0,0,1,102.479,1457.44ZM101,1454.19V1454H97v3h4v-0.19A1.463,1.463,0,0,0,101,1454.19Zm0,4.91V1459H97v3h4v-0.1A1.48,1.48,0,0,0,101,1459.1Z" transform="translate(-53 -98)"/>
    </g>
  </g>
  <g id="Language_Tools" data-name="Language Tools">
    <g id="combined-7" data-name="combined">
      <path id="Language_Icon" data-name="Language Icon" class="cls-2" d="M73.289,1433.79l-0.615-2.29-3.536-1.09-0.76,1.86-1.712-.53,3.633-9.1,1.666,0.52L75,1434.32Zm-2.228-8.19-1.269,3.13,2.333,0.72Zm-2.825,11.87a9.581,9.581,0,0,0,1.52-.73,10.788,10.788,0,0,0,1.1-.78c0.172-.13.326-0.26,0.489-0.41a1.359,1.359,0,0,1,.489-0.38,1.274,1.274,0,0,1,.263.87,0.436,0.436,0,0,1-.118.35,8.71,8.71,0,0,1-1.892,1.51,6.868,6.868,0,0,1-1.059.57,4.806,4.806,0,0,1-.661.1c-0.281.1-.579,0.36-0.86,0.43-0.317.08-.652,0.13-0.968,0.18H65.35a9.113,9.113,0,0,1-1.294-.26c-0.172-.04-0.344-0.12-0.516-0.17a9.865,9.865,0,0,1-1.421-.71,8.664,8.664,0,0,1-1.086-.77c-0.1-.09-0.21-0.19-0.318-0.28l-1.385,1.59-0.62-4.3,4.179,0.23-1.482,1.69a2.6,2.6,0,0,0,.35.4c0.136,0.08.281,0.01,0.4,0.09,0.145,0.09.29,0.19,0.425,0.26,0.208,0.12.425,0.23,0.615,0.32a5.074,5.074,0,0,0,.606.24,6.991,6.991,0,0,0,.805.23c0.317,0.07.616,0.1,0.932,0.14h0.815c0.163,0,.968-0.15,1-0.15C67.648,1437.65,67.956,1437.57,68.237,1437.47Zm-4.23-6.51c-0.231-.1-1.3-0.71-1.565-0.9s-1.3-.96-1.432-1.02v-0.22a30.7,30.7,0,0,1-2.25,3.33,12.319,12.319,0,0,1-1.893,2.01,3.257,3.257,0,0,1-.866.08c0.291-.23,1-1.28,1.346-1.69,0.457-.53,2.56-3.58,2.93-4.27s1.517-3.01,1.578-3.22c-0.194-.02-1.443.61-1.816,0.73a14,14,0,0,0-1.434.46,1.418,1.418,0,0,0-.051.36,1.4,1.4,0,0,1-.555.27,3.174,3.174,0,0,1-1.024.01,0.882,0.882,0,0,1-.345-0.58,2.723,2.723,0,0,1-.09-0.6c0.226-.07.578-0.07,0.982-0.19s1.384-.41,1.9-0.59,1.531-.57,1.848-0.63,1.133-.66,1.564-0.81a1.291,1.291,0,0,1,.765-0.19,5.821,5.821,0,0,1,.152.82c-0.02.11-.883,1.79-1.01,2.06-0.069.14-.76,0.98-1.575,2.26,0.289,0.12.9,0.39,1.155,0.51,0.307,0.15,2.469,1.07,2.574,1.1a2.95,2.95,0,0,1,.265,1.15A2.354,2.354,0,0,1,64.007,1430.96Zm-3.513-7.44a4.122,4.122,0,0,1-1.27.21,1.283,1.283,0,0,1-.879-0.48,1.769,1.769,0,0,1-.318-0.98,1.633,1.633,0,0,0,.842.1c0.237-.05.959-0.22,1.223-0.3a9.2,9.2,0,0,1,.991-0.25,0.336,0.336,0,0,1,.376.31,1.253,1.253,0,0,1-.074.69A1.926,1.926,0,0,1,60.494,1423.52Z" transform="translate(-53 -98)"/>
      <path id="Language_Icon-2" data-name="Language Icon" class="cls-3" d="M107.289,1433.79l-0.614-2.29-3.536-1.09-0.761,1.86-1.711-.53,3.633-9.1,1.665,0.52L109,1434.32Zm-2.228-8.19-1.269,3.13,2.333,0.72Zm-2.824,11.87a9.573,9.573,0,0,0,1.52-.73,10.7,10.7,0,0,0,1.1-.78c0.172-.13.326-0.26,0.489-0.41a1.364,1.364,0,0,1,.489-0.38,1.273,1.273,0,0,1,.262.87,0.437,0.437,0,0,1-.117.35,8.721,8.721,0,0,1-1.892,1.51,6.883,6.883,0,0,1-1.059.57,4.787,4.787,0,0,1-.661.1c-0.28.1-.579,0.36-0.859,0.43-0.317.08-.652,0.13-0.969,0.18H99.35a9.113,9.113,0,0,1-1.294-.26c-0.172-.04-0.344-0.12-0.516-0.17a9.859,9.859,0,0,1-1.421-.71,8.664,8.664,0,0,1-1.086-.77c-0.1-.09-0.21-0.19-0.318-0.28l-1.385,1.59-0.62-4.3,4.179,0.23-1.482,1.69a2.6,2.6,0,0,0,.35.4c0.136,0.08.281,0.01,0.4,0.09,0.145,0.09.29,0.19,0.425,0.26,0.208,0.12.425,0.23,0.616,0.32a5.074,5.074,0,0,0,.606.24,6.991,6.991,0,0,0,.805.23c0.317,0.07.615,0.1,0.932,0.14h0.814c0.163,0,.969-0.15,1-0.15C101.648,1437.65,101.956,1437.57,102.237,1437.47Zm-4.23-6.51c-0.231-.1-1.3-0.71-1.565-0.9s-1.3-.96-1.432-1.02v-0.22a30.7,30.7,0,0,1-2.25,3.33,12.315,12.315,0,0,1-1.893,2.01,3.256,3.256,0,0,1-.866.08c0.291-.23,1-1.28,1.346-1.69,0.457-.53,2.56-3.58,2.93-4.27s1.517-3.01,1.578-3.22c-0.194-.02-1.443.61-1.816,0.73a14,14,0,0,0-1.434.46,1.418,1.418,0,0,0-.051.36,1.4,1.4,0,0,1-.555.27,3.174,3.174,0,0,1-1.024.01,0.882,0.882,0,0,1-.345-0.58,2.723,2.723,0,0,1-.09-0.6c0.226-.07.578-0.07,0.982-0.19s1.384-.41,1.9-0.59,1.531-.57,1.848-0.63,1.133-.66,1.564-0.81a1.291,1.291,0,0,1,.765-0.19,5.821,5.821,0,0,1,.152.82c-0.02.11-.883,1.79-1.01,2.06-0.069.14-.76,0.98-1.575,2.26,0.29,0.12.9,0.39,1.155,0.51,0.307,0.15,2.469,1.07,2.574,1.1a2.952,2.952,0,0,1,.265,1.15A2.354,2.354,0,0,1,98.007,1430.96Zm-3.513-7.44a4.122,4.122,0,0,1-1.27.21,1.283,1.283,0,0,1-.879-0.48,1.769,1.769,0,0,1-.317-0.98,1.632,1.632,0,0,0,.842.1c0.237-.05.959-0.22,1.223-0.3a9.2,9.2,0,0,1,.991-0.25,0.336,0.336,0,0,1,.376.31,1.253,1.253,0,0,1-.074.69A1.926,1.926,0,0,1,94.494,1423.52Z" transform="translate(-53 -98)"/>
    </g>
  </g>
  <g id="Hidden_CHaracters" data-name="Hidden CHaracters">
    <g id="icon">
      <path id="_copy-4" data-name="¶ copy" class="cls-2" d="M62.186,1397.9A3.217,3.217,0,0,0,61,1400.47a3.683,3.683,0,0,0,1.077,2.71A4.647,4.647,0,0,0,65,1404v8h1v-14h2v14h1v-15H65A3.777,3.777,0,0,0,62.186,1397.9Z" transform="translate(-53 -98)"/>
      <path id="_copy-5" data-name="¶ copy" class="cls-3" d="M96.186,1397.9A3.217,3.217,0,0,0,95,1400.47a3.683,3.683,0,0,0,1.076,2.71A4.647,4.647,0,0,0,99,1404v8h1v-14h2v14h1v-15H99A3.777,3.777,0,0,0,96.186,1397.9Z" transform="translate(-53 -98)"/>
    </g>
  </g>
  <g id="Char_Map" data-name="Char Map">
    <path id="á" class="cls-2" d="M68.651,1383.81h1.874a4.041,4.041,0,0,1-.454-1.27,25.545,25.545,0,0,1-.115-3.17v-2.39a10.2,10.2,0,0,0-.09-1.66,2.506,2.506,0,0,0-1.8-2.02,6.422,6.422,0,0,0-2.2-.32,7.307,7.307,0,0,0-2.4.37,3.476,3.476,0,0,0-1.585,1.07,4.344,4.344,0,0,0-.788,1.82l1.755,0.24a2.727,2.727,0,0,1,.892-1.57,3.139,3.139,0,0,1,1.869-.44,3.031,3.031,0,0,1,2.044.6,2,2,0,0,1,.508,1.55c0,0.07,0,.22-0.01.47a16.877,16.877,0,0,1-3.2.62,10.68,10.68,0,0,0-1.595.27,4.252,4.252,0,0,0-1.291.58,2.95,2.95,0,0,0-.927,1.04,2.866,2.866,0,0,0-.354,1.42,2.79,2.79,0,0,0,.937,2.17,3.842,3.842,0,0,0,2.682.86,5.6,5.6,0,0,0,1.979-.35,6.536,6.536,0,0,0,1.919-1.2,3.8,3.8,0,0,0,.359,1.31h0Zm-0.508-4.66a4.382,4.382,0,0,1-.289,1.8,2.8,2.8,0,0,1-1.186,1.24,3.724,3.724,0,0,1-1.844.45,2.333,2.333,0,0,1-1.59-.48,1.529,1.529,0,0,1-.543-1.19,1.548,1.548,0,0,1,.249-0.86,1.572,1.572,0,0,1,.708-0.58,7.133,7.133,0,0,1,1.565-.36,12.594,12.594,0,0,0,2.931-.68v0.66Zm-1.9-7.18,2.341-2.98H66.069l-1.416,2.98h1.586Z" transform="translate(-53 -98)"/>
    <path id="á-2" data-name="á" class="cls-3" d="M102.651,1383.81h1.874a4.032,4.032,0,0,1-.453-1.27,25.416,25.416,0,0,1-.115-3.17v-2.39a10.163,10.163,0,0,0-.09-1.66,2.864,2.864,0,0,0-.558-1.22,2.9,2.9,0,0,0-1.246-.8,6.42,6.42,0,0,0-2.2-.32,7.307,7.307,0,0,0-2.4.37,3.476,3.476,0,0,0-1.585,1.07,4.344,4.344,0,0,0-.787,1.82l1.754,0.24a2.727,2.727,0,0,1,.892-1.57,3.139,3.139,0,0,1,1.869-.44,3.03,3.03,0,0,1,2.043.6,2,2,0,0,1,.509,1.55c0,0.07,0,.22-0.01.47a16.9,16.9,0,0,1-3.2.62,10.68,10.68,0,0,0-1.595.27,4.252,4.252,0,0,0-1.291.58,2.95,2.95,0,0,0-.927,1.04,2.866,2.866,0,0,0-.354,1.42,2.79,2.79,0,0,0,.937,2.17,3.842,3.842,0,0,0,2.682.86,5.6,5.6,0,0,0,1.979-.35,6.524,6.524,0,0,0,1.919-1.2,3.8,3.8,0,0,0,.359,1.31h0Zm-0.508-4.66a4.394,4.394,0,0,1-.289,1.8,2.8,2.8,0,0,1-1.187,1.24,3.722,3.722,0,0,1-1.844.45,2.333,2.333,0,0,1-1.59-.48,1.529,1.529,0,0,1-.543-1.19,1.549,1.549,0,0,1,.249-0.86,1.572,1.572,0,0,1,.708-0.58,7.133,7.133,0,0,1,1.565-.36,12.61,12.61,0,0,0,2.931-.68v0.66Zm-1.9-7.18,2.342-2.98h-2.512l-1.416,2.98h1.586Z" transform="translate(-53 -98)"/>
  </g>
  <g id="hr">
    <g id="Icon-2" data-name="Icon">
      <rect id="bar" class="cls-7" x="4" y="1251" width="17" height="2"/>
      <path class="cls-5" d="M59,1348v-1H72v1H59Zm0-2v-1H72v1H59Zm0-2v-1H72v1H59Zm0,13v-1H72v1H59Zm0-2v-1H72v1H59Zm0-2v-1H72v1H59Z" transform="translate(-53 -98)"/>
    </g>
    <g id="Icon-3" data-name="Icon">
      <rect id="bar-2" data-name="bar" class="cls-8" x="38" y="1251" width="17" height="2"/>
      <path class="cls-6" d="M93,1348v-1h13v1H93Zm0-2v-1h13v1H93Zm0-2v-1h13v1H93Zm0,13v-1h13v1H93Zm0-2v-1h13v1H93Zm0-2v-1h13v1H93Z" transform="translate(-53 -98)"/>
    </g>
  </g>
  <g id="Target">
    <g id="Combined-8" data-name="Combined">
      <path class="cls-2" d="M71.952,1324A6.469,6.469,0,0,1,66,1329.95V1332H65v-2.05a6.469,6.469,0,0,1-5.952-5.95H57v-1h2.048A6.469,6.469,0,0,1,65,1317.05V1315h1v2.05a6.469,6.469,0,0,1,5.952,5.95H74v1H71.952ZM66,1318.23V1321H65v-2.77a5.293,5.293,0,0,0-4.777,4.77H63v1H60.223A5.294,5.294,0,0,0,65,1328.77V1326h1v2.77a5.294,5.294,0,0,0,4.777-4.77H68v-1h2.777A5.293,5.293,0,0,0,66,1318.23Z" transform="translate(-53 -98)"/>
      <path class="cls-3" d="M105.952,1324a6.47,6.47,0,0,1-5.952,5.95V1332H99v-2.05a6.469,6.469,0,0,1-5.952-5.95H91v-1h2.048A6.469,6.469,0,0,1,99,1317.05V1315h1v2.05a6.47,6.47,0,0,1,5.952,5.95H108v1h-2.048ZM100,1318.23V1321H99v-2.77a5.293,5.293,0,0,0-4.777,4.77H97v1H94.223A5.294,5.294,0,0,0,99,1328.77V1326h1v2.77a5.293,5.293,0,0,0,4.777-4.77H102v-1h2.777A5.293,5.293,0,0,0,100,1318.23Z" transform="translate(-53 -98)"/>
    </g>
  </g>
  <g id="Cog">
    <g id="Combined-9" data-name="Combined">
      <path id="icon-4" data-name="icon" class="cls-2" d="M72.891,1294.35a7.482,7.482,0,0,1,.112,1.11,7.4,7.4,0,0,1-.115,1.14l-1.992.17a5.444,5.444,0,0,1-.665,1.59l1.291,1.54a7.748,7.748,0,0,1-1.593,1.59l-1.532-1.3a5.541,5.541,0,0,1-1.589.67l-0.169,1.98a5.819,5.819,0,0,1-2.252,0l-0.168-1.97a5.6,5.6,0,0,1-1.6-.67l-1.521,1.29a7.745,7.745,0,0,1-1.593-1.59l1.275-1.52a5.462,5.462,0,0,1-.676-1.61l-1.964-.17a7.4,7.4,0,0,1-.115-1.14,7.482,7.482,0,0,1,.112-1.11l1.956-.16a5.5,5.5,0,0,1,.676-1.63l-1.275-1.51a7.489,7.489,0,0,1,1.588-1.59l1.513,1.27a5.46,5.46,0,0,1,1.628-.67l0.168-1.97a5.795,5.795,0,0,1,2.247,0l0.168,1.97a5.42,5.42,0,0,1,1.617.68l1.523-1.28a7.489,7.489,0,0,1,1.588,1.59l-1.291,1.53a5.537,5.537,0,0,1,.664,1.6Zm-7.378-2.45a3.575,3.575,0,1,0,3.577,3.58A3.577,3.577,0,0,0,65.513,1291.9Z" transform="translate(-53 -98)"/>
      <path id="icon-5" data-name="icon" class="cls-3" d="M106.891,1294.35a5.656,5.656,0,0,1,0,2.25l-1.993.17a5.435,5.435,0,0,1-.664,1.59l1.291,1.54a7.745,7.745,0,0,1-1.593,1.59l-1.532-1.3a5.533,5.533,0,0,1-1.588.67l-0.169,1.98a5.821,5.821,0,0,1-2.253,0l-0.168-1.97a5.6,5.6,0,0,1-1.6-.67l-1.521,1.29a7.748,7.748,0,0,1-1.593-1.59l1.275-1.52a5.462,5.462,0,0,1-.676-1.61l-1.964-.17a7.4,7.4,0,0,1-.115-1.14,7.482,7.482,0,0,1,.112-1.11l1.956-.16a5.5,5.5,0,0,1,.676-1.63l-1.275-1.51a7.489,7.489,0,0,1,1.588-1.59l1.513,1.27a5.46,5.46,0,0,1,1.628-.67l0.168-1.97a5.794,5.794,0,0,1,2.247,0l0.169,1.97a5.433,5.433,0,0,1,1.617.68l1.523-1.28a7.477,7.477,0,0,1,1.587,1.59l-1.291,1.53a5.554,5.554,0,0,1,.664,1.6Zm-7.378-2.45a3.575,3.575,0,1,0,3.577,3.58A3.576,3.576,0,0,0,99.513,1291.9Z" transform="translate(-53 -98)"/>
    </g>
  </g>
  <g id="Redo">
    <g id="Combined-10" data-name="Combined">
      <path id="Icon_-_Revert" data-name="Icon - Revert" class="cls-3" d="M103,1269h-2l1.64-1.64A4,4,0,1,0,99,1273a4.118,4.118,0,0,0,1-.14v2.04a6.57,6.57,0,0,1-1,.1,6,6,0,1,1,5.109-9.11L106,1264v5h-3Z" transform="translate(-53 -98)"/>
      <path id="Icon_-_Revert-2" data-name="Icon - Revert" class="cls-2" d="M69,1269H67l1.64-1.64A4,4,0,1,0,65,1273a4.118,4.118,0,0,0,1-.14v2.04a6.571,6.571,0,0,1-1,.1,6,6,0,1,1,5.109-9.11L72,1264v5H69Z" transform="translate(-53 -98)"/>
    </g>
  </g>
  <g id="Undo">
    <g id="Combined-11" data-name="Combined">
      <path id="Icon_-_Revert-3" data-name="Icon - Revert" class="cls-3" d="M100,1248a6.57,6.57,0,0,1-1-.1v-2.04a4.118,4.118,0,0,0,1,.14,4,4,0,1,0-3.64-5.64L98,1242H93v-5l1.891,1.89A5.992,5.992,0,1,1,100,1248Z" transform="translate(-53 -98)"/>
      <path id="Icon_-_Revert-4" data-name="Icon - Revert" class="cls-2" d="M66,1248a6.57,6.57,0,0,1-1-.1v-2.04a4.117,4.117,0,0,0,1,.14,4,4,0,1,0-3.64-5.64L64,1242H59v-5l1.891,1.89A5.992,5.992,0,1,1,66,1248Z" transform="translate(-53 -98)"/>
    </g>
  </g>
  <g id="Remove_Styles" data-name="Remove Styles">
    <g id="Combined-12" data-name="Combined">
      <path class="cls-2" d="M74.6,1207.68l-4.478,3.65a0.95,0.95,0,0,1-.415.18A1.369,1.369,0,0,1,70,1213c-0.586,1.02-2.631.08-2,10-5.319-.99-10.418-2.75-10-10,4.39-.3,6.8-3.02,9-3a2.819,2.819,0,0,1,1.589.52,0.978,0.978,0,0,1,.35-0.72l4.478-3.64a0.93,0.93,0,0,1,1.335.15A0.993,0.993,0,0,1,74.6,1207.68Zm-8.9,4.75c-3.249.2-2.447,1.37-5.7,1.57a3.18,3.18,0,0,0-.18,2.67l3.359-1.66-2.185,3.44a8.009,8.009,0,0,0,1.738,1.3l2.229-3.39-0.767,4.1A10.346,10.346,0,0,0,66,1221c0.585-3.13-.363-4.74,1.478-7.22A4.513,4.513,0,0,0,65.7,1212.43Z" transform="translate(-53 -98)"/>
      <path class="cls-3" d="M108.6,1207.68l-4.478,3.65a0.958,0.958,0,0,1-.415.18,1.369,1.369,0,0,1,.3,1.49c-0.586,1.02-2.631.08-2,10-5.319-.99-10.418-2.75-10-10,4.39-.3,6.8-3.02,9-3a2.818,2.818,0,0,1,1.589.52,0.98,0.98,0,0,1,.351-0.72l4.478-3.64a0.93,0.93,0,0,1,1.335.15A0.993,0.993,0,0,1,108.6,1207.68Zm-8.9,4.75c-3.249.2-2.447,1.37-5.7,1.57a3.18,3.18,0,0,0-.18,2.67l3.359-1.66-2.185,3.44a8.009,8.009,0,0,0,1.738,1.3l2.229-3.39-0.767,4.1A10.346,10.346,0,0,0,100,1221c0.585-3.13-.363-4.74,1.478-7.22A4.516,4.516,0,0,0,99.7,1212.43Z" transform="translate(-53 -98)"/>
    </g>
  </g>
  <g id="Strikethrough">
    <g id="icon-6" data-name="icon">
      <g id="Combined-13" data-name="Combined">
        <path id="bar-3" data-name="bar" class="cls-2" d="M64.976,1186.3a15.2,15.2,0,0,1,2.232.7H73v1H68.7a3.568,3.568,0,0,1,.394.45,3.308,3.308,0,0,1,.489,1.79,3.652,3.652,0,0,1-2.079,3.29,5.056,5.056,0,0,1-2.264.49,6.39,6.39,0,0,1-2.672-.5,3.788,3.788,0,0,1-1.691-1.5,4.478,4.478,0,0,1-.645-2.27l1.466-.13a3.664,3.664,0,0,0,.485,1.55,2.713,2.713,0,0,0,1.182.98,4.2,4.2,0,0,0,1.8.37,4.043,4.043,0,0,0,1.571-.28,2.2,2.2,0,0,0,1.014-.78,1.9,1.9,0,0,0,.333-1.08,1.755,1.755,0,0,0-.321-1.04,6.719,6.719,0,0,0-1.813-.8,12.13,12.13,0,0,0-1.337-.34c-0.269-.06-0.513-0.13-0.736-0.2H56v-1h5.868a4.7,4.7,0,0,1-.778-0.98,3.015,3.015,0,0,1-.413-1.57,3.366,3.366,0,0,1,.5-1.78,3.1,3.1,0,0,1,1.474-1.26,5.206,5.206,0,0,1,2.156-.43,5.553,5.553,0,0,1,2.3.45,3.349,3.349,0,0,1,1.535,1.33,4.013,4.013,0,0,1,.577,1.99l-1.49.12a2.664,2.664,0,0,0-.813-1.81,3,3,0,0,0-2.047-.61,3.119,3.119,0,0,0-2.055.55,1.713,1.713,0,0,0-.645,1.34,1.488,1.488,0,0,0,.457,1.12A6.3,6.3,0,0,0,64.976,1186.3Z" transform="translate(-53 -98)"/>
        <path id="bar-4" data-name="bar" class="cls-3" d="M98.976,1186.3a15.209,15.209,0,0,1,2.233.7H107v1h-4.3a3.546,3.546,0,0,1,.394.45,3.307,3.307,0,0,1,.489,1.79,3.653,3.653,0,0,1-2.079,3.29,5.061,5.061,0,0,1-2.264.49,6.39,6.39,0,0,1-2.672-.5,3.788,3.788,0,0,1-1.691-1.5,4.478,4.478,0,0,1-.645-2.27l1.466-.13a3.665,3.665,0,0,0,.485,1.55,2.714,2.714,0,0,0,1.182.98,4.2,4.2,0,0,0,1.8.37,4.041,4.041,0,0,0,1.57-.28,2.2,2.2,0,0,0,1.014-.78,1.9,1.9,0,0,0,.332-1.08,1.751,1.751,0,0,0-.32-1.04,6.72,6.72,0,0,0-1.813-.8,12.131,12.131,0,0,0-1.336-.34c-0.269-.06-0.514-0.13-0.736-0.2H90v-1h5.868a4.706,4.706,0,0,1-.778-0.98,3.015,3.015,0,0,1-.413-1.57,3.366,3.366,0,0,1,.5-1.78,3.1,3.1,0,0,1,1.474-1.26,5.206,5.206,0,0,1,2.156-.43,5.553,5.553,0,0,1,2.3.45,3.348,3.348,0,0,1,1.534,1.33,4,4,0,0,1,.577,1.99l-1.49.12a2.664,2.664,0,0,0-.813-1.81,3,3,0,0,0-2.048-.61,3.119,3.119,0,0,0-2.055.55,1.713,1.713,0,0,0-.645,1.34,1.488,1.488,0,0,0,.457,1.12A6.3,6.3,0,0,0,98.976,1186.3Z" transform="translate(-53 -98)"/>
      </g>
    </g>
  </g>
  <g id="Superscript">
    <g id="icon-7" data-name="icon">
      <path id="x" class="cls-9" d="M61.52,1164.96l2.237-3.15,0.465,0.67,1.748,2.48h1.772l-3.167-4.22,2.943-3.76H65.793l-1.435,1.88c-0.2.26-.414,0.55-0.65,0.88-0.15-.24-0.348-0.53-0.593-0.89l-1.307-1.87H60l2.879,3.83-3.111,4.15H61.52Z" transform="translate(-53 -98)"/>
      <path id="_2" data-name="2" class="cls-2" d="M70.45,1159.6a2.322,2.322,0,0,1,.309-0.42q0.19-.21.905-0.87a9.2,9.2,0,0,0,.988-1.01,4.078,4.078,0,0,0,.6-1,2.724,2.724,0,0,0,.191-1.01,2.068,2.068,0,0,0-.666-1.57,2.558,2.558,0,0,0-1.832-.63,2.785,2.785,0,0,0-1.772.55,2.443,2.443,0,0,0-.843,1.78l1.5,0.16a1.456,1.456,0,0,1,.322-0.95,1,1,0,0,1,.752-0.28,1.015,1.015,0,0,1,.749.27,1.044,1.044,0,0,1,.271.77,1.687,1.687,0,0,1-.312.93,11.663,11.663,0,0,1-1.251,1.29,10.041,10.041,0,0,0-1.7,1.88,3.683,3.683,0,0,0-.516,1.51h5.29v-1.4h-3Z" transform="translate(-53 -98)"/>
    </g>
    <g id="icon-8" data-name="icon">
      <path id="x-2" data-name="x" class="cls-10" d="M95.519,1164.96l2.237-3.15,0.465,0.67,1.748,2.48h1.772l-3.168-4.22,2.942-3.76H99.793l-1.435,1.88c-0.2.26-.414,0.55-0.65,0.88-0.15-.24-0.348-0.53-0.593-0.89l-1.307-1.87H94l2.879,3.83-3.111,4.15h1.748Z" transform="translate(-53 -98)"/>
      <path id="_2-2" data-name="2" class="cls-3" d="M104.45,1159.6a2.254,2.254,0,0,1,.309-0.42q0.191-.21.905-0.87a9.249,9.249,0,0,0,.988-1.01,4.064,4.064,0,0,0,.6-1,2.726,2.726,0,0,0,.191-1.01,2.067,2.067,0,0,0-.666-1.57,2.559,2.559,0,0,0-1.832-.63,2.783,2.783,0,0,0-1.772.55,2.444,2.444,0,0,0-.844,1.78l1.5,0.16a1.454,1.454,0,0,1,.323-0.95,1,1,0,0,1,.752-0.28,1.016,1.016,0,0,1,.749.27,1.043,1.043,0,0,1,.271.77,1.691,1.691,0,0,1-.311.93,11.716,11.716,0,0,1-1.252,1.29,10.028,10.028,0,0,0-1.7,1.88,3.673,3.673,0,0,0-.516,1.51h5.291v-1.4h-3Z" transform="translate(-53 -98)"/>
    </g>
  </g>
  <g id="Subscript">
    <g id="icon-9" data-name="icon">
      <path id="x-3" data-name="x" class="cls-9" d="M61.52,1137.96l2.237-3.15,0.465,0.67,1.748,2.48h1.772l-3.167-4.22,2.943-3.76H65.793l-1.435,1.88c-0.2.26-.414,0.55-0.65,0.88-0.15-.24-0.348-0.53-0.593-0.89l-1.307-1.87H60l2.879,3.83-3.111,4.15H61.52Z" transform="translate(-53 -98)"/>
      <path id="_2-3" data-name="2" class="cls-2" d="M70.45,1140.6a2.322,2.322,0,0,1,.309-0.42q0.19-.21.905-0.87a9.2,9.2,0,0,0,.988-1.01,4.078,4.078,0,0,0,.6-1,2.724,2.724,0,0,0,.191-1.01,2.068,2.068,0,0,0-.666-1.57,2.558,2.558,0,0,0-1.832-.63,2.785,2.785,0,0,0-1.772.55,2.443,2.443,0,0,0-.843,1.78l1.5,0.16a1.456,1.456,0,0,1,.322-0.95,1,1,0,0,1,.752-0.28,1.015,1.015,0,0,1,.749.27,1.044,1.044,0,0,1,.271.77,1.687,1.687,0,0,1-.312.93,11.663,11.663,0,0,1-1.251,1.29,10.041,10.041,0,0,0-1.7,1.88,3.683,3.683,0,0,0-.516,1.51h5.29v-1.4h-3Z" transform="translate(-53 -98)"/>
    </g>
    <g id="icon-10" data-name="icon">
      <path id="x-4" data-name="x" class="cls-10" d="M95.519,1137.96l2.237-3.15,0.465,0.67,1.748,2.48h1.772l-3.168-4.22,2.942-3.76H99.793l-1.435,1.88c-0.2.26-.414,0.55-0.65,0.88-0.15-.24-0.348-0.53-0.593-0.89l-1.307-1.87H94l2.879,3.83-3.111,4.15h1.748Z" transform="translate(-53 -98)"/>
      <path id="_2-4" data-name="2" class="cls-3" d="M104.45,1140.6a2.254,2.254,0,0,1,.309-0.42q0.191-.21.905-0.87a9.249,9.249,0,0,0,.988-1.01,4.064,4.064,0,0,0,.6-1,2.726,2.726,0,0,0,.191-1.01,2.067,2.067,0,0,0-.666-1.57,2.559,2.559,0,0,0-1.832-.63,2.783,2.783,0,0,0-1.772.55,2.444,2.444,0,0,0-.844,1.78l1.5,0.16a1.454,1.454,0,0,1,.323-0.95,1,1,0,0,1,.752-0.28,1.016,1.016,0,0,1,.749.27,1.043,1.043,0,0,1,.271.77,1.691,1.691,0,0,1-.311.93,11.716,11.716,0,0,1-1.252,1.29,10.028,10.028,0,0,0-1.7,1.88,3.673,3.673,0,0,0-.516,1.51h5.291v-1.4h-3Z" transform="translate(-53 -98)"/>
    </g>
  </g>
  <g id="Justify_-_Block" data-name="Justify - Block">
    <path id="justi" class="cls-2" d="M57,1112v-1h7v1H57Zm0-3v-1H74v1H57Zm0-3v-1H74v1H57Zm0-3v-1H74v1H57Z" transform="translate(-53 -98)"/>
    <path id="justi-2" data-name="justi" class="cls-3" d="M91,1112v-1h7v1H91Zm0-3v-1h17v1H91Zm0-3v-1h17v1H91Zm0-3v-1h17v1H91Z" transform="translate(-53 -98)"/>
  </g>
  <g id="Justify_-_Center" data-name="Justify - Center">
    <path id="justi-3" data-name="justi" class="cls-2" d="M56.994,1076v-1H74.013v1H56.994ZM59,1078.97V1078H72.013v0.97H59ZM56.994,1082v-1H74.013v1H56.994ZM59,1084.97V1084H72.013v0.97H59Z" transform="translate(-53 -98)"/>
    <path id="justi_copy" data-name="justi copy" class="cls-3" d="M90.994,1076v-1h17.018v1H90.994ZM93,1078.97V1078h13.013v0.97H93ZM90.994,1082v-1h17.018v1H90.994ZM93,1084.97V1084h13.013v0.97H93Z" transform="translate(-53 -98)"/>
  </g>
  <g id="Justify_-_Right" data-name="Justify - Right">
    <path id="justi-4" data-name="justi" class="cls-2" d="M74,1049v-1H56.988v1H74Zm0,3v-1H64v1H74Zm0,3v-1H56.988v1H74Zm0,3v-1H64.007v1H74Z" transform="translate(-53 -98)"/>
    <path id="justi_copy_3" data-name="justi copy 3" class="cls-3" d="M108,1049v-1H90.988v1H108Zm0,3v-1H98v1h10Zm0,3v-1H90.988v1H108Zm0,3v-1H98.007v1H108Z" transform="translate(-53 -98)"/>
  </g>
  <g id="Justify_-_Left" data-name="Justify - Left">
    <path id="justi-5" data-name="justi" class="cls-2" d="M57,1022v-1H74.013v1H57Zm0,3v-1H67v1H57Zm0,3v-1H74.013v1H57Zm0,3v-1h9.993v1H57Z" transform="translate(-53 -98)"/>
    <path id="justi_copy_3-2" data-name="justi copy 3" class="cls-3" d="M91,1022v-1h17.012v1H91Zm0,3v-1h10v1H91Zm0,3v-1h17.012v1H91Zm0,3v-1h9.993v1H91Z" transform="translate(-53 -98)"/>
  </g>
  <g id="Prev_arrow" data-name="Prev arrow">
    <path id="_2-5" data-name="&gt;&gt;" class="cls-2" d="M61,999l9,6V993Z" transform="translate(-53 -98)"/>
    <path id="_3" data-name="&gt;&gt;" class="cls-3" d="M95,999l9,6V993Z" transform="translate(-53 -98)"/>
  </g>
  <g id="Next_arrow" data-name="Next arrow">
    <path id="_4" data-name="&gt;&gt;" class="cls-2" d="M70,972l-9,6V966Z" transform="translate(-53 -98)"/>
    <path id="_5" data-name="&gt;&gt;" class="cls-3" d="M104,972l-9,6V966Z" transform="translate(-53 -98)"/>
  </g>
  <g id="Source_View" data-name="Source View">
    <g id="Combined-14" data-name="Combined">
      <path id="code_brackets" data-name="code brackets" class="cls-2" d="M73.7,945.482l-5.657,5.657-1.121-1.121,4.549-4.549-4.549-4.549,1.121-1.122,5.657,5.657-0.014.014Zm-10.684,5.657-5.657-5.657,0.014-.013-0.014-.014,5.657-5.657,1.121,1.122-4.549,4.549,4.549,4.549Z" transform="translate(-53 -98)"/>
      <path id="code_brackets-2" data-name="code brackets" class="cls-3" d="M107.7,945.482l-5.657,5.657-1.121-1.121,4.549-4.549-4.549-4.549,1.121-1.122,5.657,5.657-0.014.014Zm-10.684,5.657-5.657-5.657,0.014-.013-0.014-.014,5.657-5.657,1.121,1.122-4.549,4.549,4.549,4.549Z" transform="translate(-53 -98)"/>
    </g>
  </g>
  <g id="Locate_Pin" data-name="Locate Pin">
    <g id="Combined-15" data-name="Combined">
      <path id="droplet_copy_4" data-name="droplet copy 4" class="cls-2" d="M69.791,916.816h0.084l-0.2.382a4.432,4.432,0,0,1-.242.456L65.5,925.07l-4.375-8.254h0.1A4.457,4.457,0,0,1,61,915.467a4.511,4.511,0,1,1,9.023,0A4.46,4.46,0,0,1,69.791,916.816ZM65.514,914a1.521,1.521,0,1,0,1.521,1.52A1.52,1.52,0,0,0,65.514,914Z" transform="translate(-53 -98)"/>
      <path id="droplet_copy_4-2" data-name="droplet copy 4" class="cls-3" d="M103.791,916.816h0.084l-0.2.382a4.551,4.551,0,0,1-.243.458L99.5,925.07l-4.375-8.254h0.1A4.457,4.457,0,0,1,95,915.467a4.511,4.511,0,1,1,9.023,0A4.463,4.463,0,0,1,103.791,916.816ZM99.514,914a1.521,1.521,0,1,0,1.521,1.52A1.52,1.52,0,0,0,99.514,914Z" transform="translate(-53 -98)"/>
    </g>
  </g>
  <g id="refresh">
    <g id="Combined-16" data-name="Combined">
      <g id="Icon-11" data-name="Icon">
        <path id="Revert" class="cls-3" d="M103.025,892c0-.011,0-0.021,0-0.031H105c0,0.01,0,.02,0,0.031h-1.972Zm1.871,1a5.973,5.973,0,0,1-11,2.078L92,896.969v-5h5l-1.609,1.609a3.981,3.981,0,0,0,7.478-.578H104.9Zm-0.365-2.031h-4l1.609-1.609a3.983,3.983,0,0,0-7.5.638H92.629a5.971,5.971,0,0,1,11.011-2.138l1.891-1.891v5h-1Z" transform="translate(-53 -98)"/>
      </g>
      <g id="Icon-12" data-name="Icon">
        <path id="Revert-2" data-name="Revert" class="cls-2" d="M70.9,893a5.973,5.973,0,0,1-11,2.078L58,896.969v-5h5l-1.609,1.609A3.981,3.981,0,0,0,68.869,893H70.9Zm-0.365-2.031h-4l1.609-1.609a3.983,3.983,0,0,0-7.5.638H58.629A5.971,5.971,0,0,1,69.64,887.86l1.891-1.891v5h-1Z" transform="translate(-53 -98)"/>
      </g>
    </g>
  </g>
  <g id="Image_-_insert" data-name="Image - insert">
    <g id="picture_inverse" data-name="picture inverse">
      <path class="cls-3" d="M90,856h20v16H90V856Zm1,1h18v14H91V857Zm1,13V858l4,8,2-4,4,6,2-2,3,4H92Zm13-11a2,2,0,1,1-2,2A2,2,0,0,1,105,859Z" transform="translate(-53 -98)"/>
    </g>
    <g id="picture">
      <path class="cls-2" d="M56,856H76v16H56V856Zm1,1H75v14H57V857Zm1,13V858l4,8,2-4,4,6,2-2,3,4H58Zm13-11a2,2,0,1,1-2,2A2,2,0,0,1,71,859Z" transform="translate(-53 -98)"/>
    </g>
  </g>
  <g id="Link_break" data-name="Link break">
    <g id="Combined-17" data-name="Combined">
      <path class="cls-2" d="M74.127,835.876l-2.764,2.763-0.829-.872,2.7-2.706a2.374,2.374,0,0,0-3.33-3.338l-2.351,2.354-0.886-.785,2.437-2.436A3.574,3.574,0,0,1,74.127,835.876Zm-7.11,8.074h-1v-4.969h1v4.969ZM64,831h1v4.969H64V831Zm-2.168,13.208a3.574,3.574,0,0,1-5.021-5.02l2.7-2.7,0.829,0.873L57.7,840a2.373,2.373,0,0,0,3.33,3.338l2.56-2.563,0.814,0.857Zm-2.217-10.949,0.707-.707,3,3-0.707.707Zm11.734,8.381-0.707.707-3-3,0.707-.707Z" transform="translate(-53 -98)"/>
      <path class="cls-3" d="M108.127,835.876l-2.764,2.763-0.829-.872,2.7-2.706a2.374,2.374,0,0,0-3.33-3.338l-2.351,2.354-0.886-.785,2.437-2.436A3.574,3.574,0,0,1,108.127,835.876Zm-7.11,8.074h-1v-4.969h1v4.969ZM98,831h1v4.969H98V831Zm-2.168,13.208a3.574,3.574,0,0,1-5.021-5.02l2.7-2.7,0.829,0.873L91.7,840a2.374,2.374,0,0,0,3.33,3.338l2.56-2.563,0.814,0.857Zm-2.217-10.949,0.707-.707,3,3-0.707.707Zm11.734,8.381-0.707.707-3-3,0.707-.707Z" transform="translate(-53 -98)"/>
    </g>
  </g>
  <g id="Link_open_in_new_window" data-name="Link open in new window">
    <g id="icon-13" data-name="icon">
      <g id="Combined-18" data-name="Combined">
        <path id="arrow" class="cls-2" d="M68,803l6,0v6H73v-4l-1,1-1,1-5,4,4-5,1-1,1-1H68v-1Zm-8,5v6a1,1,0,0,0,1,1h8a1,1,0,0,0,1-1v-4h1v5a1,1,0,0,1-1,1H60a1,1,0,0,1-1-1v-8a1,1,0,0,1,1-1h7v1H61A1,1,0,0,0,60,808Z" transform="translate(-53 -98)"/>
        <path id="arrow-2" data-name="arrow" class="cls-3" d="M107,809v-4l-1,1-1,1-5,4,4-5,1-1,1-1h-4v-1l6,0v6h-1Zm-13-1v6a1,1,0,0,0,1,1h8a1,1,0,0,0,1-1v-4h1v5a1,1,0,0,1-1,1H94a1,1,0,0,1-1-1v-8a1,1,0,0,1,1-1h7v1H95A1,1,0,0,0,94,808Z" transform="translate(-53 -98)"/>
      </g>
    </g>
  </g>
  <g id="Link_insert" data-name="Link insert">
    <g id="Combined-19" data-name="Combined">
      <g id="icon-14" data-name="icon">
        <path id="Shape_2_copy_10" data-name="Shape 2 copy 10" class="cls-2" d="M74.127,781.876l-5.289,5.288a3.373,3.373,0,0,1-4.745-.276,3.567,3.567,0,0,1-.927-3.721l1.242,0.177a2.325,2.325,0,0,0,.491,2.732,2.233,2.233,0,0,0,3.147.183l5.191-5.2a2.373,2.373,0,0,0-3.33-3.338l-1.33,1.332-0.755-.915,1.284-1.284A3.574,3.574,0,0,1,74.127,781.876Zm-7.534,1.749a2.324,2.324,0,0,0-.491-2.732,2.233,2.233,0,0,0-3.147-.184l-5.19,5.2a2.374,2.374,0,0,0,3.33,3.338l1.33-1.332,0.755,0.915-1.284,1.284a3.574,3.574,0,0,1-5.021-5.02l5.289-5.288a3.373,3.373,0,0,1,4.745.276,3.567,3.567,0,0,1,.927,3.721Z" transform="translate(-53 -98)"/>
      </g>
      <g id="icon-15" data-name="icon">
        <path id="Shape_2_copy_10-2" data-name="Shape 2 copy 10" class="cls-3" d="M108.127,781.876l-5.289,5.288a3.373,3.373,0,0,1-4.745-.276,3.567,3.567,0,0,1-.927-3.721l1.242,0.177a2.325,2.325,0,0,0,.491,2.732,2.232,2.232,0,0,0,3.146.183l5.191-5.2a2.373,2.373,0,0,0-3.33-3.338l-1.33,1.332-0.755-.915,1.285-1.284A3.574,3.574,0,0,1,108.127,781.876Zm-7.534,1.749a2.324,2.324,0,0,0-.492-2.732,2.232,2.232,0,0,0-3.146-.184l-5.191,5.2a2.374,2.374,0,0,0,3.33,3.338l1.33-1.332,0.755,0.915-1.285,1.284a3.574,3.574,0,0,1-5.021-5.02l5.289-5.288a3.373,3.373,0,0,1,4.745.276,3.568,3.568,0,0,1,.927,3.721Z" transform="translate(-53 -98)"/>
      </g>
    </g>
  </g>
  <g id="indent_--" data-name="indent &lt;--">
    <g id="icon-16" data-name="icon">
      <path id="arrow-3" data-name="arrow" class="cls-2" d="M63,757v-3H60v-2l-4.066,3.485L60,759v-2h3Z" transform="translate(-53 -98)"/>
      <path id="lines" class="cls-9" d="M75,749v1H65v-1H75Zm0,2v2H65v-2H75Zm-5,3v2H65v-2h5Zm5,6v1H65v-1H75Zm-7,2,0.013,1L65,763v-1h3Zm-4-13v1H60v-1h4Zm0,11v1H60v-1h4Zm0,2v1H60v-1h4Zm6-5v2H65v-2h5Zm-5-10h1v1H65v-1Zm0,17h1v1H65v-1Z" transform="translate(-53 -98)"/>
    </g>
    <g id="icon-17" data-name="icon">
      <path id="arrow-4" data-name="arrow" class="cls-3" d="M97,757v-3H94v-2l-4.066,3.485L94,759v-2h3Z" transform="translate(-53 -98)"/>
      <path id="lines-2" data-name="lines" class="cls-10" d="M109,749v1H99v-1h10Zm0,2v2H99v-2h10Zm-5,3v2H99v-2h5Zm5,6v1H99v-1h10Zm-7,2,0.013,1L99,763v-1h3Zm-4-13v1H94v-1h4Zm0,11v1H94v-1h4Zm0,2v1H94v-1h4Zm6-5v2H99v-2h5Zm-5-10h1v1H99v-1Zm0,17h1v1H99v-1Z" transform="translate(-53 -98)"/>
    </g>
  </g>
  <g id="indent_--_" data-name="indent --&gt;">
    <g id="icon-18" data-name="icon">
      <path id="arrow-5" data-name="arrow" class="cls-2" d="M56,730v-3h2.973v-2L63,728.485,58.973,732v-2H56Z" transform="translate(-53 -98)"/>
      <path id="lines-3" data-name="lines" class="cls-9" d="M75,722v1H65v-1H75Zm0,2v2H65v-2H75Zm-5,3v2H65v-2h5Zm5,6v1H65v-1H75Zm-7,2,0.013,1L65,736v-1h3Zm-4-13v1H60v-1h4Zm0,11v1H60v-1h4Zm0,2v1H60v-1h4Zm6-5v2H65v-2h5Zm-5-10h1v1H65v-1Zm0,17h1v1H65v-1Z" transform="translate(-53 -98)"/>
    </g>
    <g id="icon-19" data-name="icon">
      <path id="arrow-6" data-name="arrow" class="cls-3" d="M90,730v-3h3v-2l4.066,3.485L93,732v-2H90Z" transform="translate(-53 -98)"/>
      <path id="lines-4" data-name="lines" class="cls-10" d="M109,722v1H99v-1h10Zm0,2v2H99v-2h10Zm-5,3v2H99v-2h5Zm5,6v1H99v-1h10Zm-7,2,0.013,1L99,736v-1h3Zm-4-13v1H94v-1h4Zm0,11v1H94v-1h4Zm0,2v1H94v-1h4Zm6-5v2H99v-2h5Zm-5-10h1v1H99v-1Zm0,17h1v1H99v-1Z" transform="translate(-53 -98)"/>
    </g>
  </g>
  <g id="List_-_OL" data-name="List - OL">
    <g id="icon-20" data-name="icon">
      <path id="_1_2_3" data-name="1 2 3" class="cls-2" d="M59,699v-4l-0.938,0L57,695v1h1v3h1Zm1,5v-1H59l0.243-.6q0.136-.132.263-0.267a1.935,1.935,0,0,0,.226-0.291,1.409,1.409,0,0,0,.155-0.339,1.393,1.393,0,0,0,.056-0.411,1.286,1.286,0,0,0-.121-0.576,1.182,1.182,0,0,0-.325-0.408,1.365,1.365,0,0,0-.463-0.24,1.856,1.856,0,0,0-.536-0.078,1.629,1.629,0,0,0-.556.094,1.415,1.415,0,0,0-.466.272,1.479,1.479,0,0,0-.336.431c-0.089.169-.117,0.037-0.14,0.253l0.882,0.456a0.826,0.826,0,0,1,.178-0.465,0.522,0.522,0,0,1,.748-0.036,0.51,0.51,0,0,1,.136.368,0.682,0.682,0,0,1-.09.348,1.556,1.556,0,0,1-.237.305L57,703v1h3Zm0.01,3.391a0.88,0.88,0,0,0-.168-0.263,1.048,1.048,0,0,0-.258-0.2,1.154,1.154,0,0,0-.33-0.123v-0.017a0.988,0.988,0,0,0,.513-0.3,0.789,0.789,0,0,0,.2-0.548,0.9,0.9,0,0,0-.129-0.487A1.116,1.116,0,0,0,59.5,705.1a1.531,1.531,0,0,0-.477-0.2,2.279,2.279,0,0,0-.549-0.066,2.12,2.12,0,0,0-.516.064,1.761,1.761,0,0,0-.465.187,1.39,1.39,0,0,0-.369.308,1.23,1.23,0,0,0-.234.431l0.936,0.2a0.54,0.54,0,0,1,.207-0.316,0.609,0.609,0,0,1,.375-0.118,0.642,0.642,0,0,1,.372.111,0.362,0.362,0,0,1,.162.32,0.394,0.394,0,0,1-.063.233,0.448,0.448,0,0,1-.168.141,0.783,0.783,0,0,1-.237.072,1.889,1.889,0,0,1-.276.019H57.9v0.671h0.27a2.051,2.051,0,0,1,.312.025,1.036,1.036,0,0,1,.279.083,0.515,0.515,0,0,1,.2.156,0.4,0.4,0,0,1,.075.248,0.435,0.435,0,0,1-.057.231,0.475,0.475,0,0,1-.144.151,0.609,0.609,0,0,1-.2.085,0.878,0.878,0,0,1-.219.028,0.746,0.746,0,0,1-.474-0.146,0.69,0.69,0,0,1-.246-0.338l-0.936.225a1.292,1.292,0,0,0,.252.471,1.423,1.423,0,0,0,.393.319,1.87,1.87,0,0,0,.5.184,2.606,2.606,0,0,0,.561.06,2.265,2.265,0,0,0,.579-0.074,1.677,1.677,0,0,0,.513-0.225,1.208,1.208,0,0,0,.369-0.384,1.05,1.05,0,0,0,.141-0.552A0.811,0.811,0,0,0,60.01,707.391Z" transform="translate(-53 -98)"/>
      <path class="cls-2" d="M74,697v1H62v-1H74Zm0,5v1H62v-1H74Zm0,5v1H62v-1H74Z" transform="translate(-53 -98)"/>
    </g>
    <g id="icon-21" data-name="icon">
      <path id="_1_2_3-2" data-name="1 2 3" class="cls-3" d="M93,699v-4l-0.938,0L91,695v1h1v3h1Zm1,5v-1H93l0.243-.6q0.136-.132.263-0.267a1.935,1.935,0,0,0,.226-0.291,1.409,1.409,0,0,0,.155-0.339,1.393,1.393,0,0,0,.056-0.411,1.286,1.286,0,0,0-.121-0.576,1.182,1.182,0,0,0-.325-0.408,1.365,1.365,0,0,0-.463-0.24,1.856,1.856,0,0,0-.537-0.078,1.629,1.629,0,0,0-.556.094,1.415,1.415,0,0,0-.466.272,1.479,1.479,0,0,0-.336.431c-0.088.169-.117,0.037-0.14,0.253l0.882,0.456a0.826,0.826,0,0,1,.178-0.465,0.522,0.522,0,0,1,.748-0.036,0.51,0.51,0,0,1,.135.368,0.683,0.683,0,0,1-.09.348,1.556,1.556,0,0,1-.237.305L91,703v1h3Zm0.01,3.391a0.88,0.88,0,0,0-.168-0.263,1.049,1.049,0,0,0-.258-0.2,1.154,1.154,0,0,0-.33-0.123v-0.017a0.989,0.989,0,0,0,.513-0.3,0.789,0.789,0,0,0,.2-0.548,0.9,0.9,0,0,0-.129-0.487A1.116,1.116,0,0,0,93.5,705.1a1.531,1.531,0,0,0-.477-0.2,2.279,2.279,0,0,0-.549-0.066,2.12,2.12,0,0,0-.516.064,1.761,1.761,0,0,0-.465.187,1.39,1.39,0,0,0-.369.308,1.228,1.228,0,0,0-.234.431l0.936,0.2a0.54,0.54,0,0,1,.207-0.316,0.609,0.609,0,0,1,.375-0.118,0.642,0.642,0,0,1,.372.111,0.362,0.362,0,0,1,.162.32,0.394,0.394,0,0,1-.063.233,0.448,0.448,0,0,1-.168.141,0.783,0.783,0,0,1-.237.072,1.889,1.889,0,0,1-.276.019H91.9v0.671h0.27a2.052,2.052,0,0,1,.312.025,1.036,1.036,0,0,1,.279.083,0.516,0.516,0,0,1,.2.156,0.4,0.4,0,0,1,.075.248,0.435,0.435,0,0,1-.057.231,0.475,0.475,0,0,1-.144.151,0.609,0.609,0,0,1-.2.085,0.878,0.878,0,0,1-.219.028,0.746,0.746,0,0,1-.474-0.146,0.69,0.69,0,0,1-.246-0.338l-0.936.225a1.292,1.292,0,0,0,.252.471,1.423,1.423,0,0,0,.393.319,1.868,1.868,0,0,0,.5.184,2.606,2.606,0,0,0,.561.06,2.265,2.265,0,0,0,.579-0.074,1.677,1.677,0,0,0,.513-0.225,1.208,1.208,0,0,0,.369-0.384,1.05,1.05,0,0,0,.141-0.552A0.811,0.811,0,0,0,94.01,707.391Z" transform="translate(-53 -98)"/>
      <path class="cls-3" d="M108,697v1H96v-1h12Zm0,5v1H96v-1h12Zm0,5v1H96v-1h12Z" transform="translate(-53 -98)"/>
    </g>
  </g>
  <g id="List_-_UL" data-name="List - UL">
    <g id="icon-22" data-name="icon">
      <path class="cls-2" d="M74,670v1H62v-1H74Zm0,5v1H62v-1H74Zm0,5v1H62v-1H74ZM57,669h2v2H57v-2Zm0,5h2v2H57v-2Zm0,5h2v2H57v-2Z" transform="translate(-53 -98)"/>
      <path class="cls-3" d="M108,670v1H96v-1h12Zm0,5v1H96v-1h12Zm0,5v1H96v-1h12ZM91,669h2v2H91v-2Zm0,5h2v2H91v-2Zm0,5h2v2H91v-2Z" transform="translate(-53 -98)"/>
    </g>
  </g>
  <g id="table_CELL" data-name="table CELL">
    <g id="icon-23" data-name="icon">
      <path id="table" class="cls-5" d="M57,641H74v14H57V641Zm2,2h3v2H59v-2Zm5,0h3v2H64v-2Zm5,0h3v2H69v-2Zm-10,4h3v2H59v-2Zm5,0h3v2H64v-2Zm5,0h3v2H69v-2Zm-10,4h3v2H59v-2Zm5,0h3v2H64v-2Zm5,0h3v2H69v-2Z" transform="translate(-53 -98)"/>
      <path class="cls-2" d="M57,645h7v6H57v-6Zm2,2h3v2H59v-2Z" transform="translate(-53 -98)"/>
    </g>
    <g id="icon-24" data-name="icon">
      <path id="table-2" data-name="table" class="cls-6" d="M91,641h17v14H91V641Zm2,2h3v2H93v-2Zm5,0h3v2H98v-2Zm5,0h3v2h-3v-2Zm-10,4h3v2H93v-2Zm5,0h3v2H98v-2Zm5,0h3v2h-3v-2Zm-10,4h3v2H93v-2Zm5,0h3v2H98v-2Zm5,0h3v2h-3v-2Z" transform="translate(-53 -98)"/>
      <path class="cls-3" d="M91,645h7v6H91v-6Zm2,2h3v2H93v-2Z" transform="translate(-53 -98)"/>
    </g>
  </g>
  <g id="table_COL" data-name="table COL">
    <g id="icon-25" data-name="icon">
      <path id="table-3" data-name="table" class="cls-5" d="M57,614H74v14H57V614Zm2,2h3v2H59v-2Zm5,0h3v2H64v-2Zm5,0h3v2H69v-2Zm-10,4h3v2H59v-2Zm5,0h3v2H64v-2Zm5,0h3v2H69v-2Zm-10,4h3v2H59v-2Zm5,0h3v2H64v-2Zm5,0h3v2H69v-2Z" transform="translate(-53 -98)"/>
      <path class="cls-2" d="M63,614h5v14H63V614Zm1,2h3v2H64v-2Zm0,4h3v2H64v-2Zm0,4h3v2H64v-2Z" transform="translate(-53 -98)"/>
    </g>
    <g id="icon-26" data-name="icon">
      <path id="table-4" data-name="table" class="cls-6" d="M91,614h17v14H91V614Zm2,2h3v2H93v-2Zm5,0h3v2H98v-2Zm5,0h3v2h-3v-2Zm-10,4h3v2H93v-2Zm5,0h3v2H98v-2Zm5,0h3v2h-3v-2Zm-10,4h3v2H93v-2Zm5,0h3v2H98v-2Zm5,0h3v2h-3v-2Z" transform="translate(-53 -98)"/>
      <path class="cls-3" d="M97,614h5v14H97V614Zm1,2h3v2H98v-2Zm0,4h3v2H98v-2Zm0,4h3v2H98v-2Z" transform="translate(-53 -98)"/>
    </g>
  </g>
  <g id="table_ROW" data-name="table ROW">
    <g id="icon-27" data-name="icon">
      <path class="cls-5" d="M57,587H74v14H57V587Zm2,2h3v2H59v-2Zm5,0h3v2H64v-2Zm5,0h3v2H69v-2Zm-10,4h3v2H59v-2Zm5,0h3v2H64v-2Zm5,0h3v2H69v-2Zm-10,4h3v2H59v-2Zm5,0h3v2H64v-2Zm5,0h3v2H69v-2Z" transform="translate(-53 -98)"/>
      <path class="cls-2" d="M57,592H74v4H57v-4Zm2,1h3v2H59v-2Zm5,0h3v2H64v-2Zm5,0h3v2H69v-2Z" transform="translate(-53 -98)"/>
    </g>
    <g id="icon-28" data-name="icon">
      <path class="cls-6" d="M91,587h17v14H91V587Zm2,2h3v2H93v-2Zm5,0h3v2H98v-2Zm5,0h3v2h-3v-2Zm-10,4h3v2H93v-2Zm5,0h3v2H98v-2Zm5,0h3v2h-3v-2Zm-10,4h3v2H93v-2Zm5,0h3v2H98v-2Zm5,0h3v2h-3v-2Z" transform="translate(-53 -98)"/>
      <path class="cls-3" d="M91,592h17v4H91v-4Zm2,1h3v2H93v-2Zm5,0h3v2H98v-2Zm5,0h3v2h-3v-2Z" transform="translate(-53 -98)"/>
    </g>
  </g>
  <g id="table-5" data-name="table">
    <path class="cls-2" d="M57,560H74v14H57V560Zm2,2h3v2H59v-2Zm5,0h3v2H64v-2Zm5,0h3v2H69v-2Zm-10,4h3v2H59v-2Zm5,0h3v2H64v-2Zm5,0h3v2H69v-2Zm-10,4h3v2H59v-2Zm5,0h3v2H64v-2Zm5,0h3v2H69v-2Z" transform="translate(-53 -98)"/>
    <path class="cls-3" d="M91,560h17v14H91V560Zm2,2h3v2H93v-2Zm5,0h3v2H98v-2Zm5,0h3v2h-3v-2Zm-10,4h3v2H93v-2Zm5,0h3v2H98v-2Zm5,0h3v2h-3v-2Zm-10,4h3v2H93v-2Zm5,0h3v2H98v-2Zm5,0h3v2h-3v-2Z" transform="translate(-53 -98)"/>
  </g>
  <g id="Anchor_ID" data-name="Anchor ID">
    <g id="icon-29" data-name="icon">
      <path class="cls-2" d="M72.983,542.236l-0.053-2.7a0.515,0.515,0,0,0-.479-0.526,2.9,2.9,0,0,0-.9.65l-1.825,1.5a0.65,0.65,0,0,0-.106.119,0.473,0.473,0,0,0,.169.739,0.784,0.784,0,0,0,.177.1l0.162,0.854A5.349,5.349,0,0,1,65.979,547l0-10.058a2.586,2.586,0,0,0,1.987-2.6A2.454,2.454,0,0,0,65.539,532a2.573,2.573,0,0,0-2.554,2.343,2.627,2.627,0,0,0,2,2.6l0,10.074c-1.679-.315-3.335-1.524-4.3-4.075l0.152-.918a0.777,0.777,0,0,0,.178-0.1c0.29-.226.667-0.343,0.449-0.645a0.559,0.559,0,0,0-.1-0.119l-2.013-1.5a3.333,3.333,0,0,0-.955-0.71c-0.3,0-.3.725-0.356,1.024l-0.056,2.449a0.724,0.724,0,0,0-.015.16,0.6,0.6,0,0,0,.687.561,0.586,0.586,0,0,0,.193-0.03l0.907,0.1C60.6,545.9,62.646,548,65.5,548s4.9-2.1,5.744-4.787l0.906-.16a0.561,0.561,0,0,0,.193.03A0.671,0.671,0,0,0,73,542.4,0.726,0.726,0,0,0,72.983,542.236ZM65.5,533a1.5,1.5,0,1,1-1.5,1.5A1.5,1.5,0,0,1,65.5,533Z" transform="translate(-53 -98)"/>
      <path class="cls-3" d="M106.983,542.236l-0.053-2.7a0.516,0.516,0,0,0-.479-0.526,2.906,2.906,0,0,0-.9.65l-1.824,1.5a0.616,0.616,0,0,0-.106.119,0.473,0.473,0,0,0,.169.739,0.788,0.788,0,0,0,.177.1l0.162,0.854A5.349,5.349,0,0,1,99.979,547l0-10.058a2.587,2.587,0,0,0,1.987-2.6A2.454,2.454,0,0,0,99.539,532a2.573,2.573,0,0,0-2.554,2.343,2.627,2.627,0,0,0,2,2.6l0,10.074c-1.679-.315-3.335-1.524-4.3-4.075l0.152-.918a0.778,0.778,0,0,0,.178-0.1c0.29-.226.667-0.343,0.449-0.645a0.555,0.555,0,0,0-.1-0.119l-2.013-1.5a3.333,3.333,0,0,0-.955-0.71c-0.3,0-.3.725-0.356,1.024l-0.056,2.449a0.724,0.724,0,0,0-.016.16,0.6,0.6,0,0,0,.687.561,0.585,0.585,0,0,0,.193-0.03l0.907,0.1C94.6,545.9,96.646,548,99.5,548s4.9-2.1,5.745-4.787l0.906-.16a0.558,0.558,0,0,0,.193.03A0.672,0.672,0,0,0,107,542.4,0.7,0.7,0,0,0,106.983,542.236ZM99.5,533a1.5,1.5,0,1,1-1.5,1.5A1.5,1.5,0,0,1,99.5,533Z" transform="translate(-53 -98)"/>
    </g>
  </g>
  <g id="Class">
    <g id="new_Paint_Drop" data-name="new Paint Drop">
      <path id="droplet" class="cls-3" d="M98.725,505.746a1.945,1.945,0,0,0,.2-0.642c0.037-.18.11-0.087,0.173-0.007l0.06,0.369a3.547,3.547,0,0,0,.364,1.09,0.676,0.676,0,0,0,.164.374,3.58,3.58,0,0,0,.485.932l0.242,0.365a3.016,3.016,0,0,0,.507.805,0.455,0.455,0,0,0,.194.273l0.551,0.813,0.276,0.386a4.25,4.25,0,0,0,.593.868l0.146,0.267,0.556,0.951,0.1,0.189q0.18,0.452.358,0.9c0.05,0.156.1,0.311,0.152,0.467q0.077,0.588.155,1.177c0,0.154,0,.308,0,0.461a4.523,4.523,0,0,1-2.547,3.616,7.093,7.093,0,0,1-2.143.6L98.8,520l-1.315-.213a0.407,0.407,0,0,0-.3-0.089l-1.015-.479-0.316-.236-0.62-.54a0.632,0.632,0,0,0-.273-0.284l-0.528-.817-0.144-.375-0.274-1.085c-0.005-.153-0.01-0.307-0.015-0.46a7.153,7.153,0,0,1,.3-1.58l0.237-.7c0.542-.994,1.142-1.96,1.76-2.918l0.723-1.084a12.3,12.3,0,0,0,1.5-2.766A1.315,1.315,0,0,0,98.725,505.746Zm0.317,4.1a0.716,0.716,0,0,0,.052-0.862l-0.5.852c-0.23.275-.471,0.547-0.689,0.827a14.115,14.115,0,0,0-1.989,2.7,1.9,1.9,0,0,0-.37.829,2.922,2.922,0,0,0-.251,1.828,1.171,1.171,0,0,0,1.216.962,0.975,0.975,0,0,0,.925-1.123,6.6,6.6,0,0,1,.39-3.009l0.349-.837A9.76,9.76,0,0,0,99.042,509.843Z" transform="translate(-53 -98)"/>
      <path id="droplet-2" data-name="droplet" class="cls-2" d="M64.725,505.746a1.945,1.945,0,0,0,.2-0.642c0.037-.18.11-0.087,0.173-0.007l0.06,0.369a3.544,3.544,0,0,0,.364,1.09,0.676,0.676,0,0,0,.164.374,3.577,3.577,0,0,0,.485.932l0.242,0.365a3.024,3.024,0,0,0,.508.805,0.452,0.452,0,0,0,.194.273l0.551,0.813,0.276,0.386a4.247,4.247,0,0,0,.593.868l0.146,0.267,0.556,0.951,0.1,0.189,0.357,0.9,0.152,0.467q0.078,0.588.155,1.177c0,0.154,0,.308.005,0.461a4.522,4.522,0,0,1-2.548,3.616,7.083,7.083,0,0,1-2.143.6L64.8,520l-1.315-.213a0.407,0.407,0,0,0-.3-0.089l-1.015-.479-0.316-.236-0.621-.54a0.632,0.632,0,0,0-.273-0.284l-0.527-.817-0.144-.375-0.274-1.085c-0.005-.153-0.01-0.307-0.015-0.46a7.153,7.153,0,0,1,.3-1.58l0.238-.7c0.542-.994,1.142-1.96,1.759-2.918l0.723-1.084a12.3,12.3,0,0,0,1.5-2.766A1.315,1.315,0,0,0,64.725,505.746Zm0.317,4.1a0.716,0.716,0,0,0,.052-0.862l-0.5.852c-0.23.275-.47,0.547-0.688,0.827a14.115,14.115,0,0,0-1.989,2.7,1.9,1.9,0,0,0-.37.829,2.922,2.922,0,0,0-.251,1.828,1.171,1.171,0,0,0,1.216.962,0.975,0.975,0,0,0,.925-1.123,6.6,6.6,0,0,1,.39-3.009l0.349-.837A9.76,9.76,0,0,0,65.042,509.843Z" transform="translate(-53 -98)"/>
    </g>
  </g>
  <g id="abbrviat...">
    <g id="icon-30" data-name="icon">
      <path id="quotes" class="cls-2" d="M65,490h2v2H65v-2Zm4,0h2v2H69v-2Zm4,0h2v2H73v-2Zm-10.476-5a9.455,9.455,0,0,1,.45-2.895,2.5,2.5,0,0,1,1.258-1.064l-0.683-1.087a4.181,4.181,0,0,0-2.065,1.879,8.076,8.076,0,0,0-.5,3.263v2.915H64V485h-1.48Zm-4,0a9.458,9.458,0,0,1,.45-2.895,2.5,2.5,0,0,1,1.258-1.064l-0.683-1.087a4.18,4.18,0,0,0-2.065,1.879,8.074,8.074,0,0,0-.5,3.263v2.915H60V485h-1.48Z" transform="translate(-53 -98)"/>
    </g>
    <g id="icon-31" data-name="icon">
      <path id="quotes-2" data-name="quotes" class="cls-3" d="M99,490h2v2H99v-2Zm4,0h2v2h-2v-2Zm4,0h2v2h-2v-2Zm-10.476-5a9.455,9.455,0,0,1,.45-2.895,2.5,2.5,0,0,1,1.258-1.064l-0.683-1.087a4.181,4.181,0,0,0-2.065,1.879,8.076,8.076,0,0,0-.5,3.263v2.915H98V485h-1.48Zm-4,0a9.458,9.458,0,0,1,.45-2.895,2.5,2.5,0,0,1,1.258-1.064l-0.683-1.087a4.18,4.18,0,0,0-2.065,1.879,8.074,8.074,0,0,0-.5,3.263v2.915H94V485h-1.48Z" transform="translate(-53 -98)"/>
    </g>
  </g>
  <g id="accessibility">
    <path class="cls-2" d="M65.5,450a9.5,9.5,0,1,1-9.5,9.5A9.5,9.5,0,0,1,65.5,450Zm0,1a8.5,8.5,0,1,1-8.5,8.5A8.5,8.5,0,0,1,65.5,451ZM64,453.5a1.5,1.5,0,1,1,.439,1.058A1.441,1.441,0,0,1,64,453.5Zm-3.8,6.623a0.632,0.632,0,0,1,.039-0.931l3.232-2.939a1.649,1.649,0,0,1,.425-0.213,1.781,1.781,0,0,1,.5-0.058h2.165a1.818,1.818,0,0,1,.5.058,1.649,1.649,0,0,1,.425.213c0.129,0.1.6,0.549,1.411,1.272s1.419,1.28,1.883,1.667a0.635,0.635,0,0,1,.039.931,0.614,0.614,0,0,1-.928.078c-0.258-.233-0.639-0.588-1.206-1.067s-0.992-.859-1.276-1.143q0,0.038-.058,0a1.269,1.269,0,0,0-.135-0.078,0.3,0.3,0,0,0-.116-0.039c-0.077,0-.116.091-0.116,0.272v1.143a7.182,7.182,0,0,0-.016,1.338q0.039,0.426.039,0.5l1.06,4.018a0.787,0.787,0,0,1-.657.969,0.814,0.814,0,0,1-.967-0.659,24.512,24.512,0,0,0-.711-3.337,0.742,0.742,0,0,0-.193-0.466,0.3,0.3,0,0,0-.116.1,0.241,0.241,0,0,0-.039.136,0.638,0.638,0,0,1-.019.155l-0.019.078c0,0.025-.064-0.587-0.193.163s-0.32,1.365-.449,2.089l-0.193,1.085a0.992,0.992,0,0,1-.367.524,0.851,0.851,0,0,1-.6.135,0.778,0.778,0,0,1-.657-0.969l1.06-4.057c0.077-.491.022-1.46,0.022-2.908,0-.206-0.039-0.31-0.116-0.31a0.569,0.569,0,0,0-.309.155l-2.42,2.172a0.61,0.61,0,0,1-.928-0.078h0Z" transform="translate(-53 -98)"/>
    <path class="cls-3" d="M99.5,450a9.5,9.5,0,1,1-9.5,9.5A9.5,9.5,0,0,1,99.5,450Zm0,1a8.5,8.5,0,1,1-8.5,8.5A8.5,8.5,0,0,1,99.5,451ZM98,453.5a1.5,1.5,0,1,1,.439,1.058A1.442,1.442,0,0,1,98,453.5Zm-3.8,6.623a0.632,0.632,0,0,1,.039-0.931l3.232-2.939a1.649,1.649,0,0,1,.425-0.213,1.781,1.781,0,0,1,.5-0.058h2.165a1.823,1.823,0,0,1,.5.058,1.651,1.651,0,0,1,.425.213c0.129,0.1.6,0.549,1.411,1.272s1.419,1.28,1.883,1.667a0.635,0.635,0,0,1,.039.931,0.614,0.614,0,0,1-.928.078c-0.258-.233-0.639-0.588-1.206-1.067s-0.993-.859-1.276-1.143c0,0.025-.02.025-0.058,0a1.264,1.264,0,0,0-.136-0.078,0.291,0.291,0,0,0-.116-0.039c-0.077,0-.116.091-0.116,0.272v1.143a7.283,7.283,0,0,0-.016,1.338q0.039,0.426.039,0.5l1.06,4.018a0.787,0.787,0,0,1-.657.969,0.814,0.814,0,0,1-.967-0.659,24.5,24.5,0,0,0-.71-3.337,0.742,0.742,0,0,0-.193-0.466,0.3,0.3,0,0,0-.116.1,0.241,0.241,0,0,0-.039.136,0.638,0.638,0,0,1-.019.155l-0.019.078c0,0.025-.064-0.587-0.193.163s-0.32,1.365-.449,2.089l-0.193,1.085a0.992,0.992,0,0,1-.367.524,0.851,0.851,0,0,1-.6.135,0.778,0.778,0,0,1-.657-0.969l1.06-4.057c0.077-.491.022-1.46,0.022-2.908,0-.206-0.039-0.31-0.116-0.31a0.569,0.569,0,0,0-.309.155l-2.42,2.172a0.61,0.61,0,0,1-.928-0.078h0Z" transform="translate(-53 -98)"/>
  </g>
  <g id="merge">
    <g id="icon-32" data-name="icon">
      <path id="Rounded_Rectangle_2" data-name="Rounded Rectangle 2" class="cls-2" d="M60,424h7a2,2,0,0,1,2,2v7a2,2,0,0,1-2,2H60a2,2,0,0,1-2-2v-7A2,2,0,0,1,60,424Zm0,1h7a1,1,0,0,1,1,1v7a1,1,0,0,1-1,1H60a1,1,0,0,1-1-1v-7A1,1,0,0,1,60,425Z" transform="translate(-53 -98)"/>
      <path id="Rounded_Rectangle_2-2" data-name="Rounded Rectangle 2" class="cls-2" d="M64,428h7a2,2,0,0,1,2,2v7a2,2,0,0,1-2,2H64a2,2,0,0,1-2-2v-7A2,2,0,0,1,64,428Zm0,1h7a1,1,0,0,1,1,1v7a1,1,0,0,1-1,1H64a1,1,0,0,1-1-1v-7A1,1,0,0,1,64,429Zm0,1h3v3H64v-3Z" transform="translate(-53 -98)"/>
    </g>
    <g id="icon-33" data-name="icon">
      <path id="Rounded_Rectangle_2-3" data-name="Rounded Rectangle 2" class="cls-3" d="M94,424h7a2,2,0,0,1,2,2v7a2,2,0,0,1-2,2H94a2,2,0,0,1-2-2v-7A2,2,0,0,1,94,424Zm0,1h7a1,1,0,0,1,1,1v7a1,1,0,0,1-1,1H94a1,1,0,0,1-1-1v-7A1,1,0,0,1,94,425Z" transform="translate(-53 -98)"/>
      <path id="Rounded_Rectangle_2-4" data-name="Rounded Rectangle 2" class="cls-3" d="M98,428h7a2,2,0,0,1,2,2v7a2,2,0,0,1-2,2H98a2,2,0,0,1-2-2v-7A2,2,0,0,1,98,428Zm0,1h7a1,1,0,0,1,1,1v7a1,1,0,0,1-1,1H98a1,1,0,0,1-1-1v-7A1,1,0,0,1,98,429Zm0,1h3v3H98v-3Z" transform="translate(-53 -98)"/>
    </g>
  </g>
  <g id="add_Right" data-name="add Right">
    <g id="Combined-20" data-name="Combined">
      <path id="up_arrow" data-name="up arrow" class="cls-2" d="M68,409v-8l5.941,4.043Zm-5,0H61v-3H58v-2h3v-3h2v3h3v2H63v3Z" transform="translate(-53 -98)"/>
      <path id="up_arrow-2" data-name="up arrow" class="cls-3" d="M102,409v-8l5.941,4.043Zm-5,0H95v-3H92v-2h3v-3h2v3h3v2H97v3Z" transform="translate(-53 -98)"/>
    </g>
  </g>
  <g id="add_Left" data-name="add Left">
    <g id="Combined-21" data-name="Combined">
      <path id="up_arrow-3" data-name="up arrow" class="cls-2" d="M73,379H69.988v3H67.98v-3H65v-2h2.98v-3h2.008v3H73v2Zm-10-5v8l-6-3.957Z" transform="translate(-53 -98)"/>
      <path id="up_arrow-4" data-name="up arrow" class="cls-3" d="M107,379h-3v3h-2v-3H99v-2h3v-3h2v3h3v2Zm-10-5v8l-6-3.957Z" transform="translate(-53 -98)"/>
    </g>
  </g>
  <g id="move">
    <g id="Combined-22" data-name="Combined">
      <path id="arrow_copy_6" data-name="arrow copy 6" class="cls-2" d="M74,351.48L71,354v-2H66v5h2l-2.48,3L63,357h2v-5H60v2l-3-2.52L60,349v2h5v-5H63l2.52-3L68,346H66v5h5v-2Z" transform="translate(-53 -98)"/>
      <path id="arrow_copy_6-2" data-name="arrow copy 6" class="cls-3" d="M108,351.48L105,354v-2h-5v5h2l-2.48,3L97,357h2v-5H94v2l-3-2.52L94,349v2h5v-5H97l2.52-3,2.48,3h-2v5h5v-2Z" transform="translate(-53 -98)"/>
    </g>
  </g>
  <g id="split_vert" data-name="split vert">
    <g id="icon-34" data-name="icon">
      <path id="icon-35" data-name="icon" class="cls-2" d="M63,325v-3H61v-2l-4,3.5,4,3.5v-2h2Zm5,0v-3h2v-2l4,3.5L70,327v-2H68Zm-2,5H65V317h1v13Z" transform="translate(-53 -98)"/>
    </g>
    <g id="icon-36" data-name="icon">
      <path id="icon-37" data-name="icon" class="cls-3" d="M97,325v-3H95v-2l-4,3.5,4,3.5v-2h2Zm5,0v-3h2v-2l4,3.5-4,3.5v-2h-2Zm-2,5H99V317h1v13Z" transform="translate(-53 -98)"/>
    </g>
  </g>
  <g id="split_horiz" data-name="split horiz">
    <g id="icon-38" data-name="icon">
      <path id="icon-39" data-name="icon" class="cls-3" d="M98,295h3v-2h2l-3.5-4L96,293h2v2Zm0,5h3v2h2l-3.5,4L96,302h2v-2Zm-5-2v-1h13v1H93Z" transform="translate(-53 -98)"/>
    </g>
    <g id="icon-40" data-name="icon">
      <path id="icon-41" data-name="icon" class="cls-2" d="M64,295h3v-2h2l-3.5-4L62,293h2v2Zm0,5h3v2h2l-3.5,4L62,302h2v-2Zm-5-2v-1H72v1H59Z" transform="translate(-53 -98)"/>
    </g>
  </g>
  <g id="Right_arrow" data-name="Right arrow">
    <path id="up_right" data-name="up right" class="cls-2" d="M59,272v-3h7v-3l6,4.469L66,275v-3H59Z" transform="translate(-53 -98)"/>
    <path id="up_right-2" data-name="up right" class="cls-3" d="M93,272v-3h7v-3l6,4.469L100,275v-3H93Z" transform="translate(-53 -98)"/>
  </g>
  <g id="Left_arrow" data-name="Left arrow">
    <path id="up_right-3" data-name="up right" class="cls-2" d="M72,245v-3H65v-3l-6,4.469L65,248v-3h7Z" transform="translate(-53 -98)"/>
    <path id="up_right-4" data-name="up right" class="cls-3" d="M106,245v-3H99v-3l-6,4.469L99,248v-3h7Z" transform="translate(-53 -98)"/>
  </g>
  <g id="add_Down" data-name="add Down">
    <g id="Combined-23" data-name="Combined">
      <path id="up_arrow-5" data-name="up arrow" class="cls-2" d="M66,217H64v-3H61v-2h3v-3h2v3h3v2H66v3Zm-2,2h5l-4.011,5.972L61,219h3Z" transform="translate(-53 -98)"/>
      <path id="up_arrow-6" data-name="up arrow" class="cls-3" d="M100,217H98v-3H95v-2h3v-3h2v3h3v2h-3v3Zm-2,2h5l-4.011,5.972L95,219h3Z" transform="translate(-53 -98)"/>
    </g>
  </g>
  <g id="add_Up" data-name="add Up">
    <g id="Combined-24" data-name="Combined">
      <path id="up_arrow-7" data-name="up arrow" class="cls-2" d="M66,192.969v3H64v-3H61v-2h3v-3h2v3h3v2H66Zm-2-7H61L64.989,180,69,185.969H64Z" transform="translate(-53 -98)"/>
      <path id="up_arrow-8" data-name="up arrow" class="cls-3" d="M100,192.969v3H98v-3H95v-2h3v-3h2v3h3v2h-3Zm-2-7H95L98.989,180,103,185.969H98Z" transform="translate(-53 -98)"/>
    </g>
  </g>
  <g id="Delete">
    <g id="Combined-25" data-name="Combined">
      <path id="Icon_-_Delete" data-name="Icon - Delete" class="cls-2" d="M70,159v7a1.913,1.913,0,0,1-1.969,2H62.97A1.88,1.88,0,0,1,61,166.065V159H60v-2h2.5v-1.5A0.5,0.5,0,0,1,63,155h5a0.5,0.5,0,0,1,.5.5V157H71v2H70Zm-5,6.5a0.5,0.5,0,0,0,1,0v-5a0.5,0.5,0,0,0-1,0v5Zm-2-5v5a0.5,0.5,0,0,0,1,0v-5A0.5,0.5,0,0,0,63,160.5Zm4-4.5H64a1.548,1.548,0,0,0-.371,1h3.743A1.548,1.548,0,0,0,67,156Zm1,4.5a0.5,0.5,0,0,0-1,0v5a0.5,0.5,0,0,0,1,0v-5Z" transform="translate(-53 -98)"/>
      <path id="Icon_-_Delete-2" data-name="Icon - Delete" class="cls-3" d="M104,159v7a1.913,1.913,0,0,1-1.969,2H96.97A1.88,1.88,0,0,1,95,166.065V159H94v-2h2.5v-1.5A0.5,0.5,0,0,1,97,155h5a0.5,0.5,0,0,1,.5.5V157H105v2h-1Zm-5,6.5a0.5,0.5,0,1,0,1,0v-5a0.5,0.5,0,1,0-1,0v5Zm-2-5v5a0.5,0.5,0,0,0,1,0v-5A0.5,0.5,0,0,0,97,160.5Zm4-4.5H98a1.548,1.548,0,0,0-.371,1h3.743A1.549,1.549,0,0,0,101,156Zm1,4.5a0.5,0.5,0,0,0-1,0v5a0.5,0.5,0,0,0,1,0v-5Z" transform="translate(-53 -98)"/>
    </g>
  </g>
  <g id="down_arrow" data-name="down arrow">
    <path id="up_arrow-9" data-name="up arrow" class="cls-2" d="M64.008,127.987h3V136h3l-4.5,5.987L61.008,136h3v-8.017Z" transform="translate(-53 -98)"/>
    <path id="up_arrow-10" data-name="up arrow" class="cls-3" d="M98.008,127.987h3V136h3l-4.5,5.987L95.008,136h3v-8.017Z" transform="translate(-53 -98)"/>
  </g>
  <g id="Up_arrow-11" data-name="Up arrow">
    <path id="up_arrow-12" data-name="up arrow" class="cls-2" d="M64.008,115.013h3v-8.035h3l-4.5-6-4.5,6h3v8.035Z" transform="translate(-53 -98)"/>
    <path id="up_arrow-13" data-name="up arrow" class="cls-3" d="M97.008,115.013h3v-8.035h3l-4.5-6-4.5,6h3v8.035Z" transform="translate(-53 -98)"/>
  </g>
</svg>
