<svg xmlns="http://www.w3.org/2000/svg" width="59" height="1615" viewBox="0 0 59 1615"><defs><style>.cls-1, .cls-4, .cls-6, .cls-7, .cls-9 { fill: #2b2b2b; } .cls-1 { fill-opacity: 0; } .cls-10, .cls-2, .cls-3, .cls-4, .cls-5, .cls-6, .cls-9 { fill-rule: evenodd; } .cls-10, .cls-3, .cls-5, .cls-8 { fill: #fff; } .cls-4, .cls-5 { opacity: 0.3; } .cls-10, .cls-9 { opacity: 0.4; }</style></defs><path id="Sprite_Mask_BG" class="cls-1" d="M0 0h59v1615h-59z"/><g id="Shapes"><path class="cls-2" d="M17 1606h-1v-8h1v8zm4 1v1h-13v-1h13zm-14-7h1v8h-1v-8zm-4-1v-1h13v1h-13zm4-5h1v3h-1v-3zm10 18h-1v-3h1v3z"/><path class="cls-3" d="M51 1606h-1v-8h1v8zm4 1v1h-13v-1h13zm-14-7h1v8h-1v-8zm-4-1v-1h13v1h-13zm4-5h1v3h-1v-3zm10 18h-1v-3h1v3z"/></g><g id="Combined"><path class="cls-4" d="M76 1680v2h-2v-2h-1v2h-2v-2h-1v2h-2v-2h-1v2h-10a2 2 0 0 1-2-2v-14h19a2 2 0 0 1 2 2v5h-2v1h2v2h-2v1h2v2h-2v1h2zm-2-11a1 1 0 0 0-1-1h-9v-2h-1v2h-2v-2h-1v2h-2v-2h-1v2h1a1 1 0 0 0-1 1v-1h-2v1h2v2h-2v1h2v2h-2v1h2v4a1 1 0 0 0 1 1h15a1 1 0 0 0 1-1v-10z" transform="translate(-53 -98)"/><path class="cls-5" d="M110 1680v2h-2v-2h-1v2h-2v-2h-1v2h-2v-2h-1v2h-10a2 2 0 0 1-2-2v-5h2v4a1 1 0 0 0 1 1h15a1 1 0 0 0 1-1v1h2zm0-3v2h-2v-2h2zm-2-3h2v2h-2v-2zm0-5a1 1 0 0 0-1-1h-9v-2h-1v2h-2v-2h-1v2h-2v-2h-1v2h1a1 1 0 0 0-1 1v-1h-2v-2h19a2 2 0 0 1 2 2v5h-2v-4zm-19 2v-2h2v2h-2zm2 3h-2v-2h2v2z" transform="translate(-53 -98)"/><path id="PRE_copy" class="cls-6" d="M60 1677v-2h1a2.589 2.589 0 0 0 .8-.11 1.428 1.428 0 0 0 .551-.29 1.58 1.58 0 0 0 .447-.59 3.562 3.562 0 0 0 .176-1.18 2.07 2.07 0 0 0-.3-1.17 1.38 1.38 0 0 0-.757-.58 14.989 14.989 0 0 0-1.917-.08h-1v6h1zm1-5a1.014 1.014 0 0 1 .44.04.752.752 0 0 1 .427.27.836.836 0 0 1 .169.54 2.45 2.45 0 0 1-.12.78.716.716 0 0 1-.332.29.981.981 0 0 1-.584.08h-1v-2h1zm4 5l-.011-2.05h.228c.258 0 .067.03.186.07a.831.831 0 0 1 .338.25 2.788 2.788 0 0 1 .593.69l.813 1.02h1.346l-.68-.89a3.523 3.523 0 0 0-.641-.78 2.652 2.652 0 0 0-.6-.5 1.753 1.753 0 0 0 1.1-.55 2.1 2.1 0 0 0 .328-1.26 3.3 3.3 0 0 0-.2-1.28 1.334 1.334 0 0 0-.648-.57 1.583 1.583 0 0 0-1.152-.15h-2v6h1zm-.011-5h1.011c.456 0 .217.01.308.02a.643.643 0 0 1 .424.24 1.722 1.722 0 0 1 .268.74 1.846 1.846 0 0 1-.232.67.61.61 0 0 1-.316.25 3.841 3.841 0 0 1-1.011.08h-.452v-2zm7.011 5v-1h-2v-2h2v-1h-2v-1h2v-1h-3v6h3z" transform="translate(-53 -98)"/><path id="PRE_copy-2" class="cls-3" d="M94 1677v-2h1a2.589 2.589 0 0 0 .8-.11 1.428 1.428 0 0 0 .551-.29 1.58 1.58 0 0 0 .447-.59 3.562 3.562 0 0 0 .176-1.18 2.07 2.07 0 0 0-.3-1.17 1.38 1.38 0 0 0-.757-.58 14.989 14.989 0 0 0-1.917-.08h-1v6h1zm1-5a1.014 1.014 0 0 1 .44.04.752.752 0 0 1 .427.27.836.836 0 0 1 .169.54 2.45 2.45 0 0 1-.12.78.715.715 0 0 1-.332.29.98.98 0 0 1-.584.08h-1v-2h1zm4 5l-.011-2.05h.228c.258 0 .067.03.186.07a.832.832 0 0 1 .338.25 2.77 2.77 0 0 1 .593.69l.814 1.02h1.345l-.68-.89a3.547 3.547 0 0 0-.64-.78 2.676 2.676 0 0 0-.6-.5 1.75 1.75 0 0 0 1.1-.55 2.1 2.1 0 0 0 .327-1.26 3.3 3.3 0 0 0-.2-1.28 1.332 1.332 0 0 0-.648-.57 1.586 1.586 0 0 0-1.152-.15h-2v6h1zm-.011-5h1.011c.456 0 .217.01.308.02a.647.647 0 0 1 .424.24 1.723 1.723 0 0 1 .268.74 1.848 1.848 0 0 1-.232.67.609.609 0 0 1-.316.25 3.838 3.838 0 0 1-1.011.08h-.452v-2zm7.011 5v-1h-2v-2h2v-1h-2v-1h2v-1h-3v6h3z" transform="translate(-53 -98)"/></g><g id="Combined-2"><path class="cls-4" d="M76 1653v2h-2v-2h-1v2h-2v-2h-1v2h-2v-2h-1v2h-10a2 2 0 0 1-2-2v-14h19a2 2 0 0 1 2 2v5h-2v1h2v2h-2v1h2v2h-2v1h2zm-2-11a1 1 0 0 0-1-1h-9v-2h-1v2h-2v-2h-1v2h-2v-2h-1v2h-2v1h2v2h-2v1h2v2h-2v1h2v4a1 1 0 0 0 1 1h15a1 1 0 0 0 1-1v-10zm-17 0v-1h1a1 1 0 0 0-1 1z" transform="translate(-53 -98)"/><path class="cls-5" d="M110 1653v2h-2v-2h-1v2h-2v-2h-1v2h-2v-2h-1v2h-10a2 2 0 0 1-2-2v-5h2v4a1 1 0 0 0 1 1h15a1 1 0 0 0 1-1v-2h2v2h-2v1h2zm-2-6h2v2h-2v-2zm0-5a1 1 0 0 0-1-1h-9v-2h-1v2h-2v-2h-1v2h-2v-2h-1v2h-2v-2h19a2 2 0 0 1 2 2v5h-2v-4zm-17 0v-1h1a1 1 0 0 0-1 1zm-2 2v-2h2v2h-2zm2 3h-2v-2h2v2z" transform="translate(-53 -98)"/><path id="_copy" class="cls-6" d="M65 1647l-1.534-.01a2.471 2.471 0 0 1 .4-1.41 2.5 2.5 0 0 1 1.262-.82l-.576-1.22a4.2 4.2 0 0 0-1.55.92 3.129 3.129 0 0 0-.833 1.34 2.387 2.387 0 0 0-.169 1.2v3h3v-3zm4 0l-1.454-.01a2.471 2.471 0 0 1 .4-1.41 2.5 2.5 0 0 1 1.262-.82l-.576-1.22a4.266 4.266 0 0 0-1.545.92 3.11 3.11 0 0 0-.838 1.34 8.4 8.4 0 0 0-.249 2.2v2h3v-3z" transform="translate(-53 -98)"/><path id="_copy-2" class="cls-3" d="M99 1647l-1.534-.01a2.471 2.471 0 0 1 .4-1.41 2.5 2.5 0 0 1 1.262-.82l-.576-1.22a4.2 4.2 0 0 0-1.55.92 3.129 3.129 0 0 0-.833 1.34 2.387 2.387 0 0 0-.169 1.2v3h3v-3zm4 0l-1.453-.01a2.464 2.464 0 0 1 .4-1.41 2.493 2.493 0 0 1 1.262-.82l-.576-1.22a4.259 4.259 0 0 0-1.545.92 3.113 3.113 0 0 0-.838 1.34 8.4 8.4 0 0 0-.25 2.2v2h3v-3z" transform="translate(-53 -98)"/></g><g id="Combined-3"><path class="cls-4" d="M76 1626v2h-2v-2h-1v2h-2v-2h-1v2h-2v-2h-1v2h-10a2 2 0 0 1-2-2v-14h19a2 2 0 0 1 2 2v5h-2v1h2v2h-2v1h2v2h-2v1h2zm-2-11a1 1 0 0 0-1-1h-9v-2h-1v2h-2v-2h-1v2h-2v-2h-1v2h1a1 1 0 0 0-1 1v-1h-2v1h2v2h-2v1h2v2h-2v1h2v4a1 1 0 0 0 1 1h15a1 1 0 0 0 1-1v-10z" transform="translate(-53 -98)"/><path class="cls-5" d="M110 1626v2h-2v-2h-1v2h-2v-2h-1v2h-2v-2h-1v2h-10a2 2 0 0 1-2-2v-5h2v4a1 1 0 0 0 1 1h15a1 1 0 0 0 1-1v1h2zm0-3v2h-2v-2h2zm-2-3h2v2h-2v-2zm0-5a1 1 0 0 0-1-1h-9v-2h-1v2h-2v-2h-1v2h-2v-2h-1v2h1a1 1 0 0 0-1 1v-1h-2v-2h19a2 2 0 0 1 2 2v5h-2v-4zm-19 2v-2h2v2h-2zm2 3h-2v-2h2v2z" transform="translate(-53 -98)"/><path id="P_copy_2" class="cls-6" d="M62.992 1624.02h2.008v-3.07h1.08a3.134 3.134 0 0 0 2.225-.59 2.448 2.448 0 0 0 .729-1.89 2.4 2.4 0 0 0-.669-1.82 2.841 2.841 0 0 0-2.012-.64h-3.361v8.01zm2-6.57h1.187a.668.668 0 0 1 .668.26 1.331 1.331 0 0 1 .251.8 1.135 1.135 0 0 1-.289.79.8.8 0 0 1-.728.25h-1.087v-2.1z" transform="translate(-53 -98)"/><path id="P_copy_3" class="cls-3" d="M96.992 1624.02h2.008v-3.07h1.078a3.134 3.134 0 0 0 2.225-.59 2.448 2.448 0 0 0 .729-1.89 2.4 2.4 0 0 0-.669-1.82 2.842 2.842 0 0 0-2.012-.64h-3.359v8.01zm2-6.57h1.187a.667.667 0 0 1 .668.26 1.327 1.327 0 0 1 .252.8 1.135 1.135 0 0 1-.29.79.8.8 0 0 1-.728.25h-1.087v-2.1z" transform="translate(-53 -98)"/></g><g id="Combined-4"><path class="cls-4" d="M76 1599v2h-2v-2h-1v2h-2v-2h-1v2h-2v-2h-1v2h-10a2 2 0 0 1-2-2v-14h19a2 2 0 0 1 2 2v5h-2v1h2v2h-2v1h2v2h-2v1h2zm-2-11a1 1 0 0 0-1-1h-9v-2h-1v2h-2v-2h-1v2h-2v-2h-1v2h-2v1h2v2h-2v1h2v2h-2v1h2v4a1 1 0 0 0 1 1h15a1 1 0 0 0 1-1v-10zm-17 0v-1h1a1 1 0 0 0-1 1z" transform="translate(-53 -98)"/><path class="cls-5" d="M110 1599v2h-2v-2h-1v2h-2v-2h-1v2h-2v-2h-1v2h-10a2 2 0 0 1-2-2v-5h2v4a1 1 0 0 0 1 1h15a1 1 0 0 0 1-1v-2h2v2h-2v1h2zm-2-6h2v2h-2v-2zm0-5a1 1 0 0 0-1-1h-9v-2h-1v2h-2v-2h-1v2h-2v-2h-1v2h-2v-2h19a2 2 0 0 1 2 2v5h-2v-4zm-17 0v-1h1a1 1 0 0 0-1 1zm-2 2v-2h2v2h-2zm2 3h-2v-2h2v2z" transform="translate(-53 -98)"/><path id="div_copy" class="cls-6" d="M58.994 1595.97h2.284a3.829 3.829 0 0 0 1.075-.13 1.985 1.985 0 0 0 .791-.48 2.69 2.69 0 0 0 .644-1.06 3.984 3.984 0 0 0 .184-1.28 4.385 4.385 0 0 0-.2-1.42 2.645 2.645 0 0 0-.574-.98 1.822 1.822 0 0 0-.844-.55 4.154 4.154 0 0 0-1.144-.12h-2.216v6.02zm2.006-4.97a5.875 5.875 0 0 1 .969.03 1.153 1.153 0 0 1 .562.28 1.426 1.426 0 0 1 .345.58 3.617 3.617 0 0 1 .123 1.07 3.971 3.971 0 0 1-.123 1.11 1.339 1.339 0 0 1-.318.58 1.686 1.686 0 0 1-.558.35 8.174 8.174 0 0 1-1 0h-1v-4h1zm5 5v-6h-1v6h1zm4 0l2-6h-1l-1.516 4.42-1.484-4.42h-1l2 6h1z" transform="translate(-53 -98)"/><path id="div_copy-2" class="cls-3" d="M92.994 1595.97h2.284a3.829 3.829 0 0 0 1.075-.13 1.985 1.985 0 0 0 .79-.48 2.69 2.69 0 0 0 .644-1.06 3.984 3.984 0 0 0 .184-1.28 4.385 4.385 0 0 0-.2-1.42 2.645 2.645 0 0 0-.574-.98 1.822 1.822 0 0 0-.844-.55 4.154 4.154 0 0 0-1.144-.12h-2.215v6.02zm2.006-4.97a5.875 5.875 0 0 1 .969.03 1.153 1.153 0 0 1 .562.28 1.427 1.427 0 0 1 .344.58 3.617 3.617 0 0 1 .123 1.07 3.971 3.971 0 0 1-.123 1.11 1.339 1.339 0 0 1-.318.58 1.686 1.686 0 0 1-.557.35 8.174 8.174 0 0 1-1 0h-1v-4h1zm5 5v-6h-1v6h1zm4 0l2-6h-1l-1.515 4.42-1.485-4.42h-1l2 6h1z" transform="translate(-53 -98)"/></g><g id="Headings"><path id="H_copy_2" class="cls-6" d="M73 1572a8.667 8.667 0 0 1-.921-.06 2.9 2.9 0 0 1-.561-.17.9.9 0 0 1-.422-.39.32.32 0 0 1-.107-.27v-9.01a1.462 1.462 0 0 1 .107-.57.658.658 0 0 1 .422-.37 5.173 5.173 0 0 1 .561-.14 7.359 7.359 0 0 1 .921-.02v-1h-6v1a5.436 5.436 0 0 1 .867.05 3.263 3.263 0 0 1 .608.21.851.851 0 0 1 .418.39 1.187 1.187 0 0 1 .121.54l-.014 3.81h-7v-4a1.033 1.033 0 0 1 .107-.47.659.659 0 0 1 .422-.37 5.18 5.18 0 0 1 .561-.14 7.179 7.179 0 0 1 .91-.02v-1h-6v1a5.2 5.2 0 0 1 .848.05 3.264 3.264 0 0 1 .608.21.851.851 0 0 1 .418.39 1.187 1.187 0 0 1 .121.54l.005 8.81a.917.917 0 0 1-.137.52.777.777 0 0 1-.408.34 1.791 1.791 0 0 1-.58.11c-.282.03-.727.02-.875.03v1h6v-1a8.476 8.476 0 0 1-.909-.06 2.9 2.9 0 0 1-.561-.17.9.9 0 0 1-.422-.39.606.606 0 0 1-.108-.38v-4h7l.013 4.21a.335.335 0 0 1-.13.31.777.777 0 0 1-.408.34 1.792 1.792 0 0 1-.58.11c-.281.03-.747.02-.895.03v1h6v-1z" transform="translate(-53 -98)"/><path id="H_copy_2-2" class="cls-3" d="M107 1572a8.664 8.664 0 0 1-.921-.06 2.9 2.9 0 0 1-.561-.17.9.9 0 0 1-.422-.39.318.318 0 0 1-.107-.27v-9.01a1.448 1.448 0 0 1 .107-.57.657.657 0 0 1 .422-.37 5.158 5.158 0 0 1 .561-.14 7.363 7.363 0 0 1 .921-.02v-1h-6v1a5.435 5.435 0 0 1 .867.05 3.269 3.269 0 0 1 .608.21.848.848 0 0 1 .417.39 1.178 1.178 0 0 1 .121.54l-.013 3.81h-7v-4a1.032 1.032 0 0 1 .107-.47.659.659 0 0 1 .422-.37 5.18 5.18 0 0 1 .561-.14 7.179 7.179 0 0 1 .91-.02v-1h-6v1a5.2 5.2 0 0 1 .848.05 3.264 3.264 0 0 1 .608.21.851.851 0 0 1 .417.39 1.187 1.187 0 0 1 .121.54l.006 8.81a.917.917 0 0 1-.137.52.777.777 0 0 1-.408.34 1.792 1.792 0 0 1-.58.11c-.281.03-.727.02-.875.03v1h6v-1a8.476 8.476 0 0 1-.909-.06 2.9 2.9 0 0 1-.561-.17.9.9 0 0 1-.422-.39.605.605 0 0 1-.108-.38v-4h7l.013 4.21a.334.334 0 0 1-.13.31.78.78 0 0 1-.408.34 1.794 1.794 0 0 1-.58.11c-.282.03-.747.02-.895.03v1h6v-1z" transform="translate(-53 -98)"/></g><g id="Combined-5"><path class="cls-6" d="M75 1544v2h-2v-2h-1v2h-2v-2h-1v2h-2v-2h-1v2h-8a2 2 0 0 1-2-2v-12h17a2 2 0 0 1 2 2v3h-2v1h2v2h-2v1h2v2h-2v1h2zm-2-9a1 1 0 0 0-1-1h-7v-2h-1v2h-2v-2h-1v2h-2v-2h-1v2h-2v1h2v2h-2v1h2v2h-2v1h2v2a1 1 0 0 0 1 1h13a1 1 0 0 0 1-1v-8zm-15 0v-1h1a1 1 0 0 0-1 1z" transform="translate(-53 -98)"/><path class="cls-3" d="M109 1544v2h-2v-2h-1v2h-2v-2h-1v2h-2v-2h-1v2h-8a2 2 0 0 1-2-2v-3h2v2a1 1 0 0 0 1 1h13a1 1 0 0 0 1-1v1h2zm0-3v2h-2v-2h2zm-2-3h2v2h-2v-2zm0-3a1 1 0 0 0-1-1h-7v-2h-1v2h-2v-2h-1v2h-2v-2h-1v2h-2v-2h17a2 2 0 0 1 2 2v3h-2v-2zm-15 0v-1h1a1 1 0 0 0-1 1zm-2 2v-2h2v2h-2zm2 3h-2v-2h2v2z" transform="translate(-53 -98)"/></g><g id="search"><path class="cls-6" d="M11 1409h-3v-2h3v2zm-4 1h4v5h-1v6h-5v-5zm7-1h3v-2h-3v2zm4 1h-4v5h1v6h5v-5zm-5 5h-1v-5h1v5z"/><path class="cls-3" d="M45 1409h-3v-2h3v2zm-4 1h4v5h-1v6h-5v-5zm7-1h3v-2h-3v2zm4 1h-4v5h1v6h5v-5zm-5 5h-1v-5h1v5z"/></g><g id="Italic"><path id="I_copy" class="cls-6" d="M64.045 1478.97l-.127.9c.124.02.317.05.579.11s.063.12.215.19a.6.6 0 0 1 .3.23.562.562 0 0 1 .072.29 1.372 1.372 0 0 1-.009.16 1.423 1.423 0 0 1-.025.15l-1.935 8.09a1.169 1.169 0 0 1-.228.5 1.021 1.021 0 0 1-.5.32 2.655 2.655 0 0 1-.626.11l-.676.05-.127.9h4.973l.127-.9c-.141-.01-.355-.05-.642-.1s-.036-.1-.12-.14a.7.7 0 0 1-.3-.24.61.61 0 0 1-.085-.33 1.12 1.12 0 0 1 .008-.13.6.6 0 0 1 .026-.13l1.941-8.08a1.573 1.573 0 0 1 .22-.5.852.852 0 0 1 .507-.34c.135-.04.344-.08.626-.13s.51-.07.685-.08l.127-.9h-5z" transform="translate(-53 -98)"/><path id="I_copy-2" class="cls-3" d="M98.045 1478.97l-.127.9c.124.02.317.05.579.11s.063.12.215.19a.6.6 0 0 1 .3.23.562.562 0 0 1 .072.29 1.372 1.372 0 0 1-.009.16 1.4 1.4 0 0 1-.025.15l-1.935 8.09a1.169 1.169 0 0 1-.228.5 1.021 1.021 0 0 1-.5.32 2.655 2.655 0 0 1-.626.11l-.676.05-.127.9h4.973l.126-.9c-.141-.01-.355-.05-.642-.1s-.036-.1-.12-.14a.7.7 0 0 1-.3-.24.61.61 0 0 1-.085-.33 1.12 1.12 0 0 1 .008-.13.6.6 0 0 1 .026-.13l1.941-8.08a1.582 1.582 0 0 1 .22-.5.855.855 0 0 1 .507-.34c.136-.04.344-.08.626-.13s.51-.07.685-.08l.126-.9h-5z" transform="translate(-53 -98)"/></g><g id="Combined-6"><path class="cls-6" d="M68.479 1457.44a4.844 4.844 0 0 1 1.771 3.56 3 3 0 0 1-3 3 2.085 2.085 0 0 1-.25-.03v.03h-6v-12h6v.03a2.979 2.979 0 0 1 1.479 5.41zm-1.479-3.25v-.19h-4v3h4v-.19a1.462 1.462 0 0 0 0-2.62zm0 4.91v-.1h-4v3h4v-.1a1.48 1.48 0 0 0 0-2.8z" transform="translate(-53 -98)"/><path class="cls-3" d="M102.479 1457.44a4.841 4.841 0 0 1 1.771 3.56 3 3 0 0 1-3 3 2.081 2.081 0 0 1-.25-.03v.03h-6v-12h6v.03a2.978 2.978 0 0 1 1.479 5.41zm-1.479-3.25v-.19h-4v3h4v-.19a1.462 1.462 0 0 0 0-2.62zm0 4.91v-.1h-4v3h4v-.1a1.48 1.48 0 0 0 0-2.8z" transform="translate(-53 -98)"/></g><g id="combined-7"><path id="Language_Icon" class="cls-6" d="M73.289 1433.79l-.615-2.29-3.536-1.09-.76 1.86-1.712-.53 3.633-9.1 1.666.52 3.035 11.16zm-2.228-8.19l-1.269 3.13 2.333.72zm-2.825 11.87a9.581 9.581 0 0 0 1.52-.73 10.788 10.788 0 0 0 1.1-.78c.172-.13.326-.26.489-.41a1.359 1.359 0 0 1 .489-.38 1.274 1.274 0 0 1 .263.87.436.436 0 0 1-.118.35 8.71 8.71 0 0 1-1.892 1.51 6.868 6.868 0 0 1-1.059.57 4.806 4.806 0 0 1-.661.1c-.281.1-.579.36-.86.43-.317.08-.652.13-.968.18h-1.189a9.113 9.113 0 0 1-1.294-.26l-.516-.17a9.865 9.865 0 0 1-1.421-.71 8.664 8.664 0 0 1-1.086-.77l-.318-.28-1.385 1.59-.62-4.3 4.179.23-1.482 1.69a2.6 2.6 0 0 0 .35.4l.4.09.425.26c.208.12.425.23.615.32a5.074 5.074 0 0 0 .606.24 6.991 6.991 0 0 0 .805.23c.317.07.616.1.932.14h.815c.163 0 .968-.15 1-.15.293-.08.601-.16.882-.26zm-4.23-6.51c-.231-.1-1.3-.71-1.565-.9s-1.3-.96-1.432-1.02v-.22a30.7 30.7 0 0 1-2.25 3.33 12.319 12.319 0 0 1-1.893 2.01 3.257 3.257 0 0 1-.866.08c.291-.23 1-1.28 1.346-1.69.457-.53 2.56-3.58 2.93-4.27s1.517-3.01 1.578-3.22c-.194-.02-1.443.61-1.816.73a14 14 0 0 0-1.434.46 1.418 1.418 0 0 0-.051.36 1.4 1.4 0 0 1-.555.27 3.174 3.174 0 0 1-1.024.01.882.882 0 0 1-.345-.58 2.723 2.723 0 0 1-.09-.6c.226-.07.578-.07.982-.19s1.384-.41 1.9-.59 1.531-.57 1.848-.63 1.133-.66 1.564-.81a1.291 1.291 0 0 1 .765-.19 5.821 5.821 0 0 1 .152.82c-.02.11-.883 1.79-1.01 2.06-.069.14-.76.98-1.575 2.26.289.12.9.39 1.155.51.307.15 2.469 1.07 2.574 1.1a2.95 2.95 0 0 1 .265 1.15 2.354 2.354 0 0 1-1.152-.24zm-3.513-7.44a4.122 4.122 0 0 1-1.27.21 1.283 1.283 0 0 1-.879-.48 1.769 1.769 0 0 1-.318-.98 1.633 1.633 0 0 0 .842.1c.237-.05.959-.22 1.223-.3a9.2 9.2 0 0 1 .991-.25.336.336 0 0 1 .376.31 1.253 1.253 0 0 1-.074.69 1.926 1.926 0 0 1-.89.7z" transform="translate(-53 -98)"/><path id="Language_Icon-2" class="cls-3" d="M107.289 1433.79l-.614-2.29-3.536-1.09-.761 1.86-1.711-.53 3.633-9.1 1.665.52 3.035 11.16zm-2.228-8.19l-1.269 3.13 2.333.72zm-2.824 11.87a9.573 9.573 0 0 0 1.52-.73 10.7 10.7 0 0 0 1.1-.78c.172-.13.326-.26.489-.41a1.364 1.364 0 0 1 .489-.38 1.273 1.273 0 0 1 .262.87.437.437 0 0 1-.117.35 8.721 8.721 0 0 1-1.892 1.51 6.883 6.883 0 0 1-1.059.57 4.787 4.787 0 0 1-.661.1c-.28.1-.579.36-.859.43-.317.08-.652.13-.969.18h-1.19a9.113 9.113 0 0 1-1.294-.26l-.516-.17a9.859 9.859 0 0 1-1.421-.71 8.664 8.664 0 0 1-1.086-.77l-.318-.28-1.385 1.59-.62-4.3 4.179.23-1.482 1.69a2.6 2.6 0 0 0 .35.4l.4.09.425.26c.208.12.425.23.616.32a5.074 5.074 0 0 0 .606.24 6.991 6.991 0 0 0 .805.23c.317.07.615.1.932.14h.814c.163 0 .969-.15 1-.15.293-.08.601-.16.882-.26zm-4.23-6.51c-.231-.1-1.3-.71-1.565-.9s-1.3-.96-1.432-1.02v-.22a30.7 30.7 0 0 1-2.25 3.33 12.315 12.315 0 0 1-1.893 2.01 3.256 3.256 0 0 1-.866.08c.291-.23 1-1.28 1.346-1.69.457-.53 2.56-3.58 2.93-4.27s1.517-3.01 1.578-3.22c-.194-.02-1.443.61-1.816.73a14 14 0 0 0-1.434.46 1.418 1.418 0 0 0-.051.36 1.4 1.4 0 0 1-.555.27 3.174 3.174 0 0 1-1.024.01.882.882 0 0 1-.345-.58 2.723 2.723 0 0 1-.09-.6c.226-.07.578-.07.982-.19s1.384-.41 1.9-.59 1.531-.57 1.848-.63 1.133-.66 1.564-.81a1.291 1.291 0 0 1 .765-.19 5.821 5.821 0 0 1 .152.82c-.02.11-.883 1.79-1.01 2.06-.069.14-.76.98-1.575 2.26.29.12.9.39 1.155.51.307.15 2.469 1.07 2.574 1.1a2.952 2.952 0 0 1 .265 1.15 2.354 2.354 0 0 1-1.153-.24zm-3.513-7.44a4.122 4.122 0 0 1-1.27.21 1.283 1.283 0 0 1-.879-.48 1.769 1.769 0 0 1-.317-.98 1.632 1.632 0 0 0 .842.1c.237-.05.959-.22 1.223-.3a9.2 9.2 0 0 1 .991-.25.336.336 0 0 1 .376.31 1.253 1.253 0 0 1-.074.69 1.926 1.926 0 0 1-.892.7z" transform="translate(-53 -98)"/></g><g id="icon"><path id="_copy-3" class="cls-6" d="M62.186 1397.9a3.217 3.217 0 0 0-1.186 2.57 3.683 3.683 0 0 0 1.077 2.71 4.647 4.647 0 0 0 2.923.82v8h1v-14h2v14h1v-15h-4a3.777 3.777 0 0 0-2.814.9z" transform="translate(-53 -98)"/><path id="_copy-4" class="cls-3" d="M96.186 1397.9a3.217 3.217 0 0 0-1.186 2.57 3.683 3.683 0 0 0 1.076 2.71 4.647 4.647 0 0 0 2.924.82v8h1v-14h2v14h1v-15h-4a3.777 3.777 0 0 0-2.814.9z" transform="translate(-53 -98)"/></g><g id="Char_Map"><path id="รก" class="cls-6" d="M68.651 1383.81h1.874a4.041 4.041 0 0 1-.454-1.27 25.545 25.545 0 0 1-.115-3.17v-2.39a10.2 10.2 0 0 0-.09-1.66 2.506 2.506 0 0 0-1.8-2.02 6.422 6.422 0 0 0-2.2-.32 7.307 7.307 0 0 0-2.4.37 3.476 3.476 0 0 0-1.585 1.07 4.344 4.344 0 0 0-.788 1.82l1.755.24a2.727 2.727 0 0 1 .892-1.57 3.139 3.139 0 0 1 1.869-.44 3.031 3.031 0 0 1 2.044.6 2 2 0 0 1 .508 1.55l-.01.47a16.877 16.877 0 0 1-3.2.62 10.68 10.68 0 0 0-1.595.27 4.252 4.252 0 0 0-1.291.58 2.95 2.95 0 0 0-.927 1.04 2.866 2.866 0 0 0-.354 1.42 2.79 2.79 0 0 0 .937 2.17 3.842 3.842 0 0 0 2.682.86 5.6 5.6 0 0 0 1.979-.35 6.536 6.536 0 0 0 1.919-1.2 3.8 3.8 0 0 0 .359 1.31zm-.508-4.66a4.382 4.382 0 0 1-.289 1.8 2.8 2.8 0 0 1-1.186 1.24 3.724 3.724 0 0 1-1.844.45 2.333 2.333 0 0 1-1.59-.48 1.529 1.529 0 0 1-.543-1.19 1.548 1.548 0 0 1 .249-.86 1.572 1.572 0 0 1 .708-.58 7.133 7.133 0 0 1 1.565-.36 12.594 12.594 0 0 0 2.931-.68v.66zm-1.9-7.18l2.341-2.98h-2.515l-1.416 2.98h1.586z" transform="translate(-53 -98)"/><path id="รก-2" class="cls-3" d="M102.651 1383.81h1.874a4.032 4.032 0 0 1-.453-1.27 25.416 25.416 0 0 1-.115-3.17v-2.39a10.163 10.163 0 0 0-.09-1.66 2.864 2.864 0 0 0-.558-1.22 2.9 2.9 0 0 0-1.246-.8 6.42 6.42 0 0 0-2.2-.32 7.307 7.307 0 0 0-2.4.37 3.476 3.476 0 0 0-1.585 1.07 4.344 4.344 0 0 0-.787 1.82l1.754.24a2.727 2.727 0 0 1 .892-1.57 3.139 3.139 0 0 1 1.869-.44 3.03 3.03 0 0 1 2.043.6 2 2 0 0 1 .509 1.55l-.01.47a16.9 16.9 0 0 1-3.2.62 10.68 10.68 0 0 0-1.595.27 4.252 4.252 0 0 0-1.291.58 2.95 2.95 0 0 0-.927 1.04 2.866 2.866 0 0 0-.354 1.42 2.79 2.79 0 0 0 .937 2.17 3.842 3.842 0 0 0 2.682.86 5.6 5.6 0 0 0 1.979-.35 6.524 6.524 0 0 0 1.919-1.2 3.8 3.8 0 0 0 .359 1.31zm-.508-4.66a4.394 4.394 0 0 1-.289 1.8 2.8 2.8 0 0 1-1.187 1.24 3.722 3.722 0 0 1-1.844.45 2.333 2.333 0 0 1-1.59-.48 1.529 1.529 0 0 1-.543-1.19 1.549 1.549 0 0 1 .249-.86 1.572 1.572 0 0 1 .708-.58 7.133 7.133 0 0 1 1.565-.36 12.61 12.61 0 0 0 2.931-.68v.66zm-1.9-7.18l2.342-2.98h-2.512l-1.416 2.98h1.586z" transform="translate(-53 -98)"/></g><g id="hr"><g id="Icon-2"><path id="bar" class="cls-7" d="M4 1251h17v2h-17z"/><path class="cls-4" d="M6 1250v-1h13v1h-13zm0-2v-1h13v1h-13zm0-2v-1h13v1h-13zm0 13v-1h13v1h-13zm0-2v-1h13v1h-13zm0-2v-1h13v1h-13z"/></g><g id="Icon-3"><path id="bar-2" class="cls-8" d="M38 1251h17v2h-17z"/><path class="cls-5" d="M40 1250v-1h13v1h-13zm0-2v-1h13v1h-13zm0-2v-1h13v1h-13zm0 13v-1h13v1h-13zm0-2v-1h13v1h-13zm0-2v-1h13v1h-13z"/></g></g><g id="Combined-8"><path class="cls-6" d="M71.952 1324a6.469 6.469 0 0 1-5.952 5.95v2.05h-1v-2.05a6.469 6.469 0 0 1-5.952-5.95h-2.048v-1h2.048a6.469 6.469 0 0 1 5.952-5.95v-2.05h1v2.05a6.469 6.469 0 0 1 5.952 5.95h2.048v1h-2.048zm-5.952-5.77v2.77h-1v-2.77a5.293 5.293 0 0 0-4.777 4.77h2.777v1h-2.777a5.294 5.294 0 0 0 4.777 4.77v-2.77h1v2.77a5.294 5.294 0 0 0 4.777-4.77h-2.777v-1h2.777a5.293 5.293 0 0 0-4.777-4.77z" transform="translate(-53 -98)"/><path class="cls-3" d="M105.952 1324a6.47 6.47 0 0 1-5.952 5.95v2.05h-1v-2.05a6.469 6.469 0 0 1-5.952-5.95h-2.048v-1h2.048a6.469 6.469 0 0 1 5.952-5.95v-2.05h1v2.05a6.47 6.47 0 0 1 5.952 5.95h2.048v1h-2.048zm-5.952-5.77v2.77h-1v-2.77a5.293 5.293 0 0 0-4.777 4.77h2.777v1h-2.777a5.294 5.294 0 0 0 4.777 4.77v-2.77h1v2.77a5.293 5.293 0 0 0 4.777-4.77h-2.777v-1h2.777a5.293 5.293 0 0 0-4.777-4.77z" transform="translate(-53 -98)"/></g><g id="Combined-9"><path id="icon-4" class="cls-6" d="M72.891 1294.35a7.482 7.482 0 0 1 .112 1.11 7.4 7.4 0 0 1-.115 1.14l-1.992.17a5.444 5.444 0 0 1-.665 1.59l1.291 1.54a7.748 7.748 0 0 1-1.593 1.59l-1.532-1.3a5.541 5.541 0 0 1-1.589.67l-.169 1.98a5.819 5.819 0 0 1-2.252 0l-.168-1.97a5.6 5.6 0 0 1-1.6-.67l-1.521 1.29a7.745 7.745 0 0 1-1.593-1.59l1.275-1.52a5.462 5.462 0 0 1-.676-1.61l-1.964-.17a7.4 7.4 0 0 1-.115-1.14 7.482 7.482 0 0 1 .112-1.11l1.956-.16a5.5 5.5 0 0 1 .676-1.63l-1.275-1.51a7.489 7.489 0 0 1 1.588-1.59l1.513 1.27a5.46 5.46 0 0 1 1.628-.67l.168-1.97a5.795 5.795 0 0 1 2.247 0l.168 1.97a5.42 5.42 0 0 1 1.617.68l1.523-1.28a7.489 7.489 0 0 1 1.588 1.59l-1.291 1.53a5.537 5.537 0 0 1 .664 1.6zm-7.378-2.45a3.575 3.575 0 1 0 3.577 3.58 3.577 3.577 0 0 0-3.577-3.58z" transform="translate(-53 -98)"/><path id="icon-5" class="cls-3" d="M106.891 1294.35a5.656 5.656 0 0 1 0 2.25l-1.993.17a5.435 5.435 0 0 1-.664 1.59l1.291 1.54a7.745 7.745 0 0 1-1.593 1.59l-1.532-1.3a5.533 5.533 0 0 1-1.588.67l-.169 1.98a5.821 5.821 0 0 1-2.253 0l-.168-1.97a5.6 5.6 0 0 1-1.6-.67l-1.521 1.29a7.748 7.748 0 0 1-1.593-1.59l1.275-1.52a5.462 5.462 0 0 1-.676-1.61l-1.964-.17a7.4 7.4 0 0 1-.115-1.14 7.482 7.482 0 0 1 .112-1.11l1.956-.16a5.5 5.5 0 0 1 .676-1.63l-1.275-1.51a7.489 7.489 0 0 1 1.588-1.59l1.513 1.27a5.46 5.46 0 0 1 1.628-.67l.168-1.97a5.794 5.794 0 0 1 2.247 0l.169 1.97a5.433 5.433 0 0 1 1.617.68l1.523-1.28a7.477 7.477 0 0 1 1.587 1.59l-1.291 1.53a5.554 5.554 0 0 1 .664 1.6zm-7.378-2.45a3.575 3.575 0 1 0 3.577 3.58 3.576 3.576 0 0 0-3.577-3.58z" transform="translate(-53 -98)"/></g><g id="Combined-10"><path id="Icon_-_Revert" class="cls-3" d="M103 1269h-2l1.64-1.64a4 4 0 1 0-3.64 5.64 4.118 4.118 0 0 0 1-.14v2.04a6.57 6.57 0 0 1-1 .1 6 6 0 1 1 5.109-9.11l1.891-1.89v5h-3z" transform="translate(-53 -98)"/><path id="Icon_-_Revert-2" class="cls-6" d="M69 1269h-2l1.64-1.64a4 4 0 1 0-3.64 5.64 4.118 4.118 0 0 0 1-.14v2.04a6.571 6.571 0 0 1-1 .1 6 6 0 1 1 5.109-9.11l1.891-1.89v5h-3z" transform="translate(-53 -98)"/></g><g id="Combined-11"><path id="Icon_-_Revert-3" class="cls-3" d="M100 1248a6.57 6.57 0 0 1-1-.1v-2.04a4.118 4.118 0 0 0 1 .14 4 4 0 1 0-3.64-5.64l1.64 1.64h-5v-5l1.891 1.89a5.992 5.992 0 1 1 5.109 9.11z" transform="translate(-53 -98)"/><path id="Icon_-_Revert-4" class="cls-6" d="M66 1248a6.57 6.57 0 0 1-1-.1v-2.04a4.117 4.117 0 0 0 1 .14 4 4 0 1 0-3.64-5.64l1.64 1.64h-5v-5l1.891 1.89a5.992 5.992 0 1 1 5.109 9.11z" transform="translate(-53 -98)"/></g><g id="Combined-12"><path class="cls-6" d="M74.6 1207.68l-4.478 3.65a.95.95 0 0 1-.415.18 1.369 1.369 0 0 1 .293 1.49c-.586 1.02-2.631.08-2 10-5.319-.99-10.418-2.75-10-10 4.39-.3 6.8-3.02 9-3a2.819 2.819 0 0 1 1.589.52.978.978 0 0 1 .35-.72l4.478-3.64a.93.93 0 0 1 1.335.15.993.993 0 0 1-.152 1.37zm-8.9 4.75c-3.249.2-2.447 1.37-5.7 1.57a3.18 3.18 0 0 0-.18 2.67l3.359-1.66-2.185 3.44a8.009 8.009 0 0 0 1.738 1.3l2.229-3.39-.767 4.1a10.346 10.346 0 0 0 1.806.54c.585-3.13-.363-4.74 1.478-7.22a4.513 4.513 0 0 0-1.778-1.35z" transform="translate(-53 -98)"/><path class="cls-3" d="M108.6 1207.68l-4.478 3.65a.958.958 0 0 1-.415.18 1.369 1.369 0 0 1 .3 1.49c-.586 1.02-2.631.08-2 10-5.319-.99-10.418-2.75-10-10 4.39-.3 6.8-3.02 9-3a2.818 2.818 0 0 1 1.589.52.98.98 0 0 1 .351-.72l4.478-3.64a.93.93 0 0 1 1.335.15.993.993 0 0 1-.16 1.37zm-8.9 4.75c-3.249.2-2.447 1.37-5.7 1.57a3.18 3.18 0 0 0-.18 2.67l3.359-1.66-2.185 3.44a8.009 8.009 0 0 0 1.738 1.3l2.229-3.39-.767 4.1a10.346 10.346 0 0 0 1.806.54c.585-3.13-.363-4.74 1.478-7.22a4.516 4.516 0 0 0-1.778-1.35z" transform="translate(-53 -98)"/></g><g id="Combined-13"><path id="bar-3" class="cls-6" d="M64.976 1186.3a15.2 15.2 0 0 1 2.232.7h5.792v1h-4.3a3.568 3.568 0 0 1 .394.45 3.308 3.308 0 0 1 .489 1.79 3.652 3.652 0 0 1-2.079 3.29 5.056 5.056 0 0 1-2.264.49 6.39 6.39 0 0 1-2.672-.5 3.788 3.788 0 0 1-1.691-1.5 4.478 4.478 0 0 1-.645-2.27l1.466-.13a3.664 3.664 0 0 0 .485 1.55 2.713 2.713 0 0 0 1.182.98 4.2 4.2 0 0 0 1.8.37 4.043 4.043 0 0 0 1.571-.28 2.2 2.2 0 0 0 1.014-.78 1.9 1.9 0 0 0 .333-1.08 1.755 1.755 0 0 0-.321-1.04 6.719 6.719 0 0 0-1.813-.8 12.13 12.13 0 0 0-1.337-.34c-.269-.06-.513-.13-.736-.2h-7.876v-1h5.868a4.7 4.7 0 0 1-.778-.98 3.015 3.015 0 0 1-.413-1.57 3.366 3.366 0 0 1 .5-1.78 3.1 3.1 0 0 1 1.474-1.26 5.206 5.206 0 0 1 2.156-.43 5.553 5.553 0 0 1 2.3.45 3.349 3.349 0 0 1 1.535 1.33 4.013 4.013 0 0 1 .577 1.99l-1.49.12a2.664 2.664 0 0 0-.813-1.81 3 3 0 0 0-2.047-.61 3.119 3.119 0 0 0-2.055.55 1.713 1.713 0 0 0-.645 1.34 1.488 1.488 0 0 0 .457 1.12 6.3 6.3 0 0 0 2.35.84z" transform="translate(-53 -98)"/><path id="bar-4" class="cls-3" d="M98.976 1186.3a15.209 15.209 0 0 1 2.233.7h5.791v1h-4.3a3.546 3.546 0 0 1 .394.45 3.307 3.307 0 0 1 .489 1.79 3.653 3.653 0 0 1-2.079 3.29 5.061 5.061 0 0 1-2.264.49 6.39 6.39 0 0 1-2.672-.5 3.788 3.788 0 0 1-1.691-1.5 4.478 4.478 0 0 1-.645-2.27l1.466-.13a3.665 3.665 0 0 0 .485 1.55 2.714 2.714 0 0 0 1.182.98 4.2 4.2 0 0 0 1.8.37 4.041 4.041 0 0 0 1.57-.28 2.2 2.2 0 0 0 1.014-.78 1.9 1.9 0 0 0 .332-1.08 1.751 1.751 0 0 0-.32-1.04 6.72 6.72 0 0 0-1.813-.8 12.131 12.131 0 0 0-1.336-.34c-.269-.06-.514-.13-.736-.2h-7.876v-1h5.868a4.706 4.706 0 0 1-.778-.98 3.015 3.015 0 0 1-.413-1.57 3.366 3.366 0 0 1 .5-1.78 3.1 3.1 0 0 1 1.474-1.26 5.206 5.206 0 0 1 2.156-.43 5.553 5.553 0 0 1 2.3.45 3.348 3.348 0 0 1 1.534 1.33 4 4 0 0 1 .577 1.99l-1.49.12a2.664 2.664 0 0 0-.813-1.81 3 3 0 0 0-2.048-.61 3.119 3.119 0 0 0-2.055.55 1.713 1.713 0 0 0-.645 1.34 1.488 1.488 0 0 0 .457 1.12 6.3 6.3 0 0 0 2.352.84z" transform="translate(-53 -98)"/></g><g id="Superscript"><g id="icon-7"><path id="x" class="cls-9" d="M8.52 1066.96l2.237-3.15.465.67 1.748 2.48h1.772l-3.167-4.22 2.943-3.76h-1.725l-1.435 1.88c-.2.26-.414.55-.65.88-.15-.24-.348-.53-.593-.89l-1.307-1.87h-1.808l2.879 3.83-3.111 4.15h1.752z"/><path id="_2" class="cls-6" d="M70.45 1159.6a2.322 2.322 0 0 1 .309-.42q.19-.21.905-.87a9.2 9.2 0 0 0 .988-1.01 4.078 4.078 0 0 0 .6-1 2.724 2.724 0 0 0 .191-1.01 2.068 2.068 0 0 0-.666-1.57 2.558 2.558 0 0 0-1.832-.63 2.785 2.785 0 0 0-1.772.55 2.443 2.443 0 0 0-.843 1.78l1.5.16a1.456 1.456 0 0 1 .322-.95 1 1 0 0 1 .752-.28 1.015 1.015 0 0 1 .749.27 1.044 1.044 0 0 1 .271.77 1.687 1.687 0 0 1-.312.93 11.663 11.663 0 0 1-1.251 1.29 10.041 10.041 0 0 0-1.7 1.88 3.683 3.683 0 0 0-.516 1.51h5.29v-1.4h-3z" transform="translate(-53 -98)"/></g><g id="icon-8"><path id="x-2" class="cls-10" d="M42.519 1066.96l2.237-3.15.465.67 1.748 2.48h1.772l-3.168-4.22 2.942-3.76h-1.722l-1.435 1.88c-.2.26-.414.55-.65.88-.15-.24-.348-.53-.593-.89l-1.307-1.87h-1.808l2.879 3.83-3.111 4.15h1.748z"/><path id="_2-2" class="cls-3" d="M104.45 1159.6a2.254 2.254 0 0 1 .309-.42q.191-.21.905-.87a9.249 9.249 0 0 0 .988-1.01 4.064 4.064 0 0 0 .6-1 2.726 2.726 0 0 0 .191-1.01 2.067 2.067 0 0 0-.666-1.57 2.559 2.559 0 0 0-1.832-.63 2.783 2.783 0 0 0-1.772.55 2.444 2.444 0 0 0-.844 1.78l1.5.16a1.454 1.454 0 0 1 .323-.95 1 1 0 0 1 .752-.28 1.016 1.016 0 0 1 .749.27 1.043 1.043 0 0 1 .271.77 1.691 1.691 0 0 1-.311.93 11.716 11.716 0 0 1-1.252 1.29 10.028 10.028 0 0 0-1.7 1.88 3.673 3.673 0 0 0-.516 1.51h5.291v-1.4h-3z" transform="translate(-53 -98)"/></g></g><g id="Subscript"><g id="icon-9"><path id="x-3" class="cls-9" d="M8.52 1039.96l2.237-3.15.465.67 1.748 2.48h1.772l-3.167-4.22 2.943-3.76h-1.725l-1.435 1.88c-.2.26-.414.55-.65.88-.15-.24-.348-.53-.593-.89l-1.307-1.87h-1.808l2.879 3.83-3.111 4.15h1.752z"/><path id="_2-3" class="cls-6" d="M70.45 1140.6a2.322 2.322 0 0 1 .309-.42q.19-.21.905-.87a9.2 9.2 0 0 0 .988-1.01 4.078 4.078 0 0 0 .6-1 2.724 2.724 0 0 0 .191-1.01 2.068 2.068 0 0 0-.666-1.57 2.558 2.558 0 0 0-1.832-.63 2.785 2.785 0 0 0-1.772.55 2.443 2.443 0 0 0-.843 1.78l1.5.16a1.456 1.456 0 0 1 .322-.95 1 1 0 0 1 .752-.28 1.015 1.015 0 0 1 .749.27 1.044 1.044 0 0 1 .271.77 1.687 1.687 0 0 1-.312.93 11.663 11.663 0 0 1-1.251 1.29 10.041 10.041 0 0 0-1.7 1.88 3.683 3.683 0 0 0-.516 1.51h5.29v-1.4h-3z" transform="translate(-53 -98)"/></g><g id="icon-10"><path id="x-4" class="cls-10" d="M42.519 1039.96l2.237-3.15.465.67 1.748 2.48h1.772l-3.168-4.22 2.942-3.76h-1.722l-1.435 1.88c-.2.26-.414.55-.65.88-.15-.24-.348-.53-.593-.89l-1.307-1.87h-1.808l2.879 3.83-3.111 4.15h1.748z"/><path id="_2-4" class="cls-3" d="M104.45 1140.6a2.254 2.254 0 0 1 .309-.42q.191-.21.905-.87a9.249 9.249 0 0 0 .988-1.01 4.064 4.064 0 0 0 .6-1 2.726 2.726 0 0 0 .191-1.01 2.067 2.067 0 0 0-.666-1.57 2.559 2.559 0 0 0-1.832-.63 2.783 2.783 0 0 0-1.772.55 2.444 2.444 0 0 0-.844 1.78l1.5.16a1.454 1.454 0 0 1 .323-.95 1 1 0 0 1 .752-.28 1.016 1.016 0 0 1 .749.27 1.043 1.043 0 0 1 .271.77 1.691 1.691 0 0 1-.311.93 11.716 11.716 0 0 1-1.252 1.29 10.028 10.028 0 0 0-1.7 1.88 3.673 3.673 0 0 0-.516 1.51h5.291v-1.4h-3z" transform="translate(-53 -98)"/></g></g><g id="Justify_-_Block"><path id="justi" class="cls-6" d="M4 1014v-1h7v1h-7zm0-3v-1h17v1h-17zm0-3v-1h17v1h-17zm0-3v-1h17v1h-17z"/><path id="justi-2" class="cls-3" d="M38 1014v-1h7v1h-7zm0-3v-1h17v1h-17zm0-3v-1h17v1h-17zm0-3v-1h17v1h-17z"/></g><g id="Justify_-_Center"><path id="justi-3" class="cls-6" d="M3.994 978v-1h17.019v1h-17.019zm2.006 2.97v-.97h13.013v.97h-13.013zm-2.006 3.03v-1h17.019v1h-17.019zm2.006 2.97v-.97h13.013v.97h-13.013z"/><path id="justi_copy" class="cls-3" d="M37.994 978v-1h17.018v1h-17.018zm2.006 2.97v-.97h13.013v.97h-13.013zm-2.006 3.03v-1h17.018v1h-17.018zm2.006 2.97v-.97h13.013v.97h-13.013z"/></g><g id="Justify_-_Right"><path id="justi-4" class="cls-6" d="M21 951v-1h-17.012v1h17.012zm0 3v-1h-10v1h10zm0 3v-1h-17.012v1h17.012zm0 3v-1h-9.993v1h9.993z"/><path id="justi_copy_3" class="cls-3" d="M55 951v-1h-17.012v1h17.012zm0 3v-1h-10v1h10zm0 3v-1h-17.012v1h17.012zm0 3v-1h-9.993v1h9.993z"/></g><g id="Justify_-_Left"><path id="justi-5" class="cls-6" d="M4 924v-1h17.013v1h-17.013zm0 3v-1h10v1h-10zm0 3v-1h17.013v1h-17.013zm0 3v-1h9.993v1h-9.993z"/><path id="justi_copy_3-2" class="cls-3" d="M38 924v-1h17.012v1h-17.012zm0 3v-1h10v1h-10zm0 3v-1h17.012v1h-17.012zm0 3v-1h9.993v1h-9.993z"/></g><g id="Prev_arrow"><path id="_" class="cls-6" d="M8 901l9 6v-12z"/><path id="_2-5" class="cls-3" d="M42 901l9 6v-12z"/></g><g id="Next_arrow"><path id="_3" class="cls-6" d="M17 874l-9 6v-12z"/><path id="_4" class="cls-3" d="M51 874l-9 6v-12z"/></g><g id="Combined-14"><path id="code_brackets" class="cls-6" d="M20.7 847.482l-5.657 5.657-1.121-1.121 4.549-4.549-4.549-4.549 1.121-1.122 5.657 5.657-.014.014zm-10.684 5.657l-5.657-5.657.014-.013-.014-.014 5.657-5.657 1.121 1.122-4.549 4.549 4.549 4.549z"/><path id="code_brackets-2" class="cls-3" d="M54.7 847.482l-5.657 5.657-1.121-1.121 4.549-4.549-4.549-4.549 1.121-1.122 5.657 5.657-.014.014zm-10.684 5.657l-5.657-5.657.014-.013-.014-.014 5.657-5.657 1.121 1.122-4.549 4.549 4.549 4.549z"/></g><g id="Combined-15"><path id="droplet_copy_4" class="cls-6" d="M69.791 916.816h.084l-.2.382a4.432 4.432 0 0 1-.242.456l-3.933 7.416-4.375-8.254h.1a4.457 4.457 0 0 1-.225-1.349 4.511 4.511 0 1 1 9.023 0 4.46 4.46 0 0 1-.232 1.349zm-4.277-2.816a1.521 1.521 0 1 0 1.521 1.52 1.52 1.52 0 0 0-1.521-1.52z" transform="translate(-53 -98)"/><path id="droplet_copy_4-2" class="cls-3" d="M103.791 916.816h.084l-.2.382a4.551 4.551 0 0 1-.243.458l-3.932 7.414-4.375-8.254h.1a4.457 4.457 0 0 1-.225-1.349 4.511 4.511 0 1 1 9.023 0 4.463 4.463 0 0 1-.232 1.349zm-4.277-2.816a1.521 1.521 0 1 0 1.521 1.52 1.52 1.52 0 0 0-1.521-1.52z" transform="translate(-53 -98)"/></g><g id="Combined-16"><path id="Revert" class="cls-3" d="M103.025 892v-.031h1.975v.031h-1.972zm1.871 1a5.973 5.973 0 0 1-11 2.078l-1.896 1.891v-5h5l-1.609 1.609a3.981 3.981 0 0 0 7.478-.578h2.031zm-.365-2.031h-4l1.609-1.609a3.983 3.983 0 0 0-7.5.638h-2.011a5.971 5.971 0 0 1 11.011-2.138l1.891-1.891v5h-1z" transform="translate(-53 -98)"/><path id="Revert-2" class="cls-6" d="M70.9 893a5.973 5.973 0 0 1-11 2.078l-1.9 1.891v-5h5l-1.609 1.609a3.981 3.981 0 0 0 7.478-.578h2.031zm-.365-2.031h-4l1.609-1.609a3.983 3.983 0 0 0-7.5.638h-2.015a5.971 5.971 0 0 1 11.011-2.138l1.891-1.891v5h-1z" transform="translate(-53 -98)"/></g><g id="Image_-_insert"><path class="cls-3" d="M90 856h20v16h-20v-16zm1 1h18v14h-18v-14zm1 13v-12l4 8 2-4 4 6 2-2 3 4h-15zm13-11a2 2 0 1 1-2 2 2 2 0 0 1 2-2z" transform="translate(-53 -98)" id="picture_inverse"/><path class="cls-6" d="M56 856h20v16h-20v-16zm1 1h18v14h-18v-14zm1 13v-12l4 8 2-4 4 6 2-2 3 4h-15zm13-11a2 2 0 1 1-2 2 2 2 0 0 1 2-2z" transform="translate(-53 -98)" id="picture"/></g><g id="Combined-17"><path class="cls-6" d="M74.127 835.876l-2.764 2.763-.829-.873 2.7-2.7a2.374 2.374 0 0 0-3.33-3.338l-2.351 2.354-.886-.785 2.437-2.436a3.574 3.574 0 0 1 5.023 5.015zm-7.11 8.074h-1v-4.969h1v4.969zm-3.017-12.95h1v4.969h-1v-4.969zm-2.168 13.208a3.574 3.574 0 0 1-5.021-5.02l2.7-2.7.829.873-2.64 2.639a2.373 2.373 0 0 0 3.33 3.338l2.56-2.563.814.857zm-2.217-10.949l.707-.707 3 3-.707.707zm11.734 8.381l-.707.707-3-3 .707-.707z" transform="translate(-53 -98)"/><path class="cls-3" d="M108.127 835.876l-2.764 2.763-.829-.873 2.7-2.7a2.374 2.374 0 0 0-3.33-3.338l-2.351 2.354-.886-.785 2.437-2.436a3.574 3.574 0 0 1 5.023 5.015zm-7.11 8.074h-1v-4.969h1v4.969zm-3.017-12.95h1v4.969h-1v-4.969zm-2.168 13.208a3.574 3.574 0 0 1-5.021-5.02l2.7-2.7.829.873-2.64 2.639a2.374 2.374 0 0 0 3.33 3.338l2.56-2.563.814.857zm-2.217-10.949l.707-.707 3 3-.707.707zm11.734 8.381l-.707.707-3-3 .707-.707z" transform="translate(-53 -98)"/></g><g id="Combined-18"><path id="arrow" class="cls-6" d="M68 803h6v6h-1v-4l-1 1-1 1-5 4 4-5 1-1 1-1h-4v-1zm-8 5v6a1 1 0 0 0 1 1h8a1 1 0 0 0 1-1v-4h1v5a1 1 0 0 1-1 1h-10a1 1 0 0 1-1-1v-8a1 1 0 0 1 1-1h7v1h-6a1 1 0 0 0-1 1z" transform="translate(-53 -98)"/><path id="arrow-2" class="cls-3" d="M107 809v-4l-1 1-1 1-5 4 4-5 1-1 1-1h-4v-1h6v6h-1zm-13-1v6a1 1 0 0 0 1 1h8a1 1 0 0 0 1-1v-4h1v5a1 1 0 0 1-1 1h-10a1 1 0 0 1-1-1v-8a1 1 0 0 1 1-1h7v1h-6a1 1 0 0 0-1 1z" transform="translate(-53 -98)"/></g><g id="Combined-19"><path id="Shape_2_copy_10" class="cls-6" d="M74.127 781.876l-5.289 5.288a3.373 3.373 0 0 1-4.745-.276 3.567 3.567 0 0 1-.927-3.721l1.242.177a2.325 2.325 0 0 0 .491 2.732 2.233 2.233 0 0 0 3.147.183l5.191-5.2a2.373 2.373 0 0 0-3.33-3.338l-1.33 1.332-.755-.915 1.284-1.284a3.574 3.574 0 0 1 5.021 5.022zm-7.534 1.749a2.324 2.324 0 0 0-.491-2.732 2.233 2.233 0 0 0-3.147-.184l-5.19 5.2a2.374 2.374 0 0 0 3.33 3.338l1.33-1.332.755.915-1.284 1.284a3.574 3.574 0 0 1-5.021-5.02l5.289-5.288a3.373 3.373 0 0 1 4.745.276 3.567 3.567 0 0 1 .927 3.721z" transform="translate(-53 -98)"/><path id="Shape_2_copy_10-2" class="cls-3" d="M108.127 781.876l-5.289 5.288a3.373 3.373 0 0 1-4.745-.276 3.567 3.567 0 0 1-.927-3.721l1.242.177a2.325 2.325 0 0 0 .491 2.732 2.232 2.232 0 0 0 3.146.183l5.191-5.2a2.373 2.373 0 0 0-3.33-3.338l-1.33 1.332-.755-.915 1.285-1.284a3.574 3.574 0 0 1 5.021 5.022zm-7.534 1.749a2.324 2.324 0 0 0-.492-2.732 2.232 2.232 0 0 0-3.146-.184l-5.191 5.2a2.374 2.374 0 0 0 3.33 3.338l1.33-1.332.755.915-1.285 1.284a3.574 3.574 0 0 1-5.021-5.02l5.289-5.288a3.373 3.373 0 0 1 4.745.276 3.568 3.568 0 0 1 .927 3.721z" transform="translate(-53 -98)"/></g><g id="indent_--"><g id="icon-16"><path id="arrow-3" class="cls-6" d="M10 659v-3h-3v-2l-4.066 3.485 4.066 3.515v-2h3z"/><path id="lines" class="cls-9" d="M22 651v1h-10v-1h10zm0 2v2h-10v-2h10zm-5 3v2h-5v-2h5zm5 6v1h-10v-1h10zm-7 2l.013 1h-3.013v-1h3zm-4-13v1h-4v-1h4zm0 11v1h-4v-1h4zm0 2v1h-4v-1h4zm6-5v2h-5v-2h5zm-5-10h1v1h-1v-1zm0 17h1v1h-1v-1z"/></g><g id="icon-17"><path id="arrow-4" class="cls-3" d="M44 659v-3h-3v-2l-4.066 3.485 4.066 3.515v-2h3z"/><path id="lines-2" class="cls-10" d="M56 651v1h-10v-1h10zm0 2v2h-10v-2h10zm-5 3v2h-5v-2h5zm5 6v1h-10v-1h10zm-7 2l.013 1h-3.013v-1h3zm-4-13v1h-4v-1h4zm0 11v1h-4v-1h4zm0 2v1h-4v-1h4zm6-5v2h-5v-2h5zm-5-10h1v1h-1v-1zm0 17h1v1h-1v-1z"/></g></g><g id="indent_--_"><g id="icon-18"><path id="arrow-5" class="cls-6" d="M3 632v-3h2.973v-2l4.027 3.485-4.027 3.515v-2h-2.973z"/><path id="lines-3" class="cls-9" d="M22 624v1h-10v-1h10zm0 2v2h-10v-2h10zm-5 3v2h-5v-2h5zm5 6v1h-10v-1h10zm-7 2l.013 1h-3.013v-1h3zm-4-13v1h-4v-1h4zm0 11v1h-4v-1h4zm0 2v1h-4v-1h4zm6-5v2h-5v-2h5zm-5-10h1v1h-1v-1zm0 17h1v1h-1v-1z"/></g><g id="icon-19"><path id="arrow-6" class="cls-3" d="M37 632v-3h3v-2l4.066 3.485-4.066 3.515v-2h-3z"/><path id="lines-4" class="cls-10" d="M56 624v1h-10v-1h10zm0 2v2h-10v-2h10zm-5 3v2h-5v-2h5zm5 6v1h-10v-1h10zm-7 2l.013 1h-3.013v-1h3zm-4-13v1h-4v-1h4zm0 11v1h-4v-1h4zm0 2v1h-4v-1h4zm6-5v2h-5v-2h5zm-5-10h1v1h-1v-1zm0 17h1v1h-1v-1z"/></g></g><g id="List_-_OL"><g id="icon-20"><path id="_1_2_3" class="cls-6" d="M59 699v-4h-2v1h1v3h1zm1 5v-1h-1l.243-.6.263-.267a1.935 1.935 0 0 0 .226-.291 1.409 1.409 0 0 0 .155-.339 1.393 1.393 0 0 0 .056-.411 1.286 1.286 0 0 0-.121-.576 1.182 1.182 0 0 0-.325-.408 1.365 1.365 0 0 0-.463-.24 1.856 1.856 0 0 0-.536-.078 1.629 1.629 0 0 0-.556.094 1.415 1.415 0 0 0-.466.272 1.479 1.479 0 0 0-.336.431c-.089.169-.117.037-.14.253l.882.456a.826.826 0 0 1 .178-.465.522.522 0 0 1 .748-.036.51.51 0 0 1 .136.368.682.682 0 0 1-.09.348 1.556 1.556 0 0 1-.237.305l-1.617 1.184v1h3zm.01 3.391a.88.88 0 0 0-.168-.263 1.048 1.048 0 0 0-.258-.2 1.154 1.154 0 0 0-.33-.123v-.017a.988.988 0 0 0 .513-.3.789.789 0 0 0 .2-.548.9.9 0 0 0-.129-.487 1.116 1.116 0 0 0-.338-.353 1.531 1.531 0 0 0-.477-.2 2.279 2.279 0 0 0-.549-.066 2.12 2.12 0 0 0-.516.064 1.761 1.761 0 0 0-.465.187 1.39 1.39 0 0 0-.369.308 1.23 1.23 0 0 0-.234.431l.936.2a.54.54 0 0 1 .207-.316.609.609 0 0 1 .375-.118.642.642 0 0 1 .372.111.362.362 0 0 1 .162.32.394.394 0 0 1-.063.233.448.448 0 0 1-.168.141.783.783 0 0 1-.237.072 1.889 1.889 0 0 1-.276.019h-.298v.671h.27a2.051 2.051 0 0 1 .312.025 1.036 1.036 0 0 1 .279.083.515.515 0 0 1 .2.156.4.4 0 0 1 .075.248.435.435 0 0 1-.057.231.475.475 0 0 1-.144.151.609.609 0 0 1-.2.085.878.878 0 0 1-.219.028.746.746 0 0 1-.474-.146.69.69 0 0 1-.246-.338l-.936.225a1.292 1.292 0 0 0 .252.471 1.423 1.423 0 0 0 .393.319 1.87 1.87 0 0 0 .5.184 2.606 2.606 0 0 0 .561.06 2.265 2.265 0 0 0 .579-.074 1.677 1.677 0 0 0 .513-.225 1.208 1.208 0 0 0 .369-.384 1.05 1.05 0 0 0 .141-.552.811.811 0 0 0-.058-.313z" transform="translate(-53 -98)"/><path class="cls-6" d="M21 599v1h-12v-1h12zm0 5v1h-12v-1h12zm0 5v1h-12v-1h12z"/></g><g id="icon-21"><path id="_1_2_3-2" class="cls-3" d="M93 699v-4h-2v1h1v3h1zm1 5v-1h-1l.243-.6.263-.267a1.935 1.935 0 0 0 .226-.291 1.409 1.409 0 0 0 .155-.339 1.393 1.393 0 0 0 .056-.411 1.286 1.286 0 0 0-.121-.576 1.182 1.182 0 0 0-.325-.408 1.365 1.365 0 0 0-.463-.24 1.856 1.856 0 0 0-.537-.078 1.629 1.629 0 0 0-.556.094 1.415 1.415 0 0 0-.466.272 1.479 1.479 0 0 0-.336.431c-.088.169-.117.037-.14.253l.882.456a.826.826 0 0 1 .178-.465.522.522 0 0 1 .748-.036.51.51 0 0 1 .135.368.683.683 0 0 1-.09.348 1.556 1.556 0 0 1-.237.305l-1.615 1.184v1h3zm.01 3.391a.88.88 0 0 0-.168-.263 1.049 1.049 0 0 0-.258-.2 1.154 1.154 0 0 0-.33-.123v-.017a.989.989 0 0 0 .513-.3.789.789 0 0 0 .2-.548.9.9 0 0 0-.129-.487 1.116 1.116 0 0 0-.338-.353 1.531 1.531 0 0 0-.477-.2 2.279 2.279 0 0 0-.549-.066 2.12 2.12 0 0 0-.516.064 1.761 1.761 0 0 0-.465.187 1.39 1.39 0 0 0-.369.308 1.228 1.228 0 0 0-.234.431l.936.2a.54.54 0 0 1 .207-.316.609.609 0 0 1 .375-.118.642.642 0 0 1 .372.111.362.362 0 0 1 .162.32.394.394 0 0 1-.063.233.448.448 0 0 1-.168.141.783.783 0 0 1-.237.072 1.889 1.889 0 0 1-.276.019h-.298v.671h.27a2.052 2.052 0 0 1 .312.025 1.036 1.036 0 0 1 .279.083.516.516 0 0 1 .2.156.4.4 0 0 1 .075.248.435.435 0 0 1-.057.231.475.475 0 0 1-.144.151.609.609 0 0 1-.2.085.878.878 0 0 1-.219.028.746.746 0 0 1-.474-.146.69.69 0 0 1-.246-.338l-.936.225a1.292 1.292 0 0 0 .252.471 1.423 1.423 0 0 0 .393.319 1.868 1.868 0 0 0 .5.184 2.606 2.606 0 0 0 .561.06 2.265 2.265 0 0 0 .579-.074 1.677 1.677 0 0 0 .513-.225 1.208 1.208 0 0 0 .369-.384 1.05 1.05 0 0 0 .141-.552.811.811 0 0 0-.058-.313z" transform="translate(-53 -98)"/><path class="cls-3" d="M55 599v1h-12v-1h12zm0 5v1h-12v-1h12zm0 5v1h-12v-1h12z"/></g></g><g id="icon-22"><path class="cls-6" d="M21 572v1h-12v-1h12zm0 5v1h-12v-1h12zm0 5v1h-12v-1h12zm-17-11h2v2h-2v-2zm0 5h2v2h-2v-2zm0 5h2v2h-2v-2z"/><path class="cls-3" d="M55 572v1h-12v-1h12zm0 5v1h-12v-1h12zm0 5v1h-12v-1h12zm-17-11h2v2h-2v-2zm0 5h2v2h-2v-2zm0 5h2v2h-2v-2z"/></g><g id="table_CELL"><g id="icon-23"><path id="table" class="cls-4" d="M4 543h17v14h-17v-14zm2 2h3v2h-3v-2zm5 0h3v2h-3v-2zm5 0h3v2h-3v-2zm-10 4h3v2h-3v-2zm5 0h3v2h-3v-2zm5 0h3v2h-3v-2zm-10 4h3v2h-3v-2zm5 0h3v2h-3v-2zm5 0h3v2h-3v-2z"/><path class="cls-6" d="M4 547h7v6h-7v-6zm2 2h3v2h-3v-2z"/></g><g id="icon-24"><path id="table-2" class="cls-5" d="M38 543h17v14h-17v-14zm2 2h3v2h-3v-2zm5 0h3v2h-3v-2zm5 0h3v2h-3v-2zm-10 4h3v2h-3v-2zm5 0h3v2h-3v-2zm5 0h3v2h-3v-2zm-10 4h3v2h-3v-2zm5 0h3v2h-3v-2zm5 0h3v2h-3v-2z"/><path class="cls-3" d="M38 547h7v6h-7v-6zm2 2h3v2h-3v-2z"/></g></g><g id="table_COL"><g id="icon-25"><path id="table-3" class="cls-4" d="M4 516h17v14h-17v-14zm2 2h3v2h-3v-2zm5 0h3v2h-3v-2zm5 0h3v2h-3v-2zm-10 4h3v2h-3v-2zm5 0h3v2h-3v-2zm5 0h3v2h-3v-2zm-10 4h3v2h-3v-2zm5 0h3v2h-3v-2zm5 0h3v2h-3v-2z"/><path class="cls-6" d="M10 516h5v14h-5v-14zm1 2h3v2h-3v-2zm0 4h3v2h-3v-2zm0 4h3v2h-3v-2z"/></g><g id="icon-26"><path id="table-4" class="cls-5" d="M38 516h17v14h-17v-14zm2 2h3v2h-3v-2zm5 0h3v2h-3v-2zm5 0h3v2h-3v-2zm-10 4h3v2h-3v-2zm5 0h3v2h-3v-2zm5 0h3v2h-3v-2zm-10 4h3v2h-3v-2zm5 0h3v2h-3v-2zm5 0h3v2h-3v-2z"/><path class="cls-3" d="M44 516h5v14h-5v-14zm1 2h3v2h-3v-2zm0 4h3v2h-3v-2zm0 4h3v2h-3v-2z"/></g></g><g id="table_ROW"><g id="icon-27"><path class="cls-4" d="M4 489h17v14h-17v-14zm2 2h3v2h-3v-2zm5 0h3v2h-3v-2zm5 0h3v2h-3v-2zm-10 4h3v2h-3v-2zm5 0h3v2h-3v-2zm5 0h3v2h-3v-2zm-10 4h3v2h-3v-2zm5 0h3v2h-3v-2zm5 0h3v2h-3v-2z"/><path class="cls-6" d="M4 494h17v4h-17v-4zm2 1h3v2h-3v-2zm5 0h3v2h-3v-2zm5 0h3v2h-3v-2z"/></g><g id="icon-28"><path class="cls-5" d="M38 489h17v14h-17v-14zm2 2h3v2h-3v-2zm5 0h3v2h-3v-2zm5 0h3v2h-3v-2zm-10 4h3v2h-3v-2zm5 0h3v2h-3v-2zm5 0h3v2h-3v-2zm-10 4h3v2h-3v-2zm5 0h3v2h-3v-2zm5 0h3v2h-3v-2z"/><path class="cls-3" d="M38 494h17v4h-17v-4zm2 1h3v2h-3v-2zm5 0h3v2h-3v-2zm5 0h3v2h-3v-2z"/></g></g><g id="table-5"><path class="cls-6" d="M4 462h17v14h-17v-14zm2 2h3v2h-3v-2zm5 0h3v2h-3v-2zm5 0h3v2h-3v-2zm-10 4h3v2h-3v-2zm5 0h3v2h-3v-2zm5 0h3v2h-3v-2zm-10 4h3v2h-3v-2zm5 0h3v2h-3v-2zm5 0h3v2h-3v-2z"/><path class="cls-3" d="M38 462h17v14h-17v-14zm2 2h3v2h-3v-2zm5 0h3v2h-3v-2zm5 0h3v2h-3v-2zm-10 4h3v2h-3v-2zm5 0h3v2h-3v-2zm5 0h3v2h-3v-2zm-10 4h3v2h-3v-2zm5 0h3v2h-3v-2zm5 0h3v2h-3v-2z"/></g><g id="icon-29"><path class="cls-6" d="M72.983 542.236l-.053-2.7a.515.515 0 0 0-.479-.526 2.9 2.9 0 0 0-.9.65l-1.825 1.5a.65.65 0 0 0-.106.119.473.473 0 0 0 .169.739.784.784 0 0 0 .177.1l.162.854a5.349 5.349 0 0 1-4.149 4.028v-10.058a2.586 2.586 0 0 0 1.987-2.6 2.454 2.454 0 0 0-2.427-2.342 2.573 2.573 0 0 0-2.554 2.343 2.627 2.627 0 0 0 2 2.6v10.074c-1.679-.315-3.335-1.524-4.3-4.075l.152-.918a.777.777 0 0 0 .178-.1c.29-.226.667-.343.449-.645a.559.559 0 0 0-.1-.119l-2.013-1.5a3.333 3.333 0 0 0-.955-.71c-.3 0-.3.725-.356 1.024l-.056 2.449a.724.724 0 0 0-.015.16.6.6 0 0 0 .687.561.586.586 0 0 0 .193-.03l.907.1c.844 2.686 2.89 4.786 5.744 4.786s4.9-2.1 5.744-4.787l.906-.16a.561.561 0 0 0 .193.03.671.671 0 0 0 .657-.683.726.726 0 0 0-.017-.164zm-7.483-9.236a1.5 1.5 0 1 1-1.5 1.5 1.5 1.5 0 0 1 1.5-1.5z" transform="translate(-53 -98)"/><path class="cls-3" d="M106.983 542.236l-.053-2.7a.516.516 0 0 0-.479-.526 2.906 2.906 0 0 0-.9.65l-1.824 1.5a.616.616 0 0 0-.106.119.473.473 0 0 0 .169.739.788.788 0 0 0 .177.1l.162.854a5.349 5.349 0 0 1-4.15 4.028v-10.058a2.587 2.587 0 0 0 1.987-2.6 2.454 2.454 0 0 0-2.427-2.342 2.573 2.573 0 0 0-2.554 2.343 2.627 2.627 0 0 0 2 2.6v10.074c-1.679-.315-3.335-1.524-4.3-4.075l.152-.918a.778.778 0 0 0 .178-.1c.29-.226.667-.343.449-.645a.555.555 0 0 0-.1-.119l-2.013-1.5a3.333 3.333 0 0 0-.955-.71c-.3 0-.3.725-.356 1.024l-.056 2.449a.724.724 0 0 0-.016.16.6.6 0 0 0 .687.561.585.585 0 0 0 .193-.03l.907.1c.845 2.686 2.891 4.786 5.745 4.786s4.9-2.1 5.745-4.787l.906-.16a.558.558 0 0 0 .193.03.672.672 0 0 0 .656-.683.7.7 0 0 0-.017-.164zm-7.483-9.236a1.5 1.5 0 1 1-1.5 1.5 1.5 1.5 0 0 1 1.5-1.5z" transform="translate(-53 -98)"/></g><g id="new_Paint_Drop"><path id="droplet" class="cls-3" d="M98.725 505.746a1.945 1.945 0 0 0 .2-.642c.037-.18.11-.087.173-.007l.06.369a3.547 3.547 0 0 0 .364 1.09.676.676 0 0 0 .164.374 3.58 3.58 0 0 0 .485.932l.242.365a3.016 3.016 0 0 0 .507.805.455.455 0 0 0 .194.273l.551.813.276.386a4.25 4.25 0 0 0 .593.868l.146.267.556.951.1.189.358.9.152.467.155 1.177v.461a4.523 4.523 0 0 1-2.547 3.616 7.093 7.093 0 0 1-2.143.6h-.511l-1.315-.213a.407.407 0 0 0-.3-.089l-1.015-.479-.316-.236-.62-.54a.632.632 0 0 0-.273-.284l-.528-.817-.144-.375-.274-1.085-.015-.46a7.153 7.153 0 0 1 .3-1.58l.237-.7c.542-.994 1.142-1.96 1.76-2.918l.723-1.084a12.3 12.3 0 0 0 1.5-2.766 1.315 1.315 0 0 0 .205-.628zm.317 4.1a.716.716 0 0 0 .052-.862l-.5.852c-.23.275-.471.547-.689.827a14.115 14.115 0 0 0-1.989 2.7 1.9 1.9 0 0 0-.37.829 2.922 2.922 0 0 0-.251 1.828 1.171 1.171 0 0 0 1.216.962.975.975 0 0 0 .925-1.123 6.6 6.6 0 0 1 .39-3.009l.349-.837a9.76 9.76 0 0 0 .867-2.17z" transform="translate(-53 -98)"/><path id="droplet-2" class="cls-6" d="M64.725 505.746a1.945 1.945 0 0 0 .2-.642c.037-.18.11-.087.173-.007l.06.369a3.544 3.544 0 0 0 .364 1.09.676.676 0 0 0 .164.374 3.577 3.577 0 0 0 .485.932l.242.365a3.024 3.024 0 0 0 .508.805.452.452 0 0 0 .194.273l.551.813.276.386a4.247 4.247 0 0 0 .593.868l.146.267.556.951.1.189.357.9.152.467.155 1.177.005.461a4.522 4.522 0 0 1-2.548 3.616 7.083 7.083 0 0 1-2.143.6h-.515l-1.315-.213a.407.407 0 0 0-.3-.089l-1.015-.479-.316-.236-.621-.54a.632.632 0 0 0-.273-.284l-.527-.817-.144-.375-.274-1.085-.015-.46a7.153 7.153 0 0 1 .3-1.58l.238-.7c.542-.994 1.142-1.96 1.759-2.918l.723-1.084a12.3 12.3 0 0 0 1.5-2.766 1.315 1.315 0 0 0 .205-.628zm.317 4.1a.716.716 0 0 0 .052-.862l-.5.852c-.23.275-.47.547-.688.827a14.115 14.115 0 0 0-1.989 2.7 1.9 1.9 0 0 0-.37.829 2.922 2.922 0 0 0-.251 1.828 1.171 1.171 0 0 0 1.216.962.975.975 0 0 0 .925-1.123 6.6 6.6 0 0 1 .39-3.009l.349-.837a9.76 9.76 0 0 0 .866-2.17z" transform="translate(-53 -98)"/></g><g id="abbrviat..."><path id="quotes" class="cls-6" d="M65 490h2v2h-2v-2zm4 0h2v2h-2v-2zm4 0h2v2h-2v-2zm-10.476-5a9.455 9.455 0 0 1 .45-2.895 2.5 2.5 0 0 1 1.258-1.064l-.683-1.087a4.181 4.181 0 0 0-2.065 1.879 8.076 8.076 0 0 0-.5 3.263v2.915h3.016v-3.011h-1.48zm-4 0a9.458 9.458 0 0 1 .45-2.895 2.5 2.5 0 0 1 1.258-1.064l-.683-1.087a4.18 4.18 0 0 0-2.065 1.879 8.074 8.074 0 0 0-.5 3.263v2.915h3.016v-3.011h-1.48z" transform="translate(-53 -98)"/><path id="quotes-2" class="cls-3" d="M99 490h2v2h-2v-2zm4 0h2v2h-2v-2zm4 0h2v2h-2v-2zm-10.476-5a9.455 9.455 0 0 1 .45-2.895 2.5 2.5 0 0 1 1.258-1.064l-.683-1.087a4.181 4.181 0 0 0-2.065 1.879 8.076 8.076 0 0 0-.5 3.263v2.915h3.016v-3.011h-1.48zm-4 0a9.458 9.458 0 0 1 .45-2.895 2.5 2.5 0 0 1 1.258-1.064l-.683-1.087a4.18 4.18 0 0 0-2.065 1.879 8.074 8.074 0 0 0-.5 3.263v2.915h3.016v-3.011h-1.48z" transform="translate(-53 -98)"/></g><g id="accessibility"><path class="cls-6" d="M65.5 450a9.5 9.5 0 1 1-9.5 9.5 9.5 9.5 0 0 1 9.5-9.5zm0 1a8.5 8.5 0 1 1-8.5 8.5 8.5 8.5 0 0 1 8.5-8.5zm-1.5 2.5a1.5 1.5 0 1 1 .439 1.058 1.441 1.441 0 0 1-.439-1.058zm-3.8 6.623a.632.632 0 0 1 .039-.931l3.232-2.939a1.649 1.649 0 0 1 .425-.213 1.781 1.781 0 0 1 .5-.058h2.165a1.818 1.818 0 0 1 .5.058 1.649 1.649 0 0 1 .425.213l1.411 1.272s1.419 1.28 1.883 1.667a.635.635 0 0 1 .039.931.614.614 0 0 1-.928.078c-.258-.233-.639-.588-1.206-1.067s-.992-.859-1.276-1.143h-.058a1.269 1.269 0 0 0-.135-.078.3.3 0 0 0-.116-.039c-.077 0-.116.091-.116.272v1.143a7.182 7.182 0 0 0-.016 1.338l.039.5 1.06 4.018a.787.787 0 0 1-.657.969.814.814 0 0 1-.967-.659 24.512 24.512 0 0 0-.711-3.337.742.742 0 0 0-.193-.466.3.3 0 0 0-.116.1.241.241 0 0 0-.039.136.638.638 0 0 1-.019.155l-.019.078c0 .025-.064-.587-.193.163s-.32 1.365-.449 2.089l-.193 1.085a.992.992 0 0 1-.367.524.851.851 0 0 1-.6.135.778.778 0 0 1-.657-.969l1.06-4.057c.077-.491.022-1.46.022-2.908 0-.206-.039-.31-.116-.31a.569.569 0 0 0-.309.155l-2.42 2.172a.61.61 0 0 1-.928-.078z" transform="translate(-53 -98)"/><path class="cls-3" d="M99.5 450a9.5 9.5 0 1 1-9.5 9.5 9.5 9.5 0 0 1 9.5-9.5zm0 1a8.5 8.5 0 1 1-8.5 8.5 8.5 8.5 0 0 1 8.5-8.5zm-1.5 2.5a1.5 1.5 0 1 1 .439 1.058 1.442 1.442 0 0 1-.439-1.058zm-3.8 6.623a.632.632 0 0 1 .039-.931l3.232-2.939a1.649 1.649 0 0 1 .425-.213 1.781 1.781 0 0 1 .5-.058h2.165a1.823 1.823 0 0 1 .5.058 1.651 1.651 0 0 1 .425.213l1.411 1.272s1.419 1.28 1.883 1.667a.635.635 0 0 1 .039.931.614.614 0 0 1-.928.078c-.258-.233-.639-.588-1.206-1.067s-.993-.859-1.276-1.143h-.058a1.264 1.264 0 0 0-.136-.078.291.291 0 0 0-.116-.039c-.077 0-.116.091-.116.272v1.143a7.283 7.283 0 0 0-.016 1.338l.039.5 1.06 4.018a.787.787 0 0 1-.657.969.814.814 0 0 1-.967-.659 24.5 24.5 0 0 0-.71-3.337.742.742 0 0 0-.193-.466.3.3 0 0 0-.116.1.241.241 0 0 0-.039.136.638.638 0 0 1-.019.155l-.019.078c0 .025-.064-.587-.193.163s-.32 1.365-.449 2.089l-.193 1.085a.992.992 0 0 1-.367.524.851.851 0 0 1-.6.135.778.778 0 0 1-.657-.969l1.06-4.057c.077-.491.022-1.46.022-2.908 0-.206-.039-.31-.116-.31a.569.569 0 0 0-.309.155l-2.42 2.172a.61.61 0 0 1-.928-.078z" transform="translate(-53 -98)"/></g><g id="merge"><g id="icon-32"><path id="Rounded_Rectangle_2" class="cls-6" d="M60 424h7a2 2 0 0 1 2 2v7a2 2 0 0 1-2 2h-7a2 2 0 0 1-2-2v-7a2 2 0 0 1 2-2zm0 1h7a1 1 0 0 1 1 1v7a1 1 0 0 1-1 1h-7a1 1 0 0 1-1-1v-7a1 1 0 0 1 1-1z" transform="translate(-53 -98)"/><path id="Rounded_Rectangle_2-2" class="cls-6" d="M64 428h7a2 2 0 0 1 2 2v7a2 2 0 0 1-2 2h-7a2 2 0 0 1-2-2v-7a2 2 0 0 1 2-2zm0 1h7a1 1 0 0 1 1 1v7a1 1 0 0 1-1 1h-7a1 1 0 0 1-1-1v-7a1 1 0 0 1 1-1zm0 1h3v3h-3v-3z" transform="translate(-53 -98)"/></g><g id="icon-33"><path id="Rounded_Rectangle_2-3" class="cls-3" d="M94 424h7a2 2 0 0 1 2 2v7a2 2 0 0 1-2 2h-7a2 2 0 0 1-2-2v-7a2 2 0 0 1 2-2zm0 1h7a1 1 0 0 1 1 1v7a1 1 0 0 1-1 1h-7a1 1 0 0 1-1-1v-7a1 1 0 0 1 1-1z" transform="translate(-53 -98)"/><path id="Rounded_Rectangle_2-4" class="cls-3" d="M98 428h7a2 2 0 0 1 2 2v7a2 2 0 0 1-2 2h-7a2 2 0 0 1-2-2v-7a2 2 0 0 1 2-2zm0 1h7a1 1 0 0 1 1 1v7a1 1 0 0 1-1 1h-7a1 1 0 0 1-1-1v-7a1 1 0 0 1 1-1zm0 1h3v3h-3v-3z" transform="translate(-53 -98)"/></g></g><g id="Combined-20"><path id="up_arrow" class="cls-6" d="M15 311v-8l5.941 4.043zm-5 0h-2v-3h-3v-2h3v-3h2v3h3v2h-3v3z"/><path id="up_arrow-2" class="cls-3" d="M49 311v-8l5.941 4.043zm-5 0h-2v-3h-3v-2h3v-3h2v3h3v2h-3v3z"/></g><g id="Combined-21"><path id="up_arrow-3" class="cls-6" d="M20 281h-3.012v3h-2.008v-3h-2.98v-2h2.98v-3h2.008v3h3.012v2zm-10-5v8l-6-3.957z"/><path id="up_arrow-4" class="cls-3" d="M54 281h-3v3h-2v-3h-3v-2h3v-3h2v3h3v2zm-10-5v8l-6-3.957z"/></g><g id="Combined-22"><path id="arrow_copy_6" class="cls-6" d="M21 253.48l-3 2.52v-2h-5v5h2l-2.48 3-2.52-3h2v-5h-5v2l-3-2.52 3-2.48v2h5v-5h-2l2.52-3 2.48 3h-2v5h5v-2z"/><path id="arrow_copy_6-2" class="cls-3" d="M55 253.48l-3 2.52v-2h-5v5h2l-2.48 3-2.52-3h2v-5h-5v2l-3-2.52 3-2.48v2h5v-5h-2l2.52-3 2.48 3h-2v5h5v-2z"/></g><g id="split_vert"><path id="icon-35" class="cls-6" d="M10 227v-3h-2v-2l-4 3.5 4 3.5v-2h2zm5 0v-3h2v-2l4 3.5-4 3.5v-2h-2zm-2 5h-1v-13h1v13z"/><path id="icon-37" class="cls-3" d="M44 227v-3h-2v-2l-4 3.5 4 3.5v-2h2zm5 0v-3h2v-2l4 3.5-4 3.5v-2h-2zm-2 5h-1v-13h1v13z"/></g><g id="split_horiz"><path id="icon-39" class="cls-3" d="M45 197h3v-2h2l-3.5-4-3.5 4h2v2zm0 5h3v2h2l-3.5 4-3.5-4h2v-2zm-5-2v-1h13v1h-13z"/><path id="icon-41" class="cls-6" d="M11 197h3v-2h2l-3.5-4-3.5 4h2v2zm0 5h3v2h2l-3.5 4-3.5-4h2v-2zm-5-2v-1h13v1h-13z"/></g><g id="Right_arrow"><path id="up_right" class="cls-6" d="M6 174v-3h7v-3l6 4.469-6 4.531v-3h-7z"/><path id="up_right-2" class="cls-3" d="M40 174v-3h7v-3l6 4.469-6 4.531v-3h-7z"/></g><g id="Left_arrow"><path id="up_right-3" class="cls-6" d="M19 147v-3h-7v-3l-6 4.469 6 4.531v-3h7z"/><path id="up_right-4" class="cls-3" d="M53 147v-3h-7v-3l-6 4.469 6 4.531v-3h7z"/></g><g id="Combined-23"><path id="up_arrow-5" class="cls-6" d="M13 119h-2v-3h-3v-2h3v-3h2v3h3v2h-3v3zm-2 2h5l-4.011 5.972-3.989-5.972h3z"/><path id="up_arrow-6" class="cls-3" d="M47 119h-2v-3h-3v-2h3v-3h2v3h3v2h-3v3zm-2 2h5l-4.011 5.972-3.989-5.972h3z"/></g><g id="Combined-24"><path id="up_arrow-7" class="cls-6" d="M13 94.969v3h-2v-3h-3v-2h3v-3h2v3h3v2h-3zm-2-7h-3l3.989-5.969 4.011 5.969h-5z"/><path id="up_arrow-8" class="cls-3" d="M47 94.969v3h-2v-3h-3v-2h3v-3h2v3h3v2h-3zm-2-7h-3l3.989-5.969 4.011 5.969h-5z"/></g><g id="Combined-25"><path id="Icon_-_Delete" class="cls-6" d="M70 159v7a1.913 1.913 0 0 1-1.969 2h-5.061a1.88 1.88 0 0 1-1.97-1.935v-7.065h-1v-2h2.5v-1.5a.5.5 0 0 1 .5-.5h5a.5.5 0 0 1 .5.5v1.5h2.5v2h-1zm-5 6.5a.5.5 0 0 0 1 0v-5a.5.5 0 0 0-1 0v5zm-2-5v5a.5.5 0 0 0 1 0v-5a.5.5 0 0 0-1 0zm4-4.5h-3a1.548 1.548 0 0 0-.371 1h3.743a1.548 1.548 0 0 0-.372-1zm1 4.5a.5.5 0 0 0-1 0v5a.5.5 0 0 0 1 0v-5z" transform="translate(-53 -98)"/><path id="Icon_-_Delete-2" class="cls-3" d="M104 159v7a1.913 1.913 0 0 1-1.969 2h-5.061a1.88 1.88 0 0 1-1.97-1.935v-7.065h-1v-2h2.5v-1.5a.5.5 0 0 1 .5-.5h5a.5.5 0 0 1 .5.5v1.5h2.5v2h-1zm-5 6.5a.5.5 0 1 0 1 0v-5a.5.5 0 1 0-1 0v5zm-2-5v5a.5.5 0 0 0 1 0v-5a.5.5 0 0 0-1 0zm4-4.5h-3a1.548 1.548 0 0 0-.371 1h3.743a1.549 1.549 0 0 0-.372-1zm1 4.5a.5.5 0 0 0-1 0v5a.5.5 0 0 0 1 0v-5z" transform="translate(-53 -98)"/></g><g id="down_arrow"><path id="up_arrow-9" class="cls-6" d="M11.008 29.987h3v8.013h3l-4.5 5.987-4.5-5.987h3v-8.017z"/><path id="up_arrow-10" class="cls-3" d="M45.008 29.987h3v8.013h3l-4.5 5.987-4.5-5.987h3v-8.017z"/></g><g id="Up_arrow-11"><path id="up_arrow-12" class="cls-6" d="M11.008 17.013h3v-8.035h3l-4.5-6-4.5 6h3v8.035z"/><path id="up_arrow-13" class="cls-3" d="M44.008 17.013h3v-8.035h3l-4.5-6-4.5 6h3v8.035z"/></g></svg>