<svg xmlns="http://www.w3.org/2000/svg" preserveAspectRatio="xMidYMid" width="5" height="5" viewBox="0 0 5 5"><defs><style>.cls-1 { fill: #fff; opacity: 0.2; } .cls-1, .cls-2 { fill-rule: evenodd; } .cls-2 { fill: #e33030; opacity: 0.5; }</style></defs><path d="M3.354 7.354l-.708-.708 5-5 .708.708-5 5zm-3-1l-.708-.708.5-.5-.5-.5 5-5 .708.708-.5.5.5.5-5 5zm-2.708-3.708l5-5 .708.708-5 5-.708-.708z" class="cls-1"/><path d="M2.354 6.354l-.708-.708 5-5 .708.708-5 5zm-3.708-2.708l5-5 .708.708-5 5-.708-.708z" class="cls-2"/></svg>