<svg xmlns="http://www.w3.org/2000/svg" preserveAspectRatio="xMidYMid" width="59" height="214" viewBox="0 0 59 214"><defs><style>.cls-1, .cls-2, .cls-5 { fill: #2b2b2b; } .cls-1, .cls-2, .cls-3, .cls-4, .cls-6, .cls-7 { fill-rule: evenodd; } .cls-2, .cls-4 { opacity: 0.5; } .cls-3, .cls-4 { fill: #fff; } .cls-5 { fill-opacity: 0; } .cls-6 { fill: #2b7ce0; } .cls-7 { fill: #1a4c8a; }</style></defs><path d="M5.128 41.073c.426-.043.857-.236 1.162-.535.553-.542.83-1.246.664-1.992l.027-.089.837-.764.237.025.23.195 2.793 2.004c.185.13.141.016.52.074.332.052.252.06.482.036.08-.008.514.036.566-.026l.367-.19-3.893-3.261 3.853-3.302-.282-.234c-.067-.08-.518-.044-.62-.039-.119.006-.856-.039-1.125.15l-2.15 1.549-.961.741-.067.021-.904-.85.051-.052c.071-.263.091-.53.054-.8-.088-.629-.384-1.166-.934-1.497-.27-.161-.583-.253-.895-.269-.571-.029-1.118.146-1.528.549-.502.493-.726 1.099-.602 1.792.103.573.448 1.015.941 1.318.432.265.902.419 1.404.307l.074.016 1.204.563.031.038-1.311.475-.059.006c-.137-.036-.277-.048-.418-.044-.462.015-.968.262-1.314.571-.51.456-.67 1.063-.583 1.743.082.644.494 1.189 1.054 1.509.348.199.696.301 1.095.262zm-1.119-7.084c.005-.567.446-1.005 1.007-.999.56.007.998.46.992 1.025-.006.553-.461.994-1.022.989-.543-.005-.982-.461-.977-1.015zm-.012 5.015c.002-.574.444-1.021 1.01-1.019.554.002 1.004.458 1.003 1.016 0 .56-.451 1.012-1.007 1.011-.564-.001-1.007-.444-1.006-1.008z" class="cls-1"/><path d="M20 43c-1.105 0-2-.895-2-2s.895-2 2-2 2 .895 2 2-.895 2-2 2zm0-3c-.552 0-1 .448-1 1s.448 1 1 1 1-.448 1-1-.448-1-1-1zm-5.742 2.535l6.272-9.133.762.547-6.318 9.132-.716-.546zm.742-4.535c-1.105 0-2-.895-2-2s.895-2 2-2 2 .895 2 2-.895 2-2 2zm0-3c-.552 0-1 .448-1 1s.448 1 1 1 1-.448 1-1-.448-1-1-1z" class="cls-2"/><path d="M40.128 41.073c.426-.043.857-.236 1.162-.535.553-.542.83-1.246.664-1.992l.027-.089.837-.764.237.025.23.195 2.793 2.004c.185.13.141.016.52.074.332.052.252.06.482.036.08-.008.514.036.566-.026l.367-.19-3.893-3.261 3.853-3.302-.282-.234c-.067-.08-.518-.044-.62-.039-.119.006-.856-.039-1.125.15l-2.15 1.549-.961.741-.067.021-.904-.85.051-.052c.071-.263.091-.53.054-.8-.088-.629-.384-1.166-.934-1.497-.27-.161-.583-.253-.895-.269-.571-.029-1.118.146-1.528.549-.502.493-.726 1.099-.602 1.792.103.573.448 1.015.941 1.318.432.265.902.419 1.404.307l.074.016 1.204.563.031.038-1.311.475-.059.006c-.137-.036-.277-.048-.418-.044-.462.015-.968.262-1.314.571-.51.456-.67 1.063-.583 1.743.082.644.494 1.189 1.054 1.509.348.199.696.301 1.095.262zm-1.119-7.084c.005-.567.446-1.005 1.007-.999.56.007.998.46.992 1.025-.006.553-.461.994-1.022.989-.543-.005-.982-.461-.977-1.015zm-.012 5.015c.002-.574.444-1.021 1.01-1.019.554.002 1.004.458 1.003 1.016 0 .56-.451 1.012-1.007 1.011-.564-.001-1.007-.444-1.006-1.008z" class="cls-3"/><path d="M55 43c-1.105 0-2-.895-2-2s.895-2 2-2 2 .895 2 2-.895 2-2 2zm0-3c-.552 0-1 .448-1 1s.448 1 1 1 1-.448 1-1-.448-1-1-1zm-5.742 2.535l6.273-9.133.761.547-6.318 9.132-.716-.546zm.742-4.535c-1.105 0-2-.895-2-2s.895-2 2-2 2 .895 2 2-.895 2-2 2zm0-3c-.552 0-1 .448-1 1s.448 1 1 1 1-.448 1-1-.448-1-1-1z" class="cls-4"/><path class="cls-5" d="M0 0h59v214h-59z"/><path d="M16 17c-1.657 0-3-1.343-3-3s1.343-3 3-3 3 1.343 3 3-1.343 3-3 3zm0-5c-1.105 0-2 .895-2 2s.895 2 2 2 2-.895 2-2-.895-2-2-2zm-7.655 4.05l7.745-11.951.895.69-7.803 11.956-.837-.695zm.655-6.05c-1.657 0-3-1.343-3-3s1.343-3 3-3 3 1.343 3 3-1.343 3-3 3zm0-5c-1.105 0-2 .895-2 2s.895 2 2 2 2-.895 2-2-.895-2-2-2z" class="cls-1"/><path d="M50 17c-1.657 0-3-1.343-3-3s1.343-3 3-3 3 1.343 3 3-1.343 3-3 3zm0-5c-1.105 0-2 .895-2 2s.895 2 2 2 2-.895 2-2-.895-2-2-2zm-7.655 4.05l7.745-11.951.895.69-7.803 11.956-.837-.695zm.655-6.05c-1.657 0-3-1.343-3-3s1.343-3 3-3 3 1.343 3 3-1.343 3-3 3zm0-5c-1.105 0-2 .895-2 2s.895 2 2 2 2-.895 2-2-.895-2-2-2z" class="cls-3"/><path d="M4 70v-4h1l-.031 3.031 15.032-.028.001-3.003h.998v4h-17zm9.981-3.013h-2.993v-3.007h-2.914l4.401-6.26 4.451 6.26h-2.945v3.007z" class="cls-1"/><path d="M38 70v-4h1l-.031 3.031 15.032-.028.001-3.003h.998v4h-17zm9.981-3.013h-2.993v-3.007h-2.914l4.401-6.26 4.451 6.26h-2.945v3.007z" class="cls-3"/><path d="M19.982 123.978v3.022l-3.412-2.844h-1.57c-1.657 0-3-1.343-3-3v-2.156c0-1.657 1.343-3 3-3h4c1.657 0 3 1.343 3 3v2.156c0 1.311-.846 2.414-2.018 2.822zM11 118.156v2.844h-.5l-4.5 3v-3c-1.657 0-3-1.343-3-3v-4c0-1.657 1.343-3 3-3h8c1.657 0 3 1.343 3 3v1h-2.875c-1.657 0-3.125 1.499-3.125 3.156z" class="cls-6"/><path d="M53.982 123.978v3.022l-3.412-2.844h-1.57c-1.657 0-3-1.343-3-3v-2.156c0-1.657 1.343-3 3-3h4c1.657 0 3 1.343 3 3v2.156c0 1.311-.846 2.414-2.018 2.822zM45 118.156v2.844h-.5l-4.5 3v-3c-1.657 0-3-1.343-3-3v-4c0-1.657 1.343-3 3-3h8c1.657 0 3 1.343 3 3v1h-2.875c-1.657 0-3.125 1.499-3.125 3.156z" class="cls-7"/><path d="M17 151h-3.2l-4.8 4v-4h-1c-1.657 0-3-1.343-3-3v-7c0-1.657 1.343-3 3-3h9c1.657 0 3 1.343 3 3v7c0 1.657-1.343 3-3 3zm-1-7h-3v-3h-1v3h-3v1h3v3h1v-3h3v-1z" class="cls-1"/><path d="M51 151h-3.2l-4.8 4v-4h-1c-1.657 0-3-1.343-3-3v-7c0-1.657 1.343-3 3-3h9c1.657 0 3 1.343 3 3v7c0 1.657-1.343 3-3 3zm-1-7h-3v-3h-1v3h-3v1h3v3h1v-3h3v-1zM54.013 96.968v3.032l-3.412-2.844h-1.601c-1.657 0-3-1.343-3-3v-2.156c0-1.657 1.343-3 3-3h4c1.657 0 3 1.343 3 3v2.156c0 1.3-.831 2.395-1.987 2.812zM45 91.156v2.844h-.5l-4.5 3v-3c-1.657 0-3-1.343-3-3v-4c0-1.657 1.343-3 3-3h8c1.657 0 3 1.343 3 3v1h-2.875c-1.657 0-3.125 1.499-3.125 3.156z" class="cls-3"/><path d="M19.857 97.017v2.983l-3.412-2.844h-1.445c-1.657 0-3-1.343-3-3v-2.156c0-1.657 1.343-3 3-3h4c1.657 0 3 1.343 3 3v2.156c0 1.357-.907 2.49-2.143 2.861zM11 91.156v2.844h-.5l-4.5 3v-3c-1.657 0-3-1.343-3-3v-4c0-1.657 1.343-3 3-3h8c1.657 0 3 1.343 3 3v1h-2.875c-1.657 0-3.125 1.499-3.125 3.156zM7 198.5l9 5.5v-11l-9 5.5z" class="cls-1"/><path d="M41 198.5l9 5.5v-11l-9 5.5z" class="cls-3"/><path d="M17 171.5l-9 5.5v-11l9 5.5z" class="cls-1"/><path d="M51 171.5l-9 5.5v-11l9 5.5z" class="cls-3"/></svg>