<svg xmlns="http://www.w3.org/2000/svg" preserveAspectRatio="xMidYMid" width="20.031" height="249" viewBox="0 0 20.031 249"><defs><style>.cls-1 { fill: #2b2b2b; fill-opacity: 0; } .cls-10, .cls-2 { fill: #fff; } .cls-12, .cls-13, .cls-2, .cls-3, .cls-4, .cls-5, .cls-6, .cls-7, .cls-8 { fill-rule: evenodd; } .cls-3, .cls-4 { fill: silver; } .cls-3 { opacity: 0.5; } .cls-5 { fill: #c44e4e; } .cls-6 { fill: #bfbfbf; } .cls-7 { fill: #b8b8b8; } .cls-11, .cls-8 { fill: #9e9e9e; } .cls-13, .cls-9 { fill: #2b7ce0; } .cls-12 { fill: #2a7bde; }</style></defs><path class="cls-1" d="M.031 0h20v249h-20z"/><path d="M8.893 240.188l-4.312 5.812-2.63-2.531-1.482 1.625 2.473 2.344 1.732 1.562 5.764-7.469-1.545-1.343zM9.74 234.501l-4.147 4.147.005.004-1.415 1.415-.004-.005-.015.015-1.414-1.414.015-.015-2.202-2.202 1.414-1.414 2.202 2.202 4.147-4.147 1.414 1.414z" class="cls-2"/><path d="M17.04 194.51l-.946.775-.011-.01-2.115 1.733-.946-.775 1.504-1.233h-5.495v4.495l1.233-1.504.775.946-1.733 2.115.01.011-.285.348v.589h-.483l-.007.009-.008-.009h-.004l-.007.009-.008-.009h-.483v-.589l-.284-.348.009-.011-1.732-2.115.775-.946 1.232 1.504v-4.495h-5.495l1.504 1.233-.946.775-2.114-1.733-.012.01-.946-.775.012-.01-.012-.01.946-.775.012.01 2.114-1.733.946.775-1.504 1.233h5.495v-4.495l-1.232 1.504-.775-.946 1.732-2.115-.009-.011.775-.946.009.011.01-.011.775.946-.01.011 1.733 2.115-.775.946-1.233-1.504v4.495h5.495l-1.504-1.233.946-.775 2.115 1.733.011-.01.946.775-.011.01.011.01zm-8.595-5.51h.173l-.087-.106-.086.106z" class="cls-3"/><path d="M10.02 178.221l-3.607 3.248 3.607 3.247-1.415 1.274-3.606-3.248-3.608 3.248-1.349-1.214 3.608-3.248-3.638-3.276 1.414-1.273 3.638 3.276 3.607-3.248 1.349 1.214zM5.678 213.646l6-6 .707.708-6 6-.707-.708zm-4 0l10-10 .707.708-10 10-.707-.708zm10.707-1.292l-2 2-.707-.708 2-2 .707.708z" class="cls-4"/><path d="M9.04 168.386l1.553 2.566 1.761-1.162c-.161-.199-.38-.456-.656-.771l-1.381-1.553c1.12-.184 2.106-.372 2.957-.564l-.61-2.083c-.583.223-1.219.491-1.91.806-.506.238-.836.387-.989.449.207-1.496.311-2.524.311-3.084h-2.049c0 .79.092 1.81.277 3.061-.791-.491-1.688-.94-2.693-1.347l-.679 2.026c.207.076.637.195 1.289.356.905.223 1.453.349 1.645.38l-.448.437c-.599.568-1.174 1.162-1.726 1.784l1.737 1.346c.606-.936 1.143-1.818 1.611-2.647z" class="cls-5"/><path d="M9.026 225.628l1.896 3.134 2.15-1.419c-.197-.244-.464-.558-.801-.942l-1.686-1.897c1.368-.224 2.571-.454 3.611-.688l-.745-2.543c-.712.272-1.489.599-2.332.983-.618.291-1.021.473-1.208.548.253-1.826.379-3.081.379-3.765h-2.501c0 .965.113 2.211.337 3.737-.965-.599-2.06-1.147-3.287-1.644l-.829 2.473c.252.094.777.239 1.573.436 1.105.272 1.775.426 2.009.463l-.548.534c-.73.694-1.433 1.419-2.107 2.178l2.121 1.644c.74-1.143 1.396-2.22 1.968-3.232z" class="cls-2"/><path d="M9.031 155c-3.314 0-6-2.686-6-6s2.686-6 6-6 6 2.686 6 6-2.686 6-6 6zm2.547-9.458l-2.514 2.514-2.544-2.544-.977.976 2.544 2.545-2.513 2.514.911.911 2.514-2.514 2.513 2.513.976-.977-2.513-2.513 2.514-2.513-.911-.912zM9.531 136c-.524 0-1.02-.097-1.5-.233v-1.304c.468.178.97.287 1.5.287 2.347 0 4.25-1.91 4.25-4.266 0-2.355-1.903-4.265-4.25-4.265-1.496 0-2.806.78-3.563 1.952l1.829 1.829h-4.766v-4.766l2.053 2.053c.999-1.38 2.613-2.287 4.447-2.287 3.038 0 5.5 2.462 5.5 5.5s-2.462 5.5-5.5 5.5z" class="cls-6"/><path d="M10.903 114.833l-10.868 6.275v-12.549l10.868 6.274zM.034 100.833l10.868 6.275v-12.549l-10.868 6.274z" class="cls-2"/><path d="M12.983 83.518l-.434.434-.018-.018-3.205 3.205-.434-.434 3.205-3.205-3.205-3.205.434-.434 3.205 3.205.018-.018.434.434-.018.018.018.018z" class="cls-7"/><path d="M8.056 87.03l-.748.718-.03-.03-5.523 5.305-.748-.718 5.523-5.305-5.523-5.305.748-.718 5.523 5.305.03-.029.748.718-.031.029.031.03z" class="cls-8"/><circle cx="9.969" cy="69.938" r="7.063" class="cls-9"/><circle cx="10" cy="70" r="3.281" class="cls-10"/><circle cx="9.969" cy="49.938" r="7.063" class="cls-11"/><path d="M15.031 37h-10c-1.104 0-2-.895-2-2v-10c0-1.105.896-2 2-2h10c1.105 0 2 .895 2 2v10c0 1.105-.895 2-2 2zm0-11c0-.552-.448-1-1-1h-8c-.552 0-1 .448-1 1v8c0 .552.448 1 1 1h8c.552 0 1-.448 1-1v-8z" class="cls-12"/><path d="M14.013 24.301c-1.467 1.564-2.72 3.275-3.757 5.133l-.316-.704c-.58-1.306-.882-1.227-1.369-1.227-.351 0-.996.448-1.47.882.351.035.678.268.98.698.301.431.672 1.188 1.112 2.272l.202.501c.187.469.301.809.342 1.02.241-.217.759-.665 1.093-.882l.387-.255c.65-1.781 1.708-3.6 3.173-5.458 1.464-1.857 3.055-3.392 4.772-4.605l-.495-1.19c-1.635.979-3.186 2.25-4.654 3.815z" class="cls-13"/><path d="M15.031 17h-10c-1.104 0-2-.895-2-2v-10c0-1.105.896-2 2-2h10c1.105 0 2 .895 2 2v10c0 1.105-.895 2-2 2zm0-11c0-.552-.448-1-1-1h-8c-.552 0-1 .448-1 1v8c0 .552.448 1 1 1h8c.552 0 1-.448 1-1v-8z" class="cls-8"/></svg>