<svg xmlns="http://www.w3.org/2000/svg" preserveAspectRatio="xMidYMid" width="22.75" height="19.938" viewBox="0 0 22.75 19.938"><defs><style>.cls-1 { fill: #837c5d; fill-rule: evenodd; }</style></defs><path d="M22.469 17.203c0 1.511-1.259 2.735-2.813 2.735l-.252-.025-.021.034h-15.665l-.03-.05c-.139.02-.278.041-.422.041-1.562 0-2.829-1.224-2.829-2.735 0-.648.243-1.235.633-1.704l-.049-.081 7.819-13.449h.05c.433-.974 1.423-1.656 2.579-1.656 1.155 0 2.145.682 2.578 1.656h.028l7.904 13.596-.034.058c.327.447.524.99.524 1.58zm-9.518-11.265h-3v7.062h3v-7.062zm-1.5 9c-.829 0-1.5.671-1.5 1.5 0 .828.671 1.5 1.5 1.5.828 0 1.5-.672 1.5-1.5 0-.829-.672-1.5-1.5-1.5z" class="cls-1"/></svg>